<?xml version="1.0" standalone="no"?>
<!DOCTYPE svg PUBLIC "-//W3C//DTD SVG 1.1//EN" "http://www.w3.org/Graphics/SVG/1.1/DTD/svg11.dtd" >
<svg xmlns="http://www.w3.org/2000/svg" xmlns:xlink="http://www.w3.org/1999/xlink" version="1.1">
<metadata>
Created by FontForge 20201107 at Fri Jan  1 02:30:17 1904
 By 
Copyright (c) 1989, 1993, 1996 Adobe Systems Incorporated.  All Rights Reserved.Sabon is a trademark of Linotype-Hell AG and/or its subsidiaries.
</metadata>
<defs>
<font id="SabonCE-BoldItalic" horiz-adv-x="556" >
  <font-face 
    font-family="Sabon CE Roman"
    font-weight="700"
    font-style="italic"
    font-stretch="normal"
    units-per-em="1000"
    panose-1="0 2 0 0 0 0 0 0 0 0"
    ascent="800"
    descent="-200"
    x-height="464"
    cap-height="698"
    bbox="-147 -264 1080 956"
    underline-thickness="50"
    underline-position="-125"
    slope="-12"
    unicode-range="U+0020-FB02"
  />
<missing-glyph horiz-adv-x="582" 
d="M40 0v665h502v-665h-502zM80 40h422v585h-422v-585z" />
    <glyph glyph-name=".notdef" horiz-adv-x="582" 
d="M40 0v665h502v-665h-502zM80 40h422v585h-422v-585z" />
    <glyph glyph-name=".null" horiz-adv-x="0" 
 />
    <glyph glyph-name="nonmarkingreturn" horiz-adv-x="333" 
 />
    <glyph glyph-name="space" unicode=" " horiz-adv-x="278" 
 />
    <glyph glyph-name="exclam" unicode="!" horiz-adv-x="333" 
d="M171 203l-25 4q6 76 12.5 151.5t11.5 151.5q2 22 5 52t12 57.5t26.5 46.5t47.5 19q36 0 52.5 -20t16.5 -52q0 -25 -20.5 -80t-47.5 -117.5t-53.5 -121t-37.5 -91.5zM134 133q29 0 51.5 -22.5t22.5 -51.5t-22.5 -51.5t-51.5 -22.5t-51.5 22.5t-22.5 51.5t22.5 51.5
t51.5 22.5z" />
    <glyph glyph-name="quotedbl" unicode="&#x22;" horiz-adv-x="519" 
d="M270 625l-21 -182q-1 -14 -7 -20.5t-22 -6.5q-17 0 -23.5 6.5t-7.5 20.5l-21 182q-2 12 -2 20q0 19 8 36t43 17q37 0 46 -17t9 -36q0 -8 -2 -20zM456 625l-21 -182q-1 -14 -7 -20.5t-22 -6.5q-17 0 -23.5 6.5t-7.5 20.5l-21 182q-2 12 -2 20q0 19 8 36t43 17q37 0 46 -17
t9 -36q0 -8 -2 -20z" />
    <glyph glyph-name="numbersign" unicode="#" 
d="M119 0l28 197h-111l10 68h111l20 145h-110l10 68h110l30 212h69l-30 -212h122l30 212h69l-30 -212h110l-10 -68h-110l-20 -145h109l-10 -68h-109l-28 -197h-69l28 197h-122l-28 -197h-69zM348 265l20 145h-122l-20 -145h122z" />
    <glyph glyph-name="dollar" unicode="$" 
d="M294 458l40 217q-49 -3 -76 -31t-27 -80q0 -26 18 -52t45 -54zM294 269l-44 -246q46 5 78.5 35.5t32.5 91.5q0 32 -19.5 61t-47.5 58zM193 -100l16 88q-37 4 -70 16t-48 19l-39 -23l-18 2q8 47 14.5 104.5t10.5 97.5l30 2q0 -33 8 -64.5t23.5 -56.5t39.5 -41.5t56 -19.5
l49 274q-24 23 -48 47t-43 51t-31 57.5t-12 64.5q0 48 17.5 84t47 60.5t67 37t78.5 13.5l10 56h34l-10 -58q22 -1 43.5 -6t31.5 -9q20 -9 31 -9q13 0 17 12l24 -2q-9 -44 -16.5 -89t-12.5 -89l-32 -4q1 7 1.5 18t0.5 27q0 35 -20.5 70.5t-74.5 44.5l-45 -246
q25 -25 51.5 -52t48.5 -57t36 -63t14 -70q0 -49 -18 -86t-49 -63t-73 -39t-90 -14l-16 -85h-34z" />
    <glyph glyph-name="percent" unicode="%" horiz-adv-x="1000" 
d="M138 506q0 42 14.5 78t40.5 63t60.5 42.5t75.5 15.5q67 0 112.5 -37t45.5 -108q0 -42 -14.5 -78t-40.5 -63t-61 -42.5t-75 -15.5q-68 0 -113 37t-45 108zM238 456q0 -25 13 -45t39 -20q30 0 49 26t29.5 61.5t14.5 73t4 60.5q0 25 -13 44t-39 19q-30 0 -49 -25.5
t-29.5 -61t-14.5 -72.5t-4 -60zM575 130q0 42 14.5 78t40.5 63t61 42.5t75 15.5q68 0 113 -37t45 -108q0 -42 -14.5 -78t-40.5 -63t-60.5 -42.5t-75.5 -15.5q-67 0 -112.5 37t-45.5 108zM675 80q0 -25 13 -45t39 -20q30 0 49 26t29.5 61.5t14.5 73t4 60.5q0 25 -13 44
t-39 19q-30 0 -49 -25.5t-29.5 -61t-14.5 -72.5t-4 -60zM282 -30l440 750h59l-440 -750h-59z" />
    <glyph glyph-name="ampersand" unicode="&#x26;" horiz-adv-x="889" 
d="M68 243q0 48 20.5 100.5t56 97t81.5 73.5t97 29q24 0 45 -8t33 -30q15 16 33.5 33.5t34.5 36.5t27 38.5t11 39.5q0 10 -3.5 20.5t-3.5 25.5t14 29t34 14q24 0 38 -12t14 -37q0 -34 -47.5 -88.5t-127.5 -124.5q-39 -34 -82.5 -72t-79.5 -75t-59.5 -71t-23.5 -60
q0 -30 18 -51.5t45 -34.5t57.5 -19t55.5 -6q67 0 123.5 20t97.5 58t64 93t23 124q-5 6 -13.5 15t-20 17.5t-25.5 14.5t-29 6q-23 0 -42 -17.5t-19 -40.5q0 -18 10.5 -23.5t22.5 -9.5t22.5 -11.5t10.5 -27.5q0 -23 -18.5 -34t-38.5 -11q-28 0 -46.5 20.5t-18.5 47.5
q0 31 17 62.5t43.5 56.5t58.5 40.5t61 15.5q35 0 63.5 -20t52.5 -43.5t43.5 -43.5t37.5 -20q10 0 21.5 7.5t11.5 21.5q0 8 -5.5 14.5t-11.5 13t-11.5 14t-5.5 18.5q0 17 8.5 28.5t25.5 11.5q26 0 38 -18.5t12 -42.5t-14.5 -48t-35.5 -44t-45 -32t-44 -12q-29 0 -47.5 15
t-38.5 32q-6 -78 -30.5 -146t-68 -119t-106.5 -80t-146 -29q-74 0 -126 22.5t-85 59t-48.5 82.5t-15.5 94zM138 306q0 -17 2 -34t6 -33q35 54 81.5 99t92.5 89q0 31 -13.5 42.5t-38.5 11.5q-31 0 -55.5 -17t-41 -43.5t-25 -57t-8.5 -57.5z" />
    <glyph glyph-name="quotesingle" unicode="'" horiz-adv-x="278" 
d="M241 625l-21 -182q-2 -14 -7.5 -20.5t-21.5 -6.5q-17 0 -23 6.5t-8 20.5l-21 182q-2 12 -2 20q0 19 8.5 36t42.5 17q38 0 46.5 -17t8.5 -36q0 -8 -2 -20z" />
    <glyph glyph-name="parenleft" unicode="(" horiz-adv-x="333" 
d="M333 719l37 -33q-52 -52 -94 -114t-71 -130.5t-44.5 -142t-15.5 -147.5q0 -84 18 -164t50 -157l-47 -18q-46 83 -67.5 176t-21.5 187q0 78 19.5 152.5t54 143.5t81 131.5t101.5 115.5z" />
    <glyph glyph-name="parenright" unicode=")" horiz-adv-x="333" 
d="M0 -187l-37 33q53 52 94.5 114t70.5 130.5t44.5 142t15.5 147.5q0 84 -18 164t-50 157l47 18q47 -83 68 -176t21 -187q0 -78 -19.5 -152.5t-54 -143.5t-81 -131.5t-101.5 -115.5z" />
    <glyph glyph-name="asterisk" unicode="*" horiz-adv-x="463" 
d="M264 552l-9 -14q-17 5 -39.5 9t-42.5 11t-33.5 18t-13.5 29q0 16 11 29.5t33 13.5q11 0 24 -12t25.5 -28.5t24.5 -32t20 -23.5zM255 512l9 -13q-10 -10 -20.5 -27t-22 -33t-24.5 -27.5t-28 -11.5q-21 0 -32 15.5t-11 29.5q0 18 15.5 29t36.5 17.5t42.5 11t34.5 9.5z
M302 550l-18 5v71q0 43 10.5 57.5t34.5 14.5q15 0 27 -9.5t12 -27.5q0 -12 -8 -26.5t-18.5 -29.5t-22 -29.5t-17.5 -25.5zM316 518v18q8 2 22.5 7t30.5 10t31 9.5t23 4.5q22 0 31.5 -13t9.5 -27t-9.5 -27t-31.5 -13q-8 0 -23 4.5t-31 9.5t-30.5 10t-22.5 7zM286 495l16 4
l38 -53q8 -10 17 -26.5t9 -30.5q0 -19 -13 -28.5t-31 -9.5q-28 0 -34 17.5t-6 30.5q0 35 2 56t2 40z" />
    <glyph glyph-name="plus" unicode="+" 
d="M233 297v207h90v-207h207v-90h-207v-207h-90v207h-207v90h207z" />
    <glyph glyph-name="comma" unicode="," horiz-adv-x="278" 
d="M-9 -157l-9 30q18 2 43 9t47 19t38 28.5t16 37.5t-13 27.5t-29 11.5t-29 17t-13 44q0 29 19 47.5t48 18.5q49 0 71 -29.5t22 -73.5q0 -48 -21.5 -81.5t-53 -56t-68.5 -34t-68 -15.5z" />
    <glyph glyph-name="glyph14" unicode="-" horiz-adv-x="370" 
d="M43 198q7 19 13.5 39.5t11.5 40.5l64 -2t63 -1q36 0 72 1l72 2q-5 -20 -10.5 -40t-9.5 -40q-36 1 -71.5 2t-71.5 1q-33 0 -66.5 -1t-66.5 -2z" />
    <glyph glyph-name="period" unicode="." horiz-adv-x="278" 
d="M116 133q29 0 51.5 -22.5t22.5 -51.5t-22.5 -51.5t-51.5 -22.5t-51.5 22.5t-22.5 51.5t22.5 51.5t51.5 22.5z" />
    <glyph glyph-name="slash" unicode="/" horiz-adv-x="333" 
d="M-25 -15l338 728h95l-338 -728h-95z" />
    <glyph glyph-name="zero" unicode="0" 
d="M52 230q0 104 23 191t63.5 150t95 98.5t117.5 35.5q86 0 140.5 -62.5t54.5 -202.5q0 -76 -18 -156.5t-55.5 -147t-94 -109t-132.5 -42.5q-50 0 -86.5 19t-60.5 52.5t-35.5 78t-11.5 95.5zM253 23q23 0 49 13.5t46 48.5q16 29 32.5 77.5t30 107t21.5 121.5t8 120
q0 91 -25 123.5t-65 32.5q-34 0 -62 -27.5t-49 -72t-36.5 -99.5t-25.5 -110t-14.5 -104.5t-4.5 -81.5q0 -83 27 -116t68 -33z" />
    <glyph glyph-name="one" unicode="1" 
d="M87 0l4 30h42q26 0 40.5 3.5t23 13t12 25.5t8.5 40l76 403q1 10 5 27t4 23q0 10 -8 10q-3 0 -11 -3.5t-17 -8l-18 -9t-14 -7.5l-92 -49l-14 32l192 108q10 6 24 14.5t29 18t29.5 19t24.5 15.5l15 -5q-4 -16 -11.5 -52t-15.5 -83l-68 -378q-6 -34 -11 -69t-5 -48
q0 -22 16.5 -31t69.5 -9h31l-5 -30q-45 0 -90 2t-90 2q-44 0 -88 -1.5t-88 -2.5z" />
    <glyph glyph-name="two" unicode="2" 
d="M9 0l10 42q55 48 117.5 107t116 121.5t88.5 125t35 117.5q0 47 -31 82.5t-84 35.5q-49 0 -83 -23.5t-65 -51.5l-20 28q47 47 105 84t127 37q73 0 121 -41.5t48 -116.5q0 -60 -32.5 -116.5t-79.5 -107.5t-99.5 -94.5t-91.5 -78.5l-43 -38h306l37 69l31 -7l-49 -174
q-53 1 -107 2.5t-122 1.5q-71 0 -128.5 -1.5t-106.5 -2.5z" />
    <glyph glyph-name="three" unicode="3" 
d="M185 344l13 41q34 0 67.5 10t60.5 30t43.5 50t16.5 70q0 44 -25 71t-77 27q-24 0 -45 -6t-37 -14.5t-28 -17t-18 -13.5l-17 29q15 12 36 26.5t47 27.5t58 21.5t69 8.5q24 0 51 -6t50 -21t38.5 -40t15.5 -63q0 -40 -14.5 -70t-39 -53.5t-58 -42t-71.5 -33.5v-2
q71 -5 116 -42.5t45 -113.5q0 -51 -24.5 -94t-64.5 -73.5t-89.5 -48t-100.5 -17.5q-50 0 -93.5 10.5t-73.5 24.5l-21 78l49 20q20 -40 54 -67.5t81 -27.5q35 0 63 14.5t48 40t31 60t11 74.5q0 69 -30 102t-101 33q-18 0 -36 -3z" />
    <glyph glyph-name="four" unicode="4" 
d="M331 290l52 278h-2l-261 -278h211zM277 0l37 200h-292l6 53l432 452h54l-76 -415h109l-17 -90h-108l-37 -200h-108z" />
    <glyph glyph-name="five" unicode="5" 
d="M160 412l111 278q37 -2 74 -3t74 -1q35 0 70 1t70 3l-37 -106h-249l-35 -89q37 -19 75.5 -47t70 -63t52 -76t20.5 -86q0 -52 -20 -95.5t-54.5 -75t-80 -49.5t-96.5 -18q-43 0 -85.5 9.5t-80.5 30.5l-20 74q11 7 22 12t24 9q2 -8 11 -24t24.5 -32.5t38.5 -28.5t52 -12
q71 0 109 49t38 116q0 39 -16.5 73t-42.5 62t-57.5 50.5t-61.5 38.5z" />
    <glyph glyph-name="six" unicode="6" 
d="M548 705l8 -33q-87 -23 -158 -69t-122 -110t-79 -143t-28 -169q0 -32 4 -61t16 -50.5t32.5 -34t53.5 -12.5q21 0 41.5 9.5t36 33t25.5 63t10 98.5q0 12 -2.5 30t-11 35.5t-25 30t-44.5 12.5q-38 0 -76 -15l10 39q25 12 50.5 19t56.5 7q76 0 121 -45.5t45 -113.5
q0 -58 -20 -103t-54 -76t-79 -46.5t-95 -15.5q-48 0 -86.5 17t-65.5 46.5t-41 68.5t-14 83q0 105 41 190t109.5 148.5t157 105.5t183.5 61z" />
    <glyph glyph-name="seven" unicode="7" 
d="M104 0l380 584h-313l-38 -72h-29q16 42 26.5 87t22.5 91q53 -2 106.5 -3t106.5 -1q59 0 118.5 1t118.5 3v-15l-449 -698z" />
    <glyph glyph-name="eight" unicode="8" 
d="M57 135q0 44 15.5 75t41 55t58 43t65.5 39q-19 19 -37 38t-32 41t-23 46.5t-9 53.5q0 46 17.5 80t46.5 56t67 32.5t80 10.5q36 0 70.5 -7.5t61.5 -24t43.5 -44t16.5 -66.5q0 -37 -17.5 -66.5t-43.5 -53t-57 -40.5t-57 -28q20 -23 41.5 -44.5t39 -44.5t28.5 -49t11 -59
q0 -47 -19 -83t-50.5 -60.5t-72.5 -37t-86 -12.5q-35 0 -70.5 8.5t-64 26.5t-46.5 46t-18 69zM141 136q0 -53 31.5 -83t83.5 -30q45 0 77.5 27.5t32.5 89.5q0 23 -12 56.5t-38 62.5l-54 61q-55 -34 -88 -75t-33 -109zM242 560q0 -25 9.5 -47.5t23.5 -43t31.5 -37.5t34.5 -32
q49 27 81.5 63.5t32.5 95.5q0 47 -24.5 77.5t-77.5 30.5q-51 0 -81 -27.5t-30 -79.5z" />
    <glyph glyph-name="nine" unicode="9" 
d="M48 -15l-8 33q87 23 158 69t122 110t79 143t28 169q0 32 -4 61t-16 50.5t-32.5 34t-53.5 12.5q-21 0 -41.5 -9.5t-36 -33t-25.5 -63t-10 -98.5q0 -12 2.5 -30t11 -35.5t25 -30t44.5 -12.5q38 0 76 15l-10 -39q-25 -12 -50.5 -19t-56.5 -7q-76 0 -121 45.5t-45 113.5
q0 58 20 103t54 76t79 46.5t95 15.5q48 0 86.5 -17t65.5 -46.5t41 -68.5t14 -83q0 -105 -41 -190t-109.5 -148.5t-157 -105.5t-183.5 -61z" />
    <glyph glyph-name="colon" unicode=":" horiz-adv-x="278" 
d="M116 133q29 0 51.5 -22.5t22.5 -51.5t-22.5 -51.5t-51.5 -22.5t-51.5 22.5t-22.5 51.5t22.5 51.5t51.5 22.5zM201 434q29 0 51.5 -22.5t22.5 -51.5t-22.5 -51.5t-51.5 -22.5t-51.5 22.5t-22.5 51.5t22.5 51.5t51.5 22.5z" />
    <glyph glyph-name="semicolon" unicode=";" horiz-adv-x="278" 
d="M-9 -157l-9 30q18 2 43 9t47 19t38 28.5t16 37.5t-13 27.5t-29 11.5t-29 17t-13 44q0 29 19 47.5t48 18.5q49 0 71 -29.5t22 -73.5q0 -48 -21.5 -81.5t-53 -56t-68.5 -34t-68 -15.5zM201 434q29 0 51.5 -22.5t22.5 -51.5t-22.5 -51.5t-51.5 -22.5t-51.5 22.5t-22.5 51.5
t22.5 51.5t51.5 22.5z" />
    <glyph glyph-name="less" unicode="&#x3c;" 
d="M532 86v-89l-508 221v68l508 221v-89l-383 -166z" />
    <glyph glyph-name="equal" unicode="=" 
d="M26 309v90h504v-90h-504zM26 105v90h504v-90h-504z" />
    <glyph glyph-name="greater" unicode="&#x3e;" 
d="M24 418v89l508 -221v-68l-508 -221v89l383 166z" />
    <glyph glyph-name="question" unicode="?" horiz-adv-x="444" 
d="M104 358q0 39 20.5 62t51 38t66 25t66 22t51 28.5t20.5 45.5q0 31 -19 47.5t-50 16.5q-16 0 -29 -5t-25.5 -11t-24.5 -11t-27 -5t-25.5 12.5t-10.5 26.5q0 17 8 27.5t20.5 16.5t27 8.5t28.5 2.5q80 0 131.5 -47.5t51.5 -128.5q0 -41 -20.5 -66.5t-51 -41.5t-66 -26.5
t-66 -21t-51 -25t-20.5 -39.5q0 -22 17 -37t40 -15q12 0 20 2.5t14.5 5.5t13 5.5t16.5 2.5q13 0 22.5 -9.5t9.5 -23.5q0 -24 -14 -34.5t-37 -10.5q-32 0 -60.5 14t-50.5 37t-34.5 52.5t-12.5 59.5zM176 133q29 0 51.5 -22.5t22.5 -51.5t-22.5 -51.5t-51.5 -22.5t-51.5 22.5
t-22.5 51.5t22.5 51.5t51.5 22.5z" />
    <glyph glyph-name="at" unicode="@" horiz-adv-x="800" 
d="M354 295q0 -89 55 -89q18 0 39 17t38 45.5t28.5 67t11.5 82.5q0 68 -48 68q-22 0 -44.5 -14t-40 -39t-28.5 -60t-11 -78zM637 525l-61 -250q-2 -11 -4 -21t-2 -21q0 -13 8 -25t27 -12q25 0 46.5 19.5t37 50t24.5 67t9 69.5q0 45 -19 90t-55.5 82t-89 60t-119.5 23
q-51 0 -101 -19.5t-89 -60t-63 -104t-24 -150.5q0 -57 22.5 -108t61 -89.5t91 -61.5t112.5 -23q70 0 116.5 14.5t91.5 38.5l12 -46q-49 -26 -103 -44.5t-116 -18.5q-103 0 -177.5 34.5t-122.5 86.5t-71 113.5t-23 114.5q0 86 30.5 155.5t83 119.5t122 77t147.5 27
q73 0 136 -23.5t109.5 -64.5t73 -98t26.5 -124q0 -40 -13 -84.5t-37.5 -81.5t-61 -61t-83.5 -24q-29 0 -47.5 8t-29 20t-14.5 25t-4 22h-2q-3 -6 -13.5 -18.5t-26.5 -25t-36.5 -22t-43.5 -9.5q-13 0 -30.5 5t-33.5 19t-27 39.5t-11 66.5q0 42 12.5 88t38.5 84t65 63t92 25
q37 0 52.5 -18.5t19.5 -37.5h2l9 39h76z" />
    <glyph glyph-name="A" unicode="A" horiz-adv-x="685" 
d="M-57 0l5 30h12q38 0 58.5 16t43.5 57l282 495q14 23 31.5 53.5t33.5 59.5l54 15l14 -8q7 -43 14 -85t15 -85l73 -418q5 -26 9 -44.5t12.5 -31t22.5 -18.5t38 -6h23l-5 -30q-37 1 -75 2.5t-75 1.5q-38 0 -76 -1.5t-76 -2.5l5 30h25q33 0 43 7.5t10 24.5q0 8 -2 20.5
t-4 25.5l-20 134h-235l-64 -124q-7 -13 -14 -29.5t-7 -31.5q0 -16 19.5 -21.5t45.5 -5.5h21l-4 -30q-32 1 -64 2.5t-63 1.5t-63 -2t-63 -2zM426 292l-47 274h-2l-150 -274h199z" />
    <glyph glyph-name="B" unicode="B" horiz-adv-x="630" 
d="M-8 0l5 30q23 0 39 1.5t27 8t18 19t11 35.5l81 431q10 53 13 74t3 32q0 25 -21.5 30.5t-65.5 6.5l4 30q28 -1 59 -2.5t63 -1.5q29 0 64 2t95 2q34 0 73 -6.5t72 -24t55 -48t22 -79.5q0 -36 -17 -65t-44 -50t-60 -34.5t-64 -20.5v-2q33 -5 63.5 -15.5t53 -28.5t36 -44.5
t13.5 -64.5q0 -50 -22.5 -90t-61 -67.5t-88.5 -42.5t-105 -15q-37 0 -74.5 2t-80.5 2q-44 0 -90.5 -1.5t-75.5 -2.5zM262 344l-39 -205q-6 -29 -6 -59q0 -23 13 -32.5t39 -9.5q98 0 140.5 54t42.5 134q0 69 -36 95t-95 26q-15 0 -29.5 -1t-29.5 -2zM320 658l-51 -274l55 2
q73 3 110 48.5t37 118.5q0 42 -23 74.5t-87 32.5q-10 0 -20.5 -0.5t-20.5 -1.5z" />
    <glyph glyph-name="C" unicode="C" horiz-adv-x="741" 
d="M663 203l28 -8q-13 -42 -24 -84.5t-19 -85.5q-6 2 -19 2q-11 0 -31 -6.5t-47.5 -14.5t-62 -14.5t-74.5 -6.5q-82 0 -146.5 24t-108.5 67t-67.5 102.5t-23.5 129.5q0 94 32.5 169t88.5 127.5t130.5 80.5t158.5 28q52 0 84 -7t54 -15.5t37.5 -15.5t34.5 -7q8 0 14 6.5
t7 14.5l24 -4q-11 -47 -19.5 -93.5t-13.5 -95.5l-30 4q0 76 -39.5 125.5t-121.5 49.5q-77 0 -133.5 -32.5t-94.5 -85.5t-56.5 -121.5t-18.5 -139.5q0 -56 15 -105.5t42.5 -86.5t67.5 -59t91 -22q88 0 147.5 51.5t93.5 128.5z" />
    <glyph glyph-name="D" unicode="D" horiz-adv-x="778" 
d="M-8 0l5 30q23 0 39 1.5t27 8t18 19t11 35.5l89 474q2 11 4 24.5t2 26.5q0 29 -20 39t-54 10h-17l4 30q34 -1 69.5 -2.5t77.5 -1.5q45 0 94.5 2t91.5 2q75 0 136 -24t104 -65t66.5 -96.5t23.5 -118.5q0 -103 -36 -177.5t-94.5 -122.5t-132 -71t-149.5 -23q-41 0 -73 0.5
t-58 1.5t-47.5 1.5t-42.5 0.5q-34 0 -69 -1.5t-69 -2.5zM321 658l-98 -534q-1 -10 -3 -22t-2 -23q0 -14 9 -22.5t23.5 -12.5t32 -5t34.5 -1q70 0 126.5 28t97 76.5t62.5 115t22 143.5q0 117 -61.5 188t-182.5 71q-15 0 -30 -0.5t-30 -1.5z" />
    <glyph glyph-name="E" unicode="E" horiz-adv-x="648" 
d="M-8 0l5 30q23 0 39 1.5t27 8t18 19t11 35.5l81 431q10 53 13 74t3 32q0 25 -21.5 30.5t-65.5 6.5l4 30q38 0 63 -1t43 -1.5t32 -1t30 -0.5q22 0 51 0.5t71 1t100 1.5t138 1q-6 -36 -10.5 -73.5t-8.5 -75.5h-31q1 5 1 12v13q0 24 -6 40.5t-22.5 26.5t-45.5 14.5t-76 4.5
q-17 0 -50.5 -2t-62.5 -4l-48 -262h120q52 0 74 20t33 73h29q-3 -17 -9 -47.5t-12 -65t-12 -68t-10 -56.5h-27q1 8 2 19.5t1 25.5q0 18 -2.5 29t-12.5 17t-30.5 7.5t-56.5 1.5q-35 0 -57.5 -0.5t-37.5 -1.5l-39 -216q-3 -16 -5 -27.5t-2 -23.5q0 -16 13 -25.5t68 -9.5h76
q57 0 90.5 5.5t54.5 19.5t35.5 39.5t33.5 65.5h31q-13 -44 -24 -87t-22 -87q-80 1 -160 2.5t-160 1.5q-66 0 -132 -1.5t-132 -2.5z" />
    <glyph glyph-name="F" unicode="F" horiz-adv-x="593" 
d="M-8 0l5 30q23 0 39 1.5t27 8t18 19t11 35.5l81 431q10 53 13 74t3 32q0 25 -21.5 30.5t-65.5 6.5l4 30q50 -1 101 -2.5t104 -1.5q77 0 153 1.5t152 2.5q-4 -37 -10 -75t-9 -77h-30q0 39 -6.5 61.5t-20.5 34t-37.5 15t-56.5 3.5q-31 0 -62 -2.5t-62 -3.5l-53 -282l149 4
q34 1 53.5 20t30.5 71h27q-6 -30 -12.5 -63.5t-12 -65.5t-9.5 -60t-7 -48h-27l2 20t1 21q0 30 -11.5 44.5t-65.5 14.5q-50 0 -80.5 -0.5t-45.5 -1.5l-36 -200q-6 -34 -6 -62q0 -16 16.5 -26t61.5 -10h18l-4 -30q-41 1 -82 2.5t-81 1.5q-39 0 -78 -1.5t-78 -2.5z" />
    <glyph glyph-name="G" unicode="G" horiz-adv-x="815" 
d="M690 167l-20 -121q-15 -7 -41 -17.5t-59 -20t-70.5 -16.5t-75.5 -7q-75 0 -140 20t-113 60.5t-75.5 102t-27.5 143.5q0 95 35.5 169.5t96 126.5t140.5 79t170 27q50 0 85 -6.5t52 -11.5q36 -10 53 -18.5t30 -8.5q22 0 25 21l24 -4q-10 -47 -18.5 -93.5t-14.5 -95.5l-30 4
q0 87 -53 131t-134 44q-79 0 -139 -33t-101 -86t-62 -119t-21 -133q0 -58 16 -109.5t44.5 -89.5t68.5 -60t89 -22q12 0 31.5 1.5t40 7.5t36.5 18.5t20 33.5l18 96q2 8 4 23t2 20q0 25 -18 32t-60 7h-20l4 30q40 -1 80 -2.5t81 -1.5q37 0 73 1.5t73 2.5l-4 -30h-19
q-22 0 -35 -5t-20.5 -16.5t-12 -29.5t-8.5 -44z" />
    <glyph glyph-name="H" unicode="H" horiz-adv-x="796" 
d="M-8 0l5 30q23 0 39 1.5t27 8t18 19t11 35.5l81 431q10 53 13 74t3 32q0 25 -21.5 30.5t-65.5 6.5l4 30q40 -1 80 -2.5t80 -1.5q34 0 68 1.5t69 2.5l-5 -30q-38 -1 -57 -8t-26 -43l-42 -225h318l23 133q10 53 13 74t3 32q0 25 -21 30.5t-61 6.5l4 30q36 -1 75.5 -2.5
t79.5 -1.5q35 0 70.5 1.5t68.5 2.5l-5 -30q-39 -1 -58.5 -8t-26.5 -43l-84 -445q-10 -52 -13 -73t-3 -32q0 -25 18 -30.5t62 -6.5l-4 -30q-33 1 -72 2.5t-79 1.5q-35 0 -71 -1.5t-72 -2.5l5 30q21 0 36 1.5t25.5 8t17.5 19t11 35.5l47 248h-317l-32 -170q-10 -52 -13 -73
t-3 -32q0 -25 18.5 -30.5t61.5 -6.5l-4 -30q-33 1 -72 2.5t-79 1.5q-35 0 -71.5 -1.5t-76.5 -2.5z" />
    <glyph glyph-name="I" unicode="I" horiz-adv-x="352" 
d="M102 668l4 30q40 -1 80 -2.5t80 -1.5q35 0 71.5 1.5t74.5 2.5l-5 -30q-44 -1 -64.5 -8t-27.5 -43l-84 -445q-10 -52 -13 -73t-3 -32q0 -25 18.5 -30.5t61.5 -6.5l-4 -30q-33 1 -72 2.5t-79 1.5q-35 0 -71.5 -1.5t-76.5 -2.5l5 30q23 0 39 1.5t27 8t18 19t11 35.5l81 431
q10 53 13 74t3 32q0 25 -21.5 30.5t-65.5 6.5z" />
    <glyph glyph-name="J" unicode="J" horiz-adv-x="352" 
d="M86 668l4 30q41 -1 83.5 -2.5t92.5 -1.5q35 0 71.5 1.5t74.5 2.5l-5 -30q-44 -1 -64.5 -8t-27.5 -43l-84 -449q-13 -66 -32 -136.5t-51 -128t-79.5 -94.5t-116.5 -37q-46 0 -72.5 24t-26.5 56q0 26 15.5 43t44.5 17q28 0 40 -12t12 -34q0 -9 -1 -15.5t-1 -11.5
q0 -7 5 -15t19 -8q10 0 19.5 4.5t19.5 20.5t20 48.5t21 87.5l104 546q7 36 11 61t4 47q0 23 -21 30t-79 7z" />
    <glyph glyph-name="K" unicode="K" horiz-adv-x="685" 
d="M-8 0l5 30q23 0 39 1.5t27 8t18 19t11 35.5l81 431q10 53 13 74t3 32q0 25 -21.5 30.5t-65.5 6.5l4 30q40 -1 80 -2.5t80 -1.5q38 0 71.5 1.5t65.5 2.5l-5 -30q-38 -1 -57 -8.5t-27 -47.5l-47 -250q7 0 15 1t20 7t29 19.5t42 37.5l113 113q30 30 56.5 59.5t26.5 43.5
t-15.5 19.5t-38.5 5.5h-15l5 30q32 -1 65 -2.5t65 -1.5q29 0 58 1.5t57 2.5l-5 -30q-20 0 -35 -1.5t-28 -6.5t-27 -16t-32 -29l-241 -238l162 -243q44 -64 72 -84t59 -20h13l-4 -30q-22 1 -45 2.5t-46 1.5q-19 0 -38 -1.5t-39 -2.5q-16 0 -27 12.5t-27 35.5l-178 261
q-7 10 -11.5 12.5t-12.5 2.5l-29 -152q-10 -52 -13 -73t-3 -32q0 -25 18.5 -30.5t61.5 -6.5l-4 -30q-33 1 -72 2.5t-79 1.5q-35 0 -71.5 -1.5t-76.5 -2.5z" />
    <glyph glyph-name="L" unicode="L" horiz-adv-x="630" 
d="M-8 0l5 30q23 0 39 1.5t27 8t18 19t11 35.5l81 431q10 53 13 74t3 32q0 25 -21.5 30.5t-65.5 6.5l4 30q40 -1 80 -2.5t80 -1.5q35 0 71.5 1.5t74.5 2.5l-5 -30q-44 -1 -64.5 -7.5t-27.5 -43.5l-106 -573h146q26 0 55.5 3t58 13.5t52.5 31t39 55.5l14 34l31 -3
q-5 -16 -13 -39.5t-16 -48.5t-15 -49t-11 -41q-58 1 -117 2.5t-117 1.5q-82 0 -163 -1.5t-161 -2.5z" />
    <glyph glyph-name="M" unicode="M" horiz-adv-x="944" 
d="M-31 0l4 30h9q27 0 43 4.5t26.5 18.5t18.5 41t20 72l110 414q-9 25 -17 42t-19 27t-27 14.5t-40 4.5l5 30q26 -1 51 -2.5t51 -1.5q24 0 47.5 1.5t47.5 2.5l163 -522l289 522q23 -1 47 -2.5t47 -1.5q29 0 59 1.5t59 2.5l-4 -30q-27 0 -44.5 -2t-28 -11t-15.5 -27t-7 -50
l-23 -363q-2 -32 -3.5 -64t-1.5 -64q0 -31 15 -44t53 -13h20l-4 -30q-40 1 -79 2.5t-79 1.5q-39 0 -78 -1.5t-78 -2.5l5 30h17q49 0 64.5 17.5t19.5 65.5l34 473h-2l-230 -412q-10 -19 -23 -42.5t-25.5 -47t-23.5 -46t-18 -38.5h-40q-7 31 -19.5 72.5t-24.5 78.5l-111 354
h-2l-67 -264q-16 -65 -25.5 -106.5t-9.5 -59.5q0 -25 15.5 -35t48.5 -10h19l-3 -30q-31 1 -61 2.5t-61 1.5q-29 0 -57 -1.5t-57 -2.5z" />
    <glyph glyph-name="N" unicode="N" horiz-adv-x="778" 
d="M97 128l82 445l-20 33q-21 34 -38 48t-54 14l5 30q26 -1 51 -2.5t51 -1.5q20 0 40.5 1.5t40.5 2.5q10 -19 21.5 -37.5t24.5 -37.5l307 -469l61 374q7 45 8.5 61.5t1.5 26.5q0 34 -25 43t-61 9l4 30q31 -1 61.5 -2.5t61.5 -1.5q30 0 60.5 2t60.5 2l-4 -30
q-29 0 -46.5 -3.5t-29 -15t-18.5 -33.5t-14 -58l-83 -460l22 -34q12 -19 25.5 -26.5t25.5 -7.5l-5 -30q-20 1 -40 2.5t-40 1.5t-40 -1.5t-40 -2.5l-32 56t-33 54l-271 412l-65 -385q-2 -13 -4 -30t-2 -35q0 -19 14 -30.5t51 -11.5h21l-5 -30q-28 1 -57 2.5t-58 1.5
q-31 0 -63 -1.5t-63 -2.5l5 30h8q20 0 35.5 3t27.5 13t20 29.5t14 52.5z" />
    <glyph glyph-name="O" unicode="O" horiz-adv-x="852" 
d="M686 414q0 46 -9 93t-32.5 84t-64 60.5t-102.5 23.5q-73 0 -124.5 -39t-84.5 -96.5t-48 -125t-15 -124.5q0 -46 9 -93.5t32.5 -86t64 -63t102.5 -24.5q64 0 115 32.5t85.5 86.5t53 125t18.5 147zM824 390q0 -87 -32.5 -161t-88.5 -128.5t-130 -85t-157 -30.5t-147.5 24
t-109 67t-68 102.5t-23.5 129.5q0 94 32.5 169t88.5 127.5t130.5 80.5t158.5 28q82 0 146.5 -25.5t108.5 -69.5t67.5 -102.5t23.5 -125.5z" />
    <glyph glyph-name="P" unicode="P" horiz-adv-x="593" 
d="M-8 0l5 30q23 0 39 1.5t27 8t18 19t11 35.5l85 457q4 19 6.5 38t2.5 30q0 26 -19 37.5t-72 11.5l5 30q32 -1 64 -2.5t63 -1.5q37 0 88 2t97 2q35 0 71 -7t65 -25.5t47.5 -50t18.5 -80.5q0 -53 -22.5 -92t-57 -65.5t-76.5 -39.5t-80 -13q-54 0 -79 5l7 37q9 -1 19.5 -2.5
t26.5 -1.5q32 0 55 16t38.5 41t23 55.5t7.5 60.5q0 59 -25.5 91.5t-77.5 32.5q-14 0 -25 -1t-26 -3l-97 -534q-2 -10 -4 -22.5t-2 -30.5q0 -20 17 -29.5t60 -9.5h19l-4 -30q-43 1 -87 2.5t-87 1.5q-36 0 -72.5 -1.5t-72.5 -2.5z" />
    <glyph glyph-name="Q" unicode="Q" horiz-adv-x="852" 
d="M686 414q0 46 -9 93t-32.5 84t-64 60.5t-102.5 23.5q-73 0 -124.5 -39t-84.5 -96.5t-48 -125t-15 -124.5q0 -46 9 -93.5t32.5 -86t64 -63t102.5 -24.5q64 0 115 32.5t85.5 86.5t53 125t18.5 147zM30 -104l5 24q38 6 81.5 14t85.5 18t79.5 19.5t64.5 18.5v2h-4
q-65 9 -116 35.5t-86 68t-53.5 95.5t-18.5 117q0 94 32.5 169t88.5 127.5t130.5 80.5t158.5 28q82 0 146.5 -25.5t108.5 -69.5t67.5 -102.5t23.5 -125.5q0 -103 -38.5 -181t-111 -133.5t-177 -90t-235.5 -50.5v-2q20 -5 55.5 -14.5t77.5 -21t86.5 -24t83.5 -22.5t68 -16.5
t40 -6.5q16 0 31.5 7.5t15.5 23.5q0 15 -6 20t-6 23q0 14 9 23.5t26 9.5t26 -11t9 -25q0 -31 -20 -55t-51.5 -40t-69 -24t-72.5 -8q-37 0 -81.5 8t-89.5 20t-88.5 26t-80.5 24q-16 4 -42.5 11t-55 14t-55 12.5t-42.5 8.5z" />
    <glyph glyph-name="R" unicode="R" horiz-adv-x="685" 
d="M317 660l-49 -286q10 -2 21.5 -2h24.5q72 0 112.5 50t40.5 130q0 46 -24 77t-81 31h-45zM-8 0l5 30q23 0 39 1.5t27 8t18 19t11 35.5l85 457q4 19 6.5 38t2.5 30q0 26 -19 37.5t-72 11.5l5 30q34 -1 69 -2.5t69 -1.5q40 0 77 2t91 2q34 0 69.5 -6.5t64 -23.5t47 -46
t18.5 -74q0 -44 -16 -76.5t-42.5 -56.5t-61.5 -39.5t-72 -24.5q28 -29 47.5 -58.5t44.5 -73.5l55 -94q29 -49 51.5 -72t58.5 -23h16l-4 -30q-26 1 -53 2.5t-53 1.5q-20 0 -40.5 -1.5t-40.5 -2.5q-59 81 -105 169.5t-102 171.5l-26 2l-42 -234q-2 -10 -3.5 -19.5t-1.5 -19.5
q0 -20 12.5 -30t47.5 -10h33l-4 -30q-40 1 -79 2.5t-79 1.5q-38 0 -77 -1.5t-77 -2.5z" />
    <glyph glyph-name="S" unicode="S" horiz-adv-x="538" 
d="M494 518l-32 -4q1 8 1.5 19t0.5 27q0 20 -6 40t-20 37t-36.5 27.5t-56.5 10.5q-54 0 -84 -28t-30 -83q0 -26 18 -52t45 -54t58 -58t58 -63.5t45 -70.5t18 -79q0 -49 -18.5 -87t-50 -63.5t-75 -38.5t-92.5 -13q-22 0 -44 4.5t-41.5 10.5t-35.5 12.5t-25 10.5l-39 -23
l-18 2q8 47 14.5 104.5t10.5 97.5l30 2q0 -35 9 -68t26.5 -58.5t43.5 -41t61 -15.5q24 0 47.5 5.5t42.5 19t30.5 36.5t11.5 57q0 32 -17 61t-42.5 57t-55.5 56.5t-55.5 59.5t-42.5 66t-17 77q0 48 18 84.5t48 61t68.5 37t78.5 12.5q41 0 68 -7t41 -12q19 -7 29 -7
q13 0 17 12l24 -2q-9 -44 -16.5 -89t-12.5 -90z" />
    <glyph glyph-name="T" unicode="T" horiz-adv-x="667" 
d="M134 0l5 30h24q25 0 39 4.5t22.5 15t12.5 28t9 44.5l97 532h-88q-30 0 -54.5 -4.5t-45 -18.5t-35.5 -39t-25 -67h-32q11 48 21.5 96.5t19.5 97.5h24q1 -10 10.5 -15.5t35.5 -5.5h446q24 0 46.5 2.5t31.5 18.5h27q-7 -48 -13.5 -96.5t-9.5 -97.5h-32q1 12 1.5 24t0.5 26
q0 54 -35 66.5t-98 12.5h-68l-100 -543q-5 -25 -5 -46q0 -22 17.5 -28.5t37.5 -6.5h36l-4 -30q-40 1 -79.5 2.5t-79.5 1.5t-80 -1t-80 -3z" />
    <glyph glyph-name="U" unicode="U" horiz-adv-x="722" 
d="M800 698l-4 -30q-56 0 -74.5 -18t-27.5 -64l-76 -404q-12 -62 -40 -100t-65.5 -60t-80.5 -29.5t-84 -7.5q-49 0 -94 10t-79.5 32.5t-55 58.5t-20.5 89q0 32 4.5 63.5t7.5 47.5l46 239q11 53 13.5 74t2.5 32q0 25 -21.5 30.5t-65.5 6.5l4 30q40 -1 80 -2.5t80 -1.5
q35 0 71.5 1.5t74.5 2.5l-5 -30q-44 -1 -64.5 -8t-27.5 -43l-70 -390q-4 -21 -5 -35.5t-1 -29.5q0 -68 39.5 -97.5t96.5 -29.5q56 0 95 12.5t65.5 38t41.5 64.5t23 92l46 302q8 48 8 78q0 20 -17.5 33t-66.5 13l4 30q29 -1 59 -2.5t59 -1.5q31 0 62 1.5t62 2.5z" />
    <glyph glyph-name="V" unicode="V" horiz-adv-x="685" 
d="M280 -15l-143 594q-6 27 -12 44t-15.5 27t-25 14t-41.5 4h-11l5 30q42 -1 84 -2.5t84 -1.5q33 0 66.5 1.5t66.5 2.5l-4 -30h-12q-40 0 -53.5 -8.5t-13.5 -25.5q0 -15 4.5 -35t12.5 -54l93 -383h2l198 373q14 27 22 44.5t11.5 29t4 17.5t0.5 11q0 8 -13 19.5t-60 11.5h-14
l5 30q36 -1 71.5 -2.5t71.5 -1.5q28 0 55 1.5t55 2.5l-4 -30h-15q-23 0 -37 -5t-24 -14.5t-17.5 -23.5t-17.5 -31l-340 -609h-39z" />
    <glyph glyph-name="W" unicode="W" horiz-adv-x="981" 
d="M577 477l69 118q4 8 11 22.5t7 25.5q0 10 -5 17.5t-28 7.5h-70q-26 0 -26 -19q0 -10 3 -21t9 -36l29 -115h-1h2zM284 -15l-145 574q-9 37 -15.5 58.5t-17 33t-27.5 14.5t-47 3l5 30q37 -1 73 -2.5t73 -1.5q33 0 66 1.5t66 2.5l-5 -30q-24 0 -44 -3.5t-20 -25.5
q0 -9 3 -21t7 -31l113 -443l121 188l-66 252q-7 27 -12.5 43.5t-13 25.5t-19.5 12t-32 3l5 30q64 -1 128 -2.5t128 -1.5q50 0 100.5 1.5t100.5 2.5l-5 -30q-21 0 -35 -4.5t-24 -12.5t-18.5 -20.5t-18.5 -29.5l-115 -185l72 -265l214 393q19 35 28 57t9 34q0 21 -20.5 27
t-50.5 6l4 30q29 -1 58 -2.5t58 -1.5t58 1.5t57 2.5l-5 -30q-23 0 -36.5 -2t-24.5 -11t-22 -27t-29 -49l-341 -594h-37l-78 292l-182 -292h-41z" />
    <glyph glyph-name="X" unicode="X" horiz-adv-x="667" 
d="M-41 0l5 30q53 0 83.5 24t63.5 62l193 217l-142 275q-10 19 -18 30.5t-17.5 18t-21 9t-28.5 2.5h-17l5 30q38 -1 77 -2.5t77 -1.5t77 1.5t77 2.5l-4 -30q-35 0 -55.5 -4.5t-20.5 -21.5q0 -8 6.5 -23t13.5 -28l81 -160l135 161q15 18 25 31t10 21q0 24 -73 24l4 30
q32 -1 64 -2.5t64 -1.5q31 0 62 1t62 3l-5 -30q-39 0 -64.5 -12t-54.5 -44l-207 -225l162 -313q9 -16 23.5 -30t55.5 -14h18l-5 -30q-39 1 -78 2.5t-78 1.5q-40 0 -79 -1.5t-79 -2.5l5 30h19q32 0 45.5 5.5t13.5 17.5q0 9 -7 24t-16 33l-90 179l-152 -187q-10 -12 -18 -24
t-8 -22t11.5 -18t46.5 -8h20l-5 -30q-33 1 -66.5 2.5t-66.5 1.5q-32 0 -64.5 -1.5t-64.5 -2.5z" />
    <glyph glyph-name="Y" unicode="Y" horiz-adv-x="630" 
d="M125 0l5 30h19q49 0 61.5 19t20.5 63l32 165l-107 282q-15 38 -26 60t-23 33t-28 13.5t-40 2.5l5 30q41 -1 81.5 -2.5t81.5 -1.5q35 0 69 1.5t69 2.5l-4 -30q-41 0 -58 -6t-17 -24q0 -5 4 -25t22 -68l75 -204l151 240q14 22 19 34.5t5 21.5q0 19 -24 25t-50 6l4 30
q30 -1 60.5 -2.5t60.5 -1.5t60 1.5t60 2.5l-4 -30q-41 0 -64 -15t-50 -56l-208 -316l-26 -143q-7 -37 -8.5 -52.5t-1.5 -26.5q0 -10 9.5 -19.5t50.5 -9.5h30l-5 -30q-40 1 -81 2.5t-82 1.5q-37 0 -74 -1.5t-74 -2.5z" />
    <glyph glyph-name="Z" unicode="Z" horiz-adv-x="685" 
d="M191 50h228q46 0 78 8.5t54.5 26t38 43.5t28.5 60h31q-13 -47 -25 -94t-23 -94q-66 1 -134.5 2.5t-149.5 1.5q-96 0 -166 -2t-133 -2q-4 0 -4 6v3q0 2 2 5.5t10 13.5l484 626h-191q-74 0 -116.5 -26t-64.5 -96h-34q11 38 23.5 81.5t22.5 84.5q68 -1 135 -2.5t135 -1.5
t135 1.5t135 2.5v-12z" />
    <glyph glyph-name="bracketleft" unicode="[" horiz-adv-x="333" 
d="M367 713l-5 -30h-38q-29 0 -46.5 -9.5t-22.5 -40.5l-129 -713q-2 -14 -5 -27t-3 -22q0 -7 4 -13t15 -7q20 -3 40 -3t40 -1l-4 -28q-21 1 -43 1.5t-47 0.5q-24 0 -48.5 -0.5t-48.5 -1.5q50 222 90 446t77 448q20 -1 40.5 -1.5t40.5 -0.5q26 0 48.5 0.5t44.5 1.5z" />
    <glyph glyph-name="backslash" unicode="\" horiz-adv-x="333" 
d="M105 713l258 -728h-93l-258 728h93z" />
    <glyph glyph-name="bracketright" unicode="]" horiz-adv-x="333" 
d="M-34 -181l5 30h38q29 0 46.5 9.5t22.5 40.5l129 713q2 14 5 27t3 22q0 7 -4.5 13t-14.5 7q-20 3 -40 3t-40 1l4 28q21 -1 42.5 -1.5t47.5 -0.5q24 0 48.5 0.5t48.5 1.5q-49 -222 -89 -446t-78 -448q-20 1 -40.5 1.5t-40.5 0.5q-26 0 -48.5 -0.5t-44.5 -1.5z" />
    <glyph glyph-name="asciicircum" unicode="^" 
d="M85 325l178 365h80l178 -365h-89l-129 265l-129 -265h-89z" />
    <glyph glyph-name="underscore" unicode="_" horiz-adv-x="500" 
d="M0 -125v50h500v-50h-500z" />
    <glyph glyph-name="grave" unicode="`" horiz-adv-x="278" 
d="M251 560l-136 96q-11 8 -19 18t-8 24q0 19 13.5 28.5t30.5 9.5q19 0 30.5 -10t18.5 -21l110 -145h-40z" />
    <glyph glyph-name="a" unicode="a" horiz-adv-x="537" 
d="M482 388l-70 -231q-7 -22 -10 -36.5t-3 -19.5q0 -16 17 -16t39.5 20.5t45.5 46.5l21 -21q-15 -16 -37.5 -40.5t-48.5 -48t-53 -40.5t-51 -17q-20 0 -32.5 12t-12.5 33q0 15 5 36t12 43t14.5 41.5t11.5 31.5l-2 2q-15 -27 -42 -61.5t-59.5 -65t-68 -51.5t-69.5 -21
q-41 0 -56 28t-15 57q0 71 36 141.5t87.5 126.5t109 91t101.5 35q21 0 33.5 -8t26.5 -31l20 47q2 6 5.5 8t14.5 2q38 0 46.5 -3.5t8.5 -9.5q0 -5 -8.5 -30t-16.5 -51zM118 146q0 -24 8 -47.5t34 -23.5q33 0 69.5 32.5t67.5 77t51 91.5t20 77q0 23 -12 39t-38 16
q-39 0 -75.5 -29t-64 -70.5t-44 -86t-16.5 -76.5z" />
    <glyph glyph-name="b" unicode="b" 
d="M310 753l-118 -417l2 -2q15 21 36 44t47 42t58 31.5t68 12.5q63 0 92.5 -37.5t29.5 -94.5q0 -66 -31.5 -128.5t-81.5 -111t-112 -78t-122 -29.5q-28 0 -53.5 5.5t-44.5 19t-30 35.5t-11 54q0 33 11 76t18 70l111 433l-63 33l5 18q18 1 41.5 4t48 7.5t47.5 10.5t40 13z
M407 333q0 75 -57 75q-40 0 -78 -31.5t-67.5 -79t-47.5 -102t-18 -99.5q0 -32 13 -52.5t45 -20.5q42 0 80 36.5t67 86.5t46 102.5t17 84.5z" />
    <glyph glyph-name="c" unicode="c" horiz-adv-x="444" 
d="M408 152l21 -27q-23 -23 -52.5 -47.5t-62.5 -45t-68.5 -34t-69.5 -13.5q-76 0 -112 40.5t-36 102.5q0 73 36 134.5t89 106.5t114 70t111 25q27 0 50.5 -12.5t23.5 -44.5q0 -24 -14.5 -39.5t-39.5 -15.5q-23 0 -38 8t-26.5 17t-22 17t-25.5 8q-26 0 -51 -30t-44.5 -72
t-32 -88t-12.5 -79q0 -38 23 -59t57 -21q24 0 50 10.5t50 25.5t45.5 32t36.5 31z" />
    <glyph glyph-name="d" unicode="d" horiz-adv-x="574" 
d="M140 127q0 -31 10.5 -49.5t42.5 -18.5q42 0 78.5 31.5t64 78t43.5 98t16 92.5q0 35 -11 51t-45 16q-41 0 -77.5 -34t-63.5 -81t-42.5 -98t-15.5 -86zM419 446l48 234l-66 31l5 18q43 4 93.5 14.5t83.5 20.5l11 -7l-144 -615q-2 -8 -4.5 -20.5t-2.5 -20.5q0 -16 15 -16
q8 0 20.5 8.5t25 20t24.5 23t18 17.5l18 -23q-16 -18 -37.5 -43t-46.5 -48t-51.5 -39t-51.5 -16q-27 0 -36.5 14.5t-9.5 33.5q0 17 6 44t15 61h-2q-15 -27 -38.5 -54t-52 -49t-61 -36t-65.5 -14q-53 0 -79 36.5t-26 94.5q0 52 28.5 112.5t74 113t102 87.5t113.5 35
q38 0 73 -18z" />
    <glyph glyph-name="e" unicode="e" horiz-adv-x="444" 
d="M383 131l19 -24q-24 -22 -50 -43.5t-56 -39t-64 -28.5t-73 -11q-35 0 -60 13t-40.5 34.5t-23 49t-7.5 56.5q0 60 25.5 118t67.5 104.5t96.5 75t112.5 28.5q42 0 74 -19.5t32 -66.5q0 -45 -31.5 -77.5t-76.5 -53.5t-95 -33t-87 -17q-2 -9 -4 -23t-2 -32q0 -35 20 -62
t58 -27q50 0 93 27t72 51zM330 387q0 39 -37 39q-23 0 -45.5 -21t-41.5 -51t-32.5 -63t-18.5 -56q27 1 57.5 12.5t56.5 31.5t43.5 47.5t17.5 60.5z" />
    <glyph glyph-name="f" unicode="f" horiz-adv-x="333" 
d="M9 -230l137 629h-97l11 50h99q11 73 39.5 131.5t66.5 99.5t83.5 62.5t90.5 21.5q19 0 32 -10.5t13 -29.5q0 -23 -7.5 -44.5t-29.5 -21.5q-12 0 -21.5 5t-20.5 11q-10 6 -21.5 11t-28.5 5t-27.5 -10.5t-17.5 -27.5t-11 -38t-8 -43l-21 -122h115l-11 -50h-117
q-31 -157 -77 -309t-92 -303l-68 -25z" />
    <glyph glyph-name="g" unicode="g" horiz-adv-x="500" 
d="M219 80l122 -53q40 -17 64 -41.5t24 -64.5q0 -48 -27.5 -79t-67.5 -49t-85.5 -24.5t-82.5 -6.5q-25 0 -59.5 5.5t-66 18t-53.5 34.5t-22 55q0 29 14.5 48.5t37 34.5t50.5 27.5t56 25.5q-21 7 -39.5 20t-18.5 36q0 18 9 31.5t22 24t28 20t26 18.5q-40 16 -62.5 47.5
t-22.5 75.5t16.5 77.5t45 56.5t65.5 34.5t78 11.5q26 0 47.5 -5t40.5 -11q20 -6 38 -11.5t40 -5.5q23 0 35 6.5t25 6.5q10 0 21.5 -6.5t11.5 -27.5q0 -37 -33 -37q-11 0 -19.5 4.5t-17.5 9.5t-19.5 9.5t-25.5 4.5q10 -12 19 -33t9 -43q0 -42 -16 -75t-43.5 -55.5t-64 -34.5
t-76.5 -12q-15 0 -30 1t-29 3q-5 -2 -13.5 -12.5t-8.5 -20.5q0 -7 9 -14.5t49 -24.5zM231 -37l-77 34l-33 -21q-10 -6 -21.5 -14t-21.5 -18.5t-16.5 -24t-6.5 -30.5q0 -26 15 -43.5t36 -27.5t43.5 -14t38.5 -4q21 0 45.5 3.5t46 12.5t35.5 24.5t14 39.5q0 32 -26 47.5
t-72 35.5zM171 255q0 -30 15.5 -49.5t44.5 -19.5q28 0 47.5 17.5t32.5 42.5t19 53.5t6 50.5q0 32 -11 54t-52 22q-29 0 -48.5 -20t-31.5 -48t-17 -56.5t-5 -46.5z" />
    <glyph glyph-name="h" unicode="h" 
d="M321 753l-138 -513h2q19 27 49 65.5t66.5 73.5t76.5 60t79 25q44 0 58.5 -23.5t13.5 -68.5q-1 -69 -29 -137.5t-66 -122.5t-79 -88t-69 -34q-18 0 -25.5 8t-7.5 13q0 3 2 13t5.5 22.5t7.5 25.5t8 22l79 -8q7 18 17.5 45.5t20.5 62t17 72.5t7 77q0 19 -3.5 33t-21.5 14
q-22 0 -57 -27t-70.5 -68.5t-65.5 -90t-44 -92.5q-3 -10 -7.5 -23.5t-8.5 -27.5t-7 -26t-4 -18q-2 -15 -15.5 -18.5t-27.5 -3.5q-39 0 -45 5.5t-7 19.5q0 6 8 40t20 81.5t25 100.5t23 96l81 341l-60 29l6 21q16 1 38.5 4t46.5 7.5t47.5 10t41.5 12.5z" />
    <glyph glyph-name="i" unicode="i" horiz-adv-x="315" 
d="M265 145l19 -22q-55 -67 -99 -102.5t-92 -35.5q-20 0 -32.5 13t-12.5 34q0 18 14 64t31.5 96t31.5 93t14 56q0 9 -3 16t-12 7t-19.5 -7t-20.5 -17t-19.5 -20.5t-16.5 -17.5l-20 24q14 16 36.5 40t48 45.5t52.5 37t49 15.5q25 0 40 -10t15 -43q0 -19 -16 -66t-35.5 -99
t-35.5 -97.5t-16 -60.5q0 -13 12 -13q9 0 21.5 9t25.5 21t24 23.5t16 16.5zM183 651q0 25 18.5 43.5t43.5 18.5t43.5 -18.5t18.5 -43.5t-18.5 -43.5t-43.5 -18.5t-43.5 18.5t-18.5 43.5z" />
    <glyph glyph-name="j" unicode="j" horiz-adv-x="296" 
d="M-43 -228l-9 27q12 7 23.5 17t24.5 31.5t27 58.5t31 98l82 299q3 11 7 24t4 20q0 17 -15 17q-10 0 -22 -7.5t-23 -17.5t-20.5 -20.5t-15.5 -16.5l-23 24q12 13 34 36.5t47.5 46t52 39t47.5 16.5q24 0 40 -11t16 -48q0 -11 -4.5 -32.5t-10.5 -45t-12.5 -45t-9.5 -33.5
l-76 -255q-14 -45 -28.5 -80t-36 -61.5t-52.5 -46t-78 -34.5zM183 651q0 25 18.5 43.5t43.5 18.5t43.5 -18.5t18.5 -43.5t-18.5 -43.5t-43.5 -18.5t-43.5 18.5t-18.5 43.5z" />
    <glyph glyph-name="k" unicode="k" horiz-adv-x="537" 
d="M108 349l79 329l-63 33l5 18q18 1 41.5 4t48 7.5t47.5 10.5t40 13l12 -11l-112 -423h2q12 14 34 36.5t50 44.5t60.5 37.5t65.5 15.5q35 0 58 -19.5t23 -56.5q0 -36 -24.5 -66.5t-59.5 -55t-73.5 -42t-67.5 -26.5q32 -16 59 -44t50.5 -54t45.5 -45.5t44 -19.5q23 0 39 9
l-7 -34q-13 -8 -39 -16.5t-61 -8.5q-49 0 -82.5 25t-59 58.5t-47.5 67.5t-49 51l-41 -174q-3 -12 -15.5 -15t-26.5 -3q-37 0 -46.5 5.5t-9.5 19.5q0 6 8.5 40.5t20.5 83t26 103.5t25 102zM399 349q0 22 -12.5 31.5t-32.5 9.5q-23 0 -52 -17t-55.5 -44t-47.5 -60t-29 -64
q24 3 63 13t75.5 28t63.5 43.5t27 59.5z" />
    <glyph glyph-name="l" unicode="l" horiz-adv-x="296" 
d="M72 172l123 506l-63 33l5 18q19 1 44 4.5t49.5 9t46.5 11t37 10.5l12 -11q-14 -46 -31.5 -109t-31.5 -121l-96 -381q-3 -13 -6 -26.5t-3 -21.5q0 -7 3.5 -13t11.5 -6q15 0 40.5 22.5t51.5 50.5l19 -20q-38 -42 -65.5 -70t-49 -44t-38.5 -22.5t-35 -6.5q-32 0 -41 17
t-9 39q0 19 8.5 56t17.5 75z" />
    <glyph glyph-name="m" unicode="m" horiz-adv-x="833" 
d="M48 61l77 234q5 16 9 28.5t4 20.5q0 5 -3 9.5t-11 4.5q-7 0 -18 -7t-22.5 -17t-21.5 -19t-15 -14l-19 20q15 16 36 40.5t45.5 47t50 39t49.5 16.5q47 0 47 -50q0 -15 -8 -41.5t-18.5 -56t-21 -57t-14.5 -43.5l2 -2q17 28 50.5 70.5t72.5 82.5t79 68.5t71 28.5
q47 0 47 -50q0 -15 -8 -41.5t-18.5 -56t-21 -57t-14.5 -43.5l2 -2q17 28 50.5 70.5t73.5 82.5t82 68.5t77 28.5q25 0 40 -10t15 -43q0 -19 -16 -66t-35.5 -99t-35.5 -97.5t-16 -60.5q0 -13 12 -13q9 0 21.5 9t25.5 21t24 23.5t16 16.5l19 -22q-55 -67 -99 -102.5t-92 -35.5
q-20 0 -32.5 13t-12.5 34q0 18 14 63.5t31.5 95t31.5 91t14 51.5q0 25 -21 25q-19 0 -45.5 -22t-53.5 -54.5t-52 -70.5t-40 -70q-21 -45 -32 -73t-18.5 -44.5t-15 -22.5t-21.5 -6q-41 0 -54.5 4.5t-13.5 15.5q0 9 6.5 29t9.5 28l76 219q3 9 6 23t3 24t-3.5 15t-14.5 5
q-20 0 -48 -25.5t-56 -60.5t-51.5 -70.5t-34.5 -54.5q-22 -41 -33.5 -70t-19 -47t-14.5 -26.5t-20 -8.5q-37 0 -53 2.5t-16 12.5q0 7 4 19.5t10 31.5z" />
    <glyph glyph-name="n" unicode="n" horiz-adv-x="574" 
d="M48 61l77 234q5 16 9 28.5t4 20.5q0 5 -3 9.5t-11 4.5q-7 0 -18 -7t-22.5 -17t-21.5 -19t-15 -14l-19 20q15 16 36 40.5t45.5 47t50 39t49.5 16.5q47 0 47 -50q0 -15 -8 -41.5t-18.5 -56t-21 -57t-14.5 -43.5l2 -2q17 28 50.5 70.5t73.5 82.5t82.5 68.5t77.5 28.5
q25 0 40 -10t15 -43q0 -19 -16 -66t-35.5 -99t-35.5 -97.5t-16 -60.5q0 -13 12 -13q9 0 21.5 9t25.5 21t24 23.5t16 16.5l19 -22q-55 -67 -99 -102.5t-92 -35.5q-20 0 -32.5 13t-12.5 34q0 18 14 63.5t31.5 95t31.5 91t14 51.5q0 25 -25 25q-20 0 -48 -25.5t-56 -60.5
t-51.5 -70.5t-34.5 -54.5q-22 -41 -33.5 -70t-19 -47t-14.5 -26.5t-20 -8.5q-37 0 -53 2.5t-16 12.5q0 7 4 19.5t10 31.5z" />
    <glyph glyph-name="o" unicode="o" horiz-adv-x="537" 
d="M230 23q45 0 76.5 34t51 81.5t28 97.5t8.5 83q0 19 -2.5 38.5t-11 34.5t-24.5 24.5t-42 9.5q-44 0 -75.5 -32t-51 -77.5t-28.5 -95t-9 -84.5q0 -47 15.5 -80.5t64.5 -33.5zM311 464q49 0 86 -15t61 -41.5t36 -61.5t12 -75q0 -55 -19.5 -106.5t-55.5 -91.5t-86 -64
t-111 -24q-46 0 -82.5 16t-61.5 43t-38.5 61.5t-13.5 72.5q0 61 22.5 113t60 90.5t87 60.5t103.5 22z" />
    <glyph glyph-name="p" unicode="p" 
d="M285 579l-35 -132q60 17 117 17q32 0 60.5 -5.5t50.5 -20t34.5 -38.5t12.5 -61q0 -58 -25 -120.5t-68 -114.5t-98.5 -85.5t-117.5 -33.5q-22 0 -43 7.5t-32 16.5l-44 -180l79 -17l-4 -24q-16 -2 -39 -5t-48.5 -6.5t-49.5 -7.5t-41 -7l-12 8q36 153 75 305.5t76 305.5
q-10 -2 -26.5 -7.5t-34 -12t-33 -12.5t-23.5 -10l7 37q8 4 22.5 10t31.5 12.5t35 12.5t32 10l31 128zM243 412l-62 -250q-4 -16 -10 -44t-6 -43q0 -27 16.5 -39.5t42.5 -12.5q41 0 75.5 37t60 88t39.5 105t14 88q0 79 -89 79q-29 0 -49.5 -3t-31.5 -5z" />
    <glyph glyph-name="q" unicode="q" 
d="M271 -189l87 328h-2q-10 -15 -31 -41t-51 -51t-66.5 -43.5t-76.5 -18.5q-55 0 -79 30t-24 79q0 56 31.5 120.5t80.5 120t109 92.5t117 37q28 0 48 -11t33 -36l20 60l81 27l-174 -693q16 -6 34 -9t35 -6l-3 -24q-30 1 -59.5 2.5t-59.5 1.5q-35 0 -69 -1t-68 -3l5 24
q19 2 44 6.5t38 8.5zM140 125q0 -21 8.5 -43.5t40.5 -22.5q39 0 77.5 30t68.5 74t49 94.5t19 91.5q0 31 -16 51t-49 20q-39 0 -75 -32t-63 -78t-43.5 -97t-16.5 -88z" />
    <glyph glyph-name="r" unicode="r" horiz-adv-x="389" 
d="M69 87l49 162q2 9 5.5 22t6.5 25.5t5.5 23.5t2.5 16q0 7 -2 14.5t-12 7.5q-9 0 -20.5 -6.5t-22.5 -15.5t-20 -19t-15 -16l-18 22q13 17 34.5 41t46.5 46t51 38t48 16q23 0 32.5 -12t9.5 -33q0 -19 -5 -43t-12.5 -48t-15 -47.5t-12.5 -41.5l2 -2q15 23 37 61t48 75
t55.5 64t59.5 27q42 0 42 -39q0 -23 -11.5 -48t-37.5 -25q-15 0 -23.5 3t-21.5 3q-19 0 -42 -22.5t-47 -59.5t-47.5 -84.5t-43.5 -98.5q-10 -25 -16.5 -50.5t-10.5 -32.5q-7 -10 -18.5 -12.5t-34.5 -2.5q-28 0 -37 5.5t-9 12.5q0 2 2.5 11.5t5.5 21t6.5 23.5t5.5 18z" />
    <glyph glyph-name="s" unicode="s" horiz-adv-x="389" 
d="M345 339h-23q-10 32 -38 44.5t-57 12.5q-35 0 -56 -9t-21 -30q0 -17 16.5 -34t44.5 -35l68 -43q31 -20 47 -38.5t16 -56.5q0 -24 -15 -52.5t-41 -53.5t-63 -42t-80 -17q-24 0 -48.5 5t-44 15.5t-32 26t-12.5 37.5q0 23 5 36t27 37h19q5 -27 22.5 -43.5t39.5 -25t44 -11.5
t35 -3q34 0 55 8t21 32q0 13 -9 26t-52 41l-87 57q-28 18 -40 41.5t-12 42.5q0 29 18 54.5t40.5 44.5t43 31t24.5 14q26 13 67 13q17 0 35 -2t33 -8.5t24.5 -19t9.5 -34.5q0 -17 -8.5 -34t-15.5 -27z" />
    <glyph glyph-name="t" unicode="t" horiz-adv-x="333" 
d="M46 399l13 50h105l43 142h104l-42 -142h117l-12 -50h-119l-69 -230q-4 -13 -10 -34t-6 -32q0 -18 21 -18q13 0 26.5 8t27 19.5t25.5 24t23 21.5l18 -21q-15 -16 -38.5 -41.5t-51 -50t-57 -42.5t-57.5 -18q-33 0 -44 18.5t-11 38.5q0 13 3.5 31.5t9 39t11.5 40.5t10 35
l63 211h-103z" />
    <glyph glyph-name="u" unicode="u" horiz-adv-x="574" 
d="M540 434l-93 -279q-7 -22 -11 -38t-4 -22q0 -20 12 -20q9 0 21.5 9t25.5 21t24 23.5t16 16.5l19 -22q-52 -57 -98 -97.5t-83 -40.5q-25 0 -37 14.5t-12 31.5q0 6 2.5 19t10 40t22 71.5t39.5 115.5l-2 2q-20 -31 -52 -81t-71 -97t-83 -81.5t-88 -34.5q-31 0 -39.5 18
t-8.5 37t14 65.5t30 96.5t30 91.5t14 50.5q0 5 -3 9.5t-11 4.5q-7 0 -18 -7t-22.5 -17t-21.5 -19t-15 -14l-19 20q15 16 37 40.5t47.5 47t52 39t50.5 16.5q47 0 47 -50q0 -28 -14.5 -74.5t-32.5 -94t-32.5 -87.5t-14.5 -55q0 -7 4 -12.5t12 -5.5q16 0 42.5 26.5t53 60
t48.5 65t29 42.5q25 38 42 71.5t29 59t20.5 40t16.5 14.5q6 0 12.5 -3t12.5 -5z" />
    <glyph glyph-name="v" unicode="v" horiz-adv-x="500" 
d="M36 301l-21 23q14 15 36.5 38.5t48 46.5t53 39t52.5 16t35 -13t10 -39q0 -23 -13.5 -67.5t-29.5 -92.5t-29.5 -90t-13.5 -59q0 -44 47 -44q42 0 76.5 27.5t60 68t39.5 86t14 81.5q0 20 -6 40.5t-6 40.5q0 26 16 43.5t43 17.5q29 0 44 -18.5t15 -46.5q0 -32 -15 -75
t-41 -89t-60.5 -91t-73.5 -80t-80 -57t-81 -22q-61 0 -79.5 24.5t-18.5 58.5q0 28 10.5 71.5t23.5 85.5t23.5 75t10.5 41q0 17 -14 17q-10 0 -20.5 -7t-20.5 -16t-19 -18.5t-16 -15.5z" />
    <glyph glyph-name="w" unicode="w" horiz-adv-x="778" 
d="M36 301l-21 23q14 15 36.5 38.5t48 46.5t53 39t52.5 16t35 -13t10 -39q0 -21 -13 -62t-28 -87.5t-28 -91t-13 -72.5q0 -24 19 -24q17 0 42 16t51.5 39.5t50 49.5t37.5 46q6 23 15.5 63t24.5 79t36.5 67.5t52.5 28.5q24 0 34.5 -16t10.5 -35q0 -34 -15 -59.5t-35 -52.5
q-7 -10 -15.5 -35.5t-15.5 -56t-12 -60t-5 -46.5q0 -19 11 -31.5t35 -12.5q35 0 68.5 26t59 64t41 82.5t15.5 82.5q0 20 -2 44t-2 47q0 27 14.5 43t38.5 16q27 0 43 -15t16 -44q0 -31 -14.5 -74t-40 -89.5t-60.5 -92.5t-75.5 -82.5t-85.5 -59t-90 -22.5q-37 0 -57.5 20.5
t-20.5 58.5q0 25 5 49t11 46l-2 2q-17 -23 -45.5 -53t-61.5 -57.5t-68 -46.5t-65 -19q-26 0 -41 19.5t-15 56.5q0 25 11 69t24 87.5t24 79t11 44.5q0 17 -14 17q-10 0 -20.5 -7t-20.5 -16t-19 -18.5t-16 -15.5z" />
    <glyph glyph-name="x" unicode="x" 
d="M488 148l24 -19q-14 -22 -29 -47.5t-33.5 -47t-41.5 -35.5t-53 -14q-26 0 -43.5 20.5t-30 49.5t-20.5 58.5t-14 47.5q-17 -20 -39 -50t-46.5 -58t-51 -48t-53.5 -20q-29 0 -44 16.5t-15 44.5q0 26 15 44t31 29l20 -9l-2.5 -7.5t-1.5 -10.5q0 -9 7.5 -18t23.5 -9
q15 0 30.5 10.5t30 25t27.5 30.5t22 27l35 42q-10 37 -18 69t-17 55t-20.5 36.5t-29.5 13.5q-15 0 -25.5 -7t-18 -17.5t-13.5 -22.5t-12 -22l-26 15q9 22 22 47.5t30.5 47t39.5 35.5t50 14q31 0 49.5 -17.5t29.5 -43t18 -54t15 -49.5q13 21 33 49.5t44.5 53.5t51.5 43t54 18
q25 0 39 -14.5t14 -39.5q0 -22 -17 -41.5t-37 -32.5l-17 6q-1 14 -8 23t-24 9q-12 0 -30.5 -13.5t-37 -31.5t-33.5 -37t-21 -30l42 -124q2 -6 6 -16.5t10 -21t13.5 -18t17.5 -7.5q15 0 27 9.5t22 21.5t17.5 24t11.5 18z" />
    <glyph glyph-name="y" unicode="y" horiz-adv-x="519" 
d="M51 287l-15 -6l-24 14q0 27 5 56.5t18 54.5t35 41.5t57 16.5q39 0 64.5 -22t43 -57.5t27.5 -80t18 -88.5l26 -151h2q12 18 29.5 46.5t34.5 60t29 62.5t12 55q0 33 -12 55.5t-12 49.5q0 30 14.5 50t46.5 20q57 0 57 -67q0 -40 -25 -103t-72.5 -140t-115 -163t-152.5 -171
q-27 -27 -49.5 -37.5t-54.5 -10.5q-24 0 -40 10t-16 38q0 32 13 42t24 10q21 0 35.5 -5t41.5 -5q24 0 42.5 10.5t33.5 25.5t27 31t21 27q-2 18 -4 41.5t-5 46.5t-5.5 42.5t-4.5 29.5q-25 136 -54 197t-65 61q-34 0 -34 -49q0 -7 1 -18t2 -20z" />
    <glyph glyph-name="z" unicode="z" horiz-adv-x="463" 
d="M38 68l290 280l-2 2q-15 -6 -41 -6q-23 0 -44 7t-39.5 16t-34 16t-27.5 7q-16 0 -24 -10t-8 -20t4 -17t4 -17q0 -13 -9 -19t-22 -6q-25 0 -25 30q0 23 17 46.5t66 64.5q11 9 26 15.5t29 6.5q23 0 48.5 -10t50 -22t46 -22t36.5 -10q6 0 11.5 4.5t5.5 14.5q0 6 -1 13t-1 17
q0 9 7.5 17t21.5 8q11 0 19 -6t8 -18q0 -20 -14 -37t-36 -39l-260 -257h10q27 0 55.5 -16.5t55.5 -37t51 -37t41 -16.5q15 0 23 10t8 20q0 7 -5 12t-10.5 10t-10.5 10.5t-5 14.5q0 11 8 18t19 7q22 0 31 -16t9 -35q0 -21 -11 -44t-28 -42.5t-38 -32t-42 -12.5
q-33 0 -61 20.5t-53.5 45t-49.5 45t-49 20.5t-25 -19q0 -4 1.5 -10.5t1.5 -16.5q0 -11 -7.5 -20.5t-21.5 -9.5q-16 0 -21.5 9.5t-5.5 20.5q0 17 8.5 30t19.5 23z" />
    <glyph glyph-name="braceleft" unicode="{" horiz-adv-x="333" 
d="M377 713l-4 -18q-58 -7 -81.5 -37.5t-34.5 -83.5l-33 -175q-10 -55 -29 -87t-63 -45v-2q26 -9 38.5 -29t12.5 -40q0 -23 -8 -63l-33 -175q-3 -15 -4 -28.5t-1 -27.5q0 -55 73 -65l-3 -18q-70 0 -108 16.5t-38 71.5q0 24 6 57l35 184q3 15 4 28.5t1 23.5q0 22 -14 39
t-44 27q49 14 69 41t30 77l35 184q9 46 24.5 74.5t39 44.5t56 21t74.5 5z" />
    <glyph glyph-name="bar" unicode="|" horiz-adv-x="222" 
d="M85 -214v1000h90v-1000h-90z" />
    <glyph glyph-name="braceright" unicode="}" horiz-adv-x="333" 
d="M-44 -181l4 18q58 7 82 37.5t34 83.5l33 175q10 55 29.5 87t62.5 45v2q-25 9 -38 29t-13 40q0 23 8 63l33 175q3 15 4 28.5t1 27.5q0 55 -73 65l3 18q70 0 108 -16.5t38 -71.5q0 -24 -6 -57l-35 -184q-3 -15 -4 -28.5t-1 -23.5q0 -22 14 -39t44 -27q-49 -14 -69 -41
t-30 -77l-35 -184q-9 -46 -24.5 -74.5t-39 -44.5t-56 -21t-74.5 -5z" />
    <glyph glyph-name="asciitilde" unicode="~" 
d="M473 338l36 -80q-23 -32 -51 -59t-74 -27q-32 0 -57 10t-51 22t-55 26t-54 14q-33 0 -52.5 -25t-31.5 -51l-36 80q23 32 51 59t74 27q32 0 57 -10t51 -22t55 -26t54 -14q33 0 52.5 25t31.5 51z" />
    <glyph glyph-name="Eogonek" unicode="&#xa0;" horiz-adv-x="648" 
d="M-8 0l5 30q23 0 39 1.5t27 8t18 19t11 35.5l81 431q10 53 13 74t3 32q0 25 -21.5 30.5t-65.5 6.5l4 30q38 0 63 -1t43 -1.5t32 -1t30 -0.5q22 0 51 0.5t71 1t100 1.5t138 1q-6 -36 -10.5 -73.5t-8.5 -75.5h-31q1 5 1 12v13q0 24 -6 40.5t-22.5 26.5t-45.5 14.5t-76 4.5
q-17 0 -50.5 -2t-62.5 -4l-48 -262h120q52 0 74 20t33 73h29q-3 -17 -9 -47.5t-12 -65t-12 -68t-10 -56.5h-27q1 8 2 19.5t1 25.5q0 18 -2.5 29t-12.5 17t-30.5 7.5t-56.5 1.5q-35 0 -57.5 -0.5t-37.5 -1.5l-39 -216q-3 -16 -5 -27.5t-2 -23.5q0 -16 13 -25.5t68 -9.5h76
q57 0 90.5 5.5t54.5 19.5t35.5 39.5t33.5 65.5h31q-13 -44 -24 -87t-22 -87h-37t-37 1q-11 -10 -25 -21.5t-26 -25t-20.5 -29.5t-8.5 -35q0 -22 15 -39.5t37 -17.5q23 0 35.5 6.5t18.5 11.5l16 -18q-16 -15 -42 -29.5t-64 -14.5q-41 0 -66.5 21.5t-25.5 60.5q0 25 10 44.5
t26 35t36 28t39 23.5q-51 1 -101 1.5t-100 0.5q-66 0 -132 -1.5t-132 -2.5z" />
    <glyph glyph-name="Aacute" unicode="&#xa1;" horiz-adv-x="685" 
d="M-57 0l5 30h12q38 0 58.5 16t43.5 57l282 495q14 23 31.5 53.5t33.5 59.5l54 15l14 -8q7 -43 14 -85t15 -85l73 -418q5 -26 9 -44.5t12.5 -31t22.5 -18.5t38 -6h23l-5 -30q-37 1 -75 2.5t-75 1.5q-38 0 -76 -1.5t-76 -2.5l5 30h25q33 0 43 7.5t10 24.5q0 8 -2 20.5
t-4 25.5l-20 134h-235l-64 -124q-7 -13 -14 -29.5t-7 -31.5q0 -16 19.5 -21.5t45.5 -5.5h21l-4 -30q-32 1 -64 2.5t-63 1.5t-63 -2t-63 -2zM426 292l-47 274h-2l-150 -274h199zM364 745l131 136q22 23 34.5 31.5t25.5 8.5q17 0 29.5 -12.5t12.5 -31.5q0 -17 -16 -28.5
t-51 -32.5l-122 -71h-44z" />
    <glyph glyph-name="breve" unicode="&#xa2;" horiz-adv-x="278" 
d="M88 720h36q2 -47 31 -70.5t76 -23.5t81.5 25t48.5 69h36q-12 -72 -59.5 -117t-114.5 -45q-75 0 -105 43.5t-30 118.5z" />
    <glyph glyph-name="Lslash" unicode="&#xa3;" horiz-adv-x="630" 
d="M28 212l11 67l99 58l35 188q10 53 13 74t3 32q0 25 -21.5 30.5t-65.5 6.5l4 30q40 -1 80 -2.5t80 -1.5q35 0 71.5 1.5t74.5 2.5l-5 -30q-44 -1 -64.5 -7.5t-27.5 -43.5l-36 -197l199 118l-11 -67l-201 -118l-57 -309h146q26 0 55.5 3t58 13.5t52.5 31t39 55.5l14 34
l31 -3q-5 -16 -13 -39.5t-16 -48.5t-15 -49t-11 -41q-58 1 -117 2.5t-117 1.5q-82 0 -163 -1.5t-161 -2.5l5 30q23 0 39 1.5t27 8t18 19t11 35.5l33 176z" />
    <glyph glyph-name="acute" unicode="&#xa5;" horiz-adv-x="278" 
d="M144 560l131 136q22 22 34.5 31t25.5 9q17 0 29.5 -12.5t12.5 -31.5q0 -16 -16 -28t-51 -33l-122 -71h-44z" />
    <glyph glyph-name="currency" unicode="&#xa7;" 
d="M447 549l59 58l53 -56l-58 -56q20 -26 34.5 -64.5t14.5 -81.5q0 -40 -15 -81.5t-34 -64.5l58 -55l-53 -55l-59 59q-27 -24 -66 -37.5t-79 -13.5q-44 0 -82.5 14t-62.5 37l-61 -59l-53 55l57 55q-23 31 -34.5 69t-11.5 77q0 38 12 76.5t34 69.5l-57 56l55 56l59 -58
q62 47 145 48q40 1 78 -12t67 -36zM144 349q0 -33 12.5 -61.5t34 -50t50 -34t61.5 -12.5t61.5 12.5t50 34t34 50t12.5 61.5t-12.5 61.5t-34 50t-50 34t-61.5 12.5t-61.5 -12.5t-50 -34t-34 -50t-12.5 -61.5z" />
    <glyph glyph-name="logicalnot" unicode="&#xa8;" 
d="M440 108v201h-414v90h504v-291h-90z" />
    <glyph glyph-name="copyright" unicode="&#xa9;" horiz-adv-x="800" 
d="M56 349q0 76 28 142.5t76.5 115.5t115 77.5t144.5 28.5t144.5 -28.5t115.5 -77.5t76.5 -115.5t27.5 -142.5q0 -77 -27.5 -143t-76.5 -115.5t-115.5 -77.5t-144.5 -28t-144.5 28t-115 77.5t-76.5 115.5t-28 143zM132 349q0 -58 22 -111.5t60.5 -94.5t91 -65.5t114.5 -24.5
t115 24.5t91.5 65.5t60 94.5t21.5 111.5q0 57 -21.5 110.5t-60 95t-91.5 66t-115 24.5t-114.5 -24.5t-91 -66t-60.5 -95t-22 -110.5zM599 260l-17 -76q-2 -9 -15.5 -16.5t-33.5 -13t-44.5 -8.5t-47.5 -3q-101 0 -164.5 51.5t-63.5 157.5q0 33 12.5 69t40 65.5t72.5 49
t111 19.5q18 0 40.5 -3t43 -8t34.5 -12t14 -16v-75h-24q-3 16 -10 32t-20 29t-32 21t-47 8q-65 0 -97 -48.5t-32 -125.5q0 -41 6.5 -75.5t22 -60t41 -40t62.5 -14.5q47 0 78 26.5t46 66.5h24z" />
    <glyph glyph-name="guillemotright" unicode="&#xaa;" horiz-adv-x="519" 
d="M310 408l168 -170l-225 -170l-15 19l140 151l-89 156zM124 408l168 -170l-225 -170l-15 19l140 151l-89 156z" />
    <glyph glyph-name="Ccedilla" unicode="&#xab;" horiz-adv-x="741" 
d="M292 -93l56 83q-67 9 -119 36t-88 69t-54.5 96t-18.5 117q0 94 32.5 169t88.5 127.5t130.5 80.5t158.5 28q52 0 84 -7t54 -15.5t37.5 -15.5t34.5 -7q8 0 14 6.5t7 14.5l24 -4q-11 -47 -19.5 -93.5t-13.5 -95.5l-30 4q0 76 -39.5 125.5t-121.5 49.5q-77 0 -133.5 -32.5
t-94.5 -85.5t-56.5 -121.5t-18.5 -139.5q0 -56 15 -105.5t42.5 -86.5t67.5 -59t91 -22q88 0 147.5 51.5t93.5 128.5l28 -8q-13 -42 -24 -84.5t-19 -85.5q-6 2 -19 2q-11 0 -31 -6.5t-47.5 -14.5t-62 -14.5t-74.5 -6.5h-14.5t-12.5 1l-35 -48q8 2 15 2h14q33 0 58 -19t25 -56
q0 -34 -34 -57.5t-85 -23.5q-37 0 -64 8.5t-40 14.5l17 31q12 -7 31 -11.5t36 -4.5q24 0 39.5 9.5t15.5 30.5q0 19 -12.5 29.5t-31.5 10.5q-16 0 -32 -7z" />
    <glyph glyph-name="Acircumflex" unicode="&#xac;" horiz-adv-x="685" 
d="M-57 0l5 30h12q38 0 58.5 16t43.5 57l282 495q14 23 31.5 53.5t33.5 59.5l54 15l14 -8q7 -43 14 -85t15 -85l73 -418q5 -26 9 -44.5t12.5 -31t22.5 -18.5t38 -6h23l-5 -30q-37 1 -75 2.5t-75 1.5q-38 0 -76 -1.5t-76 -2.5l5 30h25q33 0 43 7.5t10 24.5q0 8 -2 20.5
t-4 25.5l-20 134h-235l-64 -124q-7 -13 -14 -29.5t-7 -31.5q0 -16 19.5 -21.5t45.5 -5.5h21l-4 -30q-32 1 -64 2.5t-63 1.5t-63 -2t-63 -2zM426 292l-47 274h-2l-150 -274h199zM278 745l159 170h67l88 -170h-45l-86 99l-133 -99h-50z" />
    <glyph glyph-name="dieresis" unicode="&#xae;" horiz-adv-x="278" 
d="M332 696q22 0 39 -16.5t17 -39.5t-17 -39.5t-39 -16.5t-39 16.5t-17 39.5t17 39.5t39 16.5zM121 696q23 0 39.5 -16.5t16.5 -39.5t-16.5 -39.5t-39.5 -16.5t-39.5 16.5t-16.5 39.5t16.5 39.5t39.5 16.5z" />
    <glyph glyph-name="rcaron" unicode="&#xaf;" horiz-adv-x="389" 
d="M69 87l49 162q2 9 5.5 22t6.5 25.5t5.5 23.5t2.5 16q0 7 -2 14.5t-12 7.5q-9 0 -20.5 -6.5t-22.5 -15.5t-20 -19t-15 -16l-18 22q13 17 34.5 41t46.5 46t51 38t48 16q23 0 32.5 -12t9.5 -33q0 -19 -5 -43t-12.5 -48t-15 -47.5t-12.5 -41.5l2 -2q15 23 37 61t48 75
t55.5 64t59.5 27q42 0 42 -39q0 -23 -11.5 -48t-37.5 -25q-15 0 -23.5 3t-21.5 3q-19 0 -42 -22.5t-47 -59.5t-47.5 -84.5t-43.5 -98.5q-10 -25 -16.5 -50.5t-10.5 -32.5q-7 -10 -18.5 -12.5t-34.5 -2.5q-28 0 -37 5.5t-9 12.5q0 2 2.5 11.5t5.5 21t6.5 23.5t5.5 18z
M485 730l-159 -170h-67l-88 170h45l86 -99l133 99h50z" />
    <glyph glyph-name="caron" unicode="&#xb0;" horiz-adv-x="278" 
d="M403 730l-159 -170h-67l-88 170h45l86 -99l133 99h50z" />
    <glyph glyph-name="plusminus" unicode="&#xb1;" 
d="M233 136v139h-207v90h207v139h90v-139h207v-90h-207v-139h-90zM26 0v90h504v-90h-504z" />
    <glyph glyph-name="guillemotleft" unicode="&#xb4;" horiz-adv-x="519" 
d="M220 68l-168 170l225 170l15 -19l-140 -151l89 -156zM406 68l-168 170l225 170l15 -19l-140 -151l89 -156z" />
    <glyph glyph-name="mu" unicode="&#xb5;" horiz-adv-x="574" 
d="M540 434l-93 -279q-7 -22 -11 -38t-4 -22q0 -20 12 -20q9 0 21.5 9t25.5 21t24 23.5t16 16.5l19 -22q-52 -57 -98 -97.5t-83 -40.5q-25 0 -37 14.5t-12 31.5q0 6 2.5 19t10 40t22 71.5t39.5 115.5l-2 2q-20 -31 -52 -81t-71 -97t-83 -81.5t-88 -34.5q-7 -24 -8 -49.5
t-1 -44.5q0 -73 -19 -101t-48 -28q-22 0 -33.5 16t-11.5 38q0 20 6 46t18 62t29.5 84.5t39.5 114.5q29 91 48.5 151t19.5 70q0 5 -3 9.5t-11 4.5q-7 0 -18 -7t-22.5 -17t-21.5 -19t-15 -14l-19 20q15 16 37 40.5t47.5 47t52 39t50.5 16.5q47 0 47 -50q0 -28 -14.5 -74.5
t-32.5 -94t-32.5 -87.5t-14.5 -55q0 -7 4 -12.5t12 -5.5q16 0 42.5 26.5t53 60t48.5 65t29 42.5q25 38 42 71.5t29 59t20.5 40t16.5 14.5q6 0 12.5 -3t12.5 -5z" />
    <glyph glyph-name="brokenbar" unicode="&#xb6;" horiz-adv-x="222" 
d="M85 -89v250h90v-250h-90zM85 411v250h90v-250h-90z" />
    <glyph glyph-name="aacute" unicode="&#xb7;" horiz-adv-x="537" 
d="M482 388l-70 -231q-7 -22 -10 -36.5t-3 -19.5q0 -16 17 -16t39.5 20.5t45.5 46.5l21 -21q-15 -16 -37.5 -40.5t-48.5 -48t-53 -40.5t-51 -17q-20 0 -32.5 12t-12.5 33q0 15 5 36t12 43t14.5 41.5t11.5 31.5l-2 2q-15 -27 -42 -61.5t-59.5 -65t-68 -51.5t-69.5 -21
q-41 0 -56 28t-15 57q0 71 36 141.5t87.5 126.5t109 91t101.5 35q21 0 33.5 -8t26.5 -31l20 47q2 6 5.5 8t14.5 2q38 0 46.5 -3.5t8.5 -9.5q0 -5 -8.5 -30t-16.5 -51zM118 146q0 -24 8 -47.5t34 -23.5q33 0 69.5 32.5t67.5 77t51 91.5t20 77q0 23 -12 39t-38 16
q-39 0 -75.5 -29t-64 -70.5t-44 -86t-16.5 -76.5zM329 560l131 136q22 22 34 31t26 9q17 0 29.5 -12.5t12.5 -31.5q0 -16 -16 -28t-51 -33l-122 -71h-44z" />
    <glyph glyph-name="udieresis" unicode="&#xb8;" horiz-adv-x="574" 
d="M540 434l-93 -279q-7 -22 -11 -38t-4 -22q0 -20 12 -20q9 0 21.5 9t25.5 21t24 23.5t16 16.5l19 -22q-52 -57 -98 -97.5t-83 -40.5q-25 0 -37 14.5t-12 31.5q0 6 2.5 19t10 40t22 71.5t39.5 115.5l-2 2q-20 -31 -52 -81t-71 -97t-83 -81.5t-88 -34.5q-31 0 -39.5 18
t-8.5 37t14 65.5t30 96.5t30 91.5t14 50.5q0 5 -3 9.5t-11 4.5q-7 0 -18 -7t-22.5 -17t-21.5 -19t-15 -14l-19 20q15 16 37 40.5t47.5 47t52 39t50.5 16.5q47 0 47 -50q0 -28 -14.5 -74.5t-32.5 -94t-32.5 -87.5t-14.5 -55q0 -7 4 -12.5t12 -5.5q16 0 42.5 26.5t53 60
t48.5 65t29 42.5q25 38 42 71.5t29 59t20.5 40t16.5 14.5q6 0 12.5 -3t12.5 -5zM480 696q22 0 39 -16.5t17 -39.5t-17 -39.5t-39 -16.5t-39 16.5t-17 39.5t17 39.5t39 16.5zM269 696q23 0 39.5 -16.5t16.5 -39.5t-16.5 -39.5t-39.5 -16.5t-39.5 16.5t-16.5 39.5t16.5 39.5
t39.5 16.5z" />
    <glyph glyph-name="Lcaron" unicode="&#xba;" horiz-adv-x="630" 
d="M-8 0l5 30q23 0 39 1.5t27 8t18 19t11 35.5l81 431q10 53 13 74t3 32q0 25 -21.5 30.5t-65.5 6.5l4 30q40 -1 80 -2.5t80 -1.5q35 0 71.5 1.5t74.5 2.5l-5 -30q-44 -1 -64.5 -7.5t-27.5 -43.5l-106 -573h146q26 0 55.5 3t58 13.5t52.5 31t39 55.5l14 34l31 -3
q-5 -16 -13 -39.5t-16 -48.5t-15 -49t-11 -41q-58 1 -117 2.5t-117 1.5q-82 0 -163 -1.5t-161 -2.5zM411 482l-7 23q14 1 33 6.5t36.5 14.5t29.5 22t12 29q0 17 -10 21.5t-22.5 8.5t-22.5 13t-10 34q0 22 15 36t37 14q38 0 54.5 -22.5t16.5 -56.5q0 -36 -16.5 -62t-40.5 -43
t-52.5 -26t-52.5 -12z" />
    <glyph glyph-name="Ccaron" unicode="&#xbb;" horiz-adv-x="741" 
d="M663 203l28 -8q-13 -42 -24 -84.5t-19 -85.5q-6 2 -19 2q-11 0 -31 -6.5t-47.5 -14.5t-62 -14.5t-74.5 -6.5q-82 0 -146.5 24t-108.5 67t-67.5 102.5t-23.5 129.5q0 94 32.5 169t88.5 127.5t130.5 80.5t158.5 28q52 0 84 -7t54 -15.5t37.5 -15.5t34.5 -7q8 0 14 6.5
t7 14.5l24 -4q-11 -47 -19.5 -93.5t-13.5 -95.5l-30 4q0 76 -39.5 125.5t-121.5 49.5q-77 0 -133.5 -32.5t-94.5 -85.5t-56.5 -121.5t-18.5 -139.5q0 -56 15 -105.5t42.5 -86.5t67.5 -59t91 -22q88 0 147.5 51.5t93.5 128.5zM707 915l-159 -170h-67l-88 170h45l86 -99
l133 99h50z" />
    <glyph glyph-name="Racute" unicode="&#xbf;" horiz-adv-x="685" 
d="M317 660l-49 -286q10 -2 21.5 -2h24.5q72 0 112.5 50t40.5 130q0 46 -24 77t-81 31h-45zM-8 0l5 30q23 0 39 1.5t27 8t18 19t11 35.5l85 457q4 19 6.5 38t2.5 30q0 26 -19 37.5t-72 11.5l5 30q34 -1 69 -2.5t69 -1.5q40 0 77 2t91 2q34 0 69.5 -6.5t64 -23.5t47 -46
t18.5 -74q0 -44 -16 -76.5t-42.5 -56.5t-61.5 -39.5t-72 -24.5q28 -29 47.5 -58.5t44.5 -73.5l55 -94q29 -49 51.5 -72t58.5 -23h16l-4 -30q-26 1 -53 2.5t-53 1.5q-20 0 -40.5 -1.5t-40.5 -2.5q-59 81 -105 169.5t-102 171.5l-26 2l-42 -234q-2 -10 -3.5 -19.5t-1.5 -19.5
q0 -20 12.5 -30t47.5 -10h33l-4 -30q-40 1 -79 2.5t-79 1.5q-38 0 -77 -1.5t-77 -2.5zM324 745l131 136q22 23 34.5 31.5t25.5 8.5q17 0 29.5 -12.5t12.5 -31.5q0 -17 -16 -28.5t-51 -32.5l-122 -71h-44z" />
    <glyph glyph-name="Edieresis" unicode="&#xc0;" horiz-adv-x="648" 
d="M-8 0l5 30q23 0 39 1.5t27 8t18 19t11 35.5l81 431q10 53 13 74t3 32q0 25 -21.5 30.5t-65.5 6.5l4 30q38 0 63 -1t43 -1.5t32 -1t30 -0.5q22 0 51 0.5t71 1t100 1.5t138 1q-6 -36 -10.5 -73.5t-8.5 -75.5h-31q1 5 1 12v13q0 24 -6 40.5t-22.5 26.5t-45.5 14.5t-76 4.5
q-17 0 -50.5 -2t-62.5 -4l-48 -262h120q52 0 74 20t33 73h29q-3 -17 -9 -47.5t-12 -65t-12 -68t-10 -56.5h-27q1 8 2 19.5t1 25.5q0 18 -2.5 29t-12.5 17t-30.5 7.5t-56.5 1.5q-35 0 -57.5 -0.5t-37.5 -1.5l-39 -216q-3 -16 -5 -27.5t-2 -23.5q0 -16 13 -25.5t68 -9.5h76
q57 0 90.5 5.5t54.5 19.5t35.5 39.5t33.5 65.5h31q-13 -44 -24 -87t-22 -87q-80 1 -160 2.5t-160 1.5q-66 0 -132 -1.5t-132 -2.5zM532 881q22 0 39 -16.5t17 -39.5t-17 -39.5t-39 -16.5t-39 16.5t-17 39.5t17 39.5t39 16.5zM321 881q23 0 39.5 -16.5t16.5 -39.5
t-16.5 -39.5t-39.5 -16.5t-39.5 16.5t-16.5 39.5t16.5 39.5t39.5 16.5z" />
    <glyph glyph-name="ccedilla" unicode="&#xc1;" horiz-adv-x="444" 
d="M93 -93l55 80q-62 7 -91 46t-29 95q0 73 36 134.5t89 106.5t114 70t111 25q27 0 50.5 -12.5t23.5 -44.5q0 -24 -14.5 -39.5t-39.5 -15.5q-23 0 -38 8t-26.5 17t-22 17t-25.5 8q-26 0 -51 -30t-44.5 -72t-32 -88t-12.5 -79q0 -38 23 -59t57 -21q24 0 50 10.5t50 25.5
t45.5 32t36.5 31l21 -27q-21 -21 -49 -44.5t-59.5 -44t-65.5 -34.5t-67 -16l-35 -48q8 2 15 2h14q33 0 58 -19t25 -56q0 -34 -34 -57.5t-85 -23.5q-37 0 -63.5 8.5t-40.5 14.5l17 31q12 -7 31.5 -11.5t35.5 -4.5q24 0 39.5 9.5t15.5 30.5q0 19 -12.5 29.5t-31.5 10.5
q-16 0 -32 -7z" />
    <glyph glyph-name="lacute" unicode="&#xc2;" horiz-adv-x="296" 
d="M72 172l123 506l-63 33l5 18q19 1 44 4.5t49.5 9t46.5 11t37 10.5l12 -11q-14 -46 -31.5 -109t-31.5 -121l-96 -381q-3 -13 -6 -26.5t-3 -21.5q0 -7 3.5 -13t11.5 -6q15 0 40.5 22.5t51.5 50.5l19 -20q-38 -42 -65.5 -70t-49 -44t-38.5 -22.5t-35 -6.5q-32 0 -41 17
t-9 39q0 19 8.5 56t17.5 75zM163 780l131 136q22 22 34 31t26 9q17 0 29.5 -12.5t12.5 -31.5q0 -16 -16 -28t-51 -33l-122 -71h-44z" />
    <glyph glyph-name="Ecaron" unicode="&#xc3;" horiz-adv-x="648" 
d="M-8 0l5 30q23 0 39 1.5t27 8t18 19t11 35.5l81 431q10 53 13 74t3 32q0 25 -21.5 30.5t-65.5 6.5l4 30q38 0 63 -1t43 -1.5t32 -1t30 -0.5q22 0 51 0.5t71 1t100 1.5t138 1q-6 -36 -10.5 -73.5t-8.5 -75.5h-31q1 5 1 12v13q0 24 -6 40.5t-22.5 26.5t-45.5 14.5t-76 4.5
q-17 0 -50.5 -2t-62.5 -4l-48 -262h120q52 0 74 20t33 73h29q-3 -17 -9 -47.5t-12 -65t-12 -68t-10 -56.5h-27q1 8 2 19.5t1 25.5q0 18 -2.5 29t-12.5 17t-30.5 7.5t-56.5 1.5q-35 0 -57.5 -0.5t-37.5 -1.5l-39 -216q-3 -16 -5 -27.5t-2 -23.5q0 -16 13 -25.5t68 -9.5h76
q57 0 90.5 5.5t54.5 19.5t35.5 39.5t33.5 65.5h31q-13 -44 -24 -87t-22 -87q-80 1 -160 2.5t-160 1.5q-66 0 -132 -1.5t-132 -2.5zM603 915l-159 -170h-67l-88 170h45l86 -99l133 99h50z" />
    <glyph glyph-name="registered" unicode="&#xc6;" horiz-adv-x="800" 
d="M138 531q0 38 14 71t38.5 58t57.5 39t72 14t72.5 -14t57.5 -39t38 -58t14 -71t-14 -71.5t-38 -58t-57.5 -38.5t-72.5 -14t-72 14t-57.5 38.5t-38.5 58t-14 71.5zM176 531q0 -29 11 -55.5t30.5 -47t45.5 -33t57 -12.5t57.5 12.5t45.5 33t30 47t11 55.5t-11 55.5t-30 47
t-45.5 33t-57.5 12.5t-57 -12.5t-45.5 -33t-30.5 -47t-11 -55.5zM233 619v9h101q25 0 43 -11.5t18 -37.5q0 -18 -11 -34.5t-27 -23.5l26 -37q9 -14 19 -27t17 -17v-6h-42q-12 0 -25.5 27t-35.5 57h-17v-52q0 -14 3 -18t20 -5v-9h-89v9q17 1 20.5 5t3.5 18v131
q0 14 -3.5 17.5t-20.5 4.5zM299 616v-86h18q19 0 26 14t7 32q0 26 -9 33t-23 7h-19z" />
    <glyph glyph-name="quotesinglbase" unicode="&#xc7;" horiz-adv-x="278" 
d="M-6 -154l-9 30q17 1 41.5 8t47.5 18.5t39.5 27.5t16.5 36q0 22 -13 29t-29 12.5t-29 17t-13 43.5q0 27 21 43.5t47 16.5q49 0 70.5 -27t21.5 -73q0 -41 -19 -73.5t-49 -55.5t-68 -36.5t-76 -16.5z" />
    <glyph glyph-name="eacute" unicode="&#xc8;" horiz-adv-x="444" 
d="M383 131l19 -24q-24 -22 -50 -43.5t-56 -39t-64 -28.5t-73 -11q-35 0 -60 13t-40.5 34.5t-23 49t-7.5 56.5q0 60 25.5 118t67.5 104.5t96.5 75t112.5 28.5q42 0 74 -19.5t32 -66.5q0 -45 -31.5 -77.5t-76.5 -53.5t-95 -33t-87 -17q-2 -9 -4 -23t-2 -32q0 -35 20 -62
t58 -27q50 0 93 27t72 51zM330 387q0 39 -37 39q-23 0 -45.5 -21t-41.5 -51t-32.5 -63t-18.5 -56q27 1 57.5 12.5t56.5 31.5t43.5 47.5t17.5 60.5zM287 560l131 136q22 22 34 31t26 9q17 0 29.5 -12.5t12.5 -31.5q0 -16 -16 -28t-51 -33l-122 -71h-44z" />
    <glyph glyph-name="cacute" unicode="&#xca;" horiz-adv-x="444" 
d="M408 152l21 -27q-23 -23 -52.5 -47.5t-62.5 -45t-68.5 -34t-69.5 -13.5q-76 0 -112 40.5t-36 102.5q0 73 36 134.5t89 106.5t114 70t111 25q27 0 50.5 -12.5t23.5 -44.5q0 -24 -14.5 -39.5t-39.5 -15.5q-23 0 -38 8t-26.5 17t-22 17t-25.5 8q-26 0 -51 -30t-44.5 -72
t-32 -88t-12.5 -79q0 -38 23 -59t57 -21q24 0 50 10.5t50 25.5t45.5 32t36.5 31zM287 560l131 136q22 22 34 31t26 9q17 0 29.5 -12.5t12.5 -31.5q0 -16 -16 -28t-51 -33l-122 -71h-44z" />
    <glyph glyph-name="ccaron" unicode="&#xcb;" horiz-adv-x="444" 
d="M408 152l21 -27q-23 -23 -52.5 -47.5t-62.5 -45t-68.5 -34t-69.5 -13.5q-76 0 -112 40.5t-36 102.5q0 73 36 134.5t89 106.5t114 70t111 25q27 0 50.5 -12.5t23.5 -44.5q0 -24 -14.5 -39.5t-39.5 -15.5q-23 0 -38 8t-26.5 17t-22 17t-25.5 8q-26 0 -51 -30t-44.5 -72
t-32 -88t-12.5 -79q0 -38 23 -59t57 -21q24 0 50 10.5t50 25.5t45.5 32t36.5 31zM551 730l-159 -170h-67l-88 170h45l86 -99l133 99h50z" />
    <glyph glyph-name="iacute" unicode="&#xcc;" horiz-adv-x="315" 
d="M265 145l19 -22q-55 -67 -99 -102.5t-92 -35.5q-20 0 -32.5 13t-12.5 34q0 18 14 64t31.5 96t31.5 93t14 56q0 9 -3 16t-12 7t-19.5 -7t-20.5 -17t-19.5 -20.5t-16.5 -17.5l-20 24q14 16 36.5 40t48 45.5t52.5 37t49 15.5q25 0 40 -10t15 -43q0 -19 -16 -66t-35.5 -99
t-35.5 -97.5t-16 -60.5q0 -13 12 -13q9 0 21.5 9t25.5 21t24 23.5t16 16.5zM173 560l131 136q22 22 34 31t26 9q17 0 29.5 -12.5t12.5 -31.5q0 -16 -16 -28t-51 -33l-122 -71h-44z" />
    <glyph glyph-name="eogonek" unicode="&#xcd;" horiz-adv-x="444" 
d="M330 387q0 39 -37 39q-23 0 -45.5 -21t-41.5 -51t-32.5 -63t-18.5 -56q27 1 57.5 12.5t56.5 31.5t43.5 47.5t17.5 60.5zM383 131l19 -24q-33 -30 -71 -59.5t-85 -46.5q-11 -10 -24.5 -21t-25 -24.5t-19 -29t-7.5 -33.5q0 -22 15 -39.5t37 -17.5q23 0 35.5 7t18.5 11
l16 -18q-16 -15 -42 -29.5t-64 -14.5q-41 0 -66.5 21.5t-25.5 60.5q0 40 24 66t55 46q-4 -1 -14 -1q-35 0 -60 13t-40.5 34.5t-23 49t-7.5 56.5q0 60 25.5 118t67.5 104.5t96.5 75t112.5 28.5q42 0 74 -19.5t32 -66.5q0 -45 -31.5 -77.5t-76.5 -53.5t-95 -33t-87 -17
q-2 -9 -4 -23t-2 -32q0 -35 20 -62t58 -27q50 0 93 27t72 51z" />
    <glyph glyph-name="edieresis" unicode="&#xce;" horiz-adv-x="444" 
d="M383 131l19 -24q-24 -22 -50 -43.5t-56 -39t-64 -28.5t-73 -11q-35 0 -60 13t-40.5 34.5t-23 49t-7.5 56.5q0 60 25.5 118t67.5 104.5t96.5 75t112.5 28.5q42 0 74 -19.5t32 -66.5q0 -45 -31.5 -77.5t-76.5 -53.5t-95 -33t-87 -17q-2 -9 -4 -23t-2 -32q0 -35 20 -62
t58 -27q50 0 93 27t72 51zM330 387q0 39 -37 39q-23 0 -45.5 -21t-41.5 -51t-32.5 -63t-18.5 -56q27 1 57.5 12.5t56.5 31.5t43.5 47.5t17.5 60.5zM439 696q23 0 39.5 -16.5t16.5 -39.5t-16.5 -39.5t-39.5 -16.5t-39.5 16.5t-16.5 39.5t16.5 39.5t39.5 16.5zM228 696
q22 0 39 -16.5t17 -39.5t-17 -39.5t-39 -16.5t-39 16.5t-17 39.5t17 39.5t39 16.5z" />
    <glyph glyph-name="ecaron" unicode="&#xcf;" horiz-adv-x="444" 
d="M383 131l19 -24q-24 -22 -50 -43.5t-56 -39t-64 -28.5t-73 -11q-35 0 -60 13t-40.5 34.5t-23 49t-7.5 56.5q0 60 25.5 118t67.5 104.5t96.5 75t112.5 28.5q42 0 74 -19.5t32 -66.5q0 -45 -31.5 -77.5t-76.5 -53.5t-95 -33t-87 -17q-2 -9 -4 -23t-2 -32q0 -35 20 -62
t58 -27q50 0 93 27t72 51zM330 387q0 39 -37 39q-23 0 -45.5 -21t-41.5 -51t-32.5 -63t-18.5 -56q27 1 57.5 12.5t56.5 31.5t43.5 47.5t17.5 60.5zM536 730l-159 -170h-67l-88 170h45l86 -99l133 99h50z" />
    <glyph glyph-name="quotedblbase" unicode="&#xd1;" horiz-adv-x="519" 
d="M-6 -154l-9 30q17 1 41.5 8t47.5 18.5t39.5 27.5t16.5 36q0 22 -13 29t-29 12.5t-29 17t-13 43.5q0 27 21 43.5t47 16.5q49 0 70.5 -27t21.5 -73q0 -41 -19 -73.5t-49 -55.5t-68 -36.5t-76 -16.5zM217 -154l-9 30q16 1 41 8t48 18.5t39.5 27.5t16.5 36q0 22 -13 29
t-29 12.5t-29 17t-13 43.5q0 27 21.5 43.5t46.5 16.5q49 0 70.5 -27t21.5 -73q0 -41 -19 -73.5t-49 -55.5t-68 -36.5t-76 -16.5z" />
    <glyph glyph-name="nacute" unicode="&#xd2;" horiz-adv-x="574" 
d="M48 61l77 234q5 16 9 28.5t4 20.5q0 5 -3 9.5t-11 4.5q-7 0 -18 -7t-22.5 -17t-21.5 -19t-15 -14l-19 20q15 16 36 40.5t45.5 47t50 39t49.5 16.5q47 0 47 -50q0 -15 -8 -41.5t-18.5 -56t-21 -57t-14.5 -43.5l2 -2q17 28 50.5 70.5t73.5 82.5t82.5 68.5t77.5 28.5
q25 0 40 -10t15 -43q0 -19 -16 -66t-35.5 -99t-35.5 -97.5t-16 -60.5q0 -13 12 -13q9 0 21.5 9t25.5 21t24 23.5t16 16.5l19 -22q-55 -67 -99 -102.5t-92 -35.5q-20 0 -32.5 13t-12.5 34q0 18 14 63.5t31.5 95t31.5 91t14 51.5q0 25 -25 25q-20 0 -48 -25.5t-56 -60.5
t-51.5 -70.5t-34.5 -54.5q-22 -41 -33.5 -70t-19 -47t-14.5 -26.5t-20 -8.5q-37 0 -53 2.5t-16 12.5q0 7 4 19.5t10 31.5zM312 560l131 136q22 22 34.5 31t25.5 9q17 0 29.5 -12.5t12.5 -31.5q0 -16 -16 -28t-51 -33l-122 -71h-44z" />
    <glyph glyph-name="icircumflex" unicode="&#xd3;" horiz-adv-x="315" 
d="M265 145l19 -22q-55 -67 -99 -102.5t-92 -35.5q-20 0 -32.5 13t-12.5 34q0 18 14 64t31.5 96t31.5 93t14 56q0 9 -3 16t-12 7t-19.5 -7t-20.5 -17t-19.5 -20.5t-16.5 -17.5l-20 24q14 16 36.5 40t48 45.5t52.5 37t49 15.5q25 0 40 -10t15 -43q0 -19 -16 -66t-35.5 -99
t-35.5 -97.5t-16 -60.5q0 -13 12 -13q9 0 21.5 9t25.5 21t24 23.5t16 16.5zM71 560l159 170h67l88 -170h-45l-86 99l-133 -99h-50z" />
    <glyph glyph-name="dcaron" unicode="&#xd4;" horiz-adv-x="668" 
d="M140 127q0 -31 10.5 -49.5t42.5 -18.5q42 0 78.5 31.5t64 78t43.5 98t16 92.5q0 35 -11 51t-45 16q-41 0 -77.5 -34t-63.5 -81t-42.5 -98t-15.5 -86zM419 446l48 234l-66 31l5 18q43 4 93.5 14.5t83.5 20.5l11 -7l-144 -615q-2 -8 -4.5 -20.5t-2.5 -20.5q0 -16 15 -16
q8 0 20.5 8.5t25 20t24.5 23t18 17.5l18 -23q-16 -18 -37.5 -43t-46.5 -48t-51.5 -39t-51.5 -16q-27 0 -36.5 14.5t-9.5 33.5q0 17 6 44t15 61h-2q-15 -27 -38.5 -54t-52 -49t-61 -36t-65.5 -14q-53 0 -79 36.5t-26 94.5q0 52 28.5 112.5t74 113t102 87.5t113.5 35
q38 0 73 -18zM606 546l-7 23q14 1 33 6.5t36.5 14.5t29.5 22t12 29q0 17 -10 21.5t-22.5 8.5t-22.5 13t-10 34q0 22 15 36t37 14q37 0 54 -22.5t17 -56.5q0 -36 -16.5 -62t-40.5 -43t-52.5 -26t-52.5 -12z" />
    <glyph glyph-name="Iacute" unicode="&#xd5;" horiz-adv-x="352" 
d="M102 668l4 30q40 -1 80 -2.5t80 -1.5q35 0 71.5 1.5t74.5 2.5l-5 -30q-44 -1 -64.5 -8t-27.5 -43l-84 -445q-10 -52 -13 -73t-3 -32q0 -25 18.5 -30.5t61.5 -6.5l-4 -30q-33 1 -72 2.5t-79 1.5q-35 0 -71.5 -1.5t-76.5 -2.5l5 30q23 0 39 1.5t27 8t18 19t11 35.5l81 431
q10 53 13 74t3 32q0 25 -21.5 30.5t-65.5 6.5zM204 745l131 136q22 23 34.5 31.5t25.5 8.5q17 0 29.5 -12.5t12.5 -31.5q0 -17 -16 -28.5t-51 -32.5l-122 -71h-44z" />
    <glyph glyph-name="ellipsis" unicode="&#xd6;" horiz-adv-x="1000" 
d="M132 133q29 0 51.5 -22.5t22.5 -51.5t-22.5 -51.5t-51.5 -22.5t-51.5 22.5t-22.5 51.5t22.5 51.5t51.5 22.5zM465 133q29 0 51.5 -22.5t22.5 -51.5t-22.5 -51.5t-51.5 -22.5t-51.5 22.5t-22.5 51.5t22.5 51.5t51.5 22.5zM798 133q29 0 51.5 -22.5t22.5 -51.5t-22.5 -51.5
t-51.5 -22.5t-51.5 22.5t-22.5 51.5t22.5 51.5t51.5 22.5z" />
    <glyph glyph-name="Zdotaccent" unicode="&#xd8;" horiz-adv-x="685" 
d="M191 50h228q46 0 78 8.5t54.5 26t38 43.5t28.5 60h31q-13 -47 -25 -94t-23 -94q-66 1 -134.5 2.5t-149.5 1.5q-96 0 -166 -2t-133 -2q-4 0 -4 6v3q0 2 2 5.5t10 13.5l484 626h-191q-74 0 -116.5 -26t-64.5 -96h-34q11 38 23.5 81.5t22.5 84.5q68 -1 135 -2.5t135 -1.5
t135 1.5t135 2.5v-12zM435 881q23 0 39.5 -16.5t16.5 -39.5t-16.5 -39.5t-39.5 -16.5t-39.5 16.5t-16.5 39.5t16.5 39.5t39.5 16.5z" />
    <glyph glyph-name="ocircumflex" unicode="&#xd9;" horiz-adv-x="537" 
d="M230 23q45 0 76.5 34t51 81.5t28 97.5t8.5 83q0 19 -2.5 38.5t-11 34.5t-24.5 24.5t-42 9.5q-44 0 -75.5 -32t-51 -77.5t-28.5 -95t-9 -84.5q0 -47 15.5 -80.5t64.5 -33.5zM311 464q49 0 86 -15t61 -41.5t36 -61.5t12 -75q0 -55 -19.5 -106.5t-55.5 -91.5t-86 -64
t-111 -24q-46 0 -82.5 16t-61.5 43t-38.5 61.5t-13.5 72.5q0 61 22.5 113t60 90.5t87 60.5t103.5 22zM182 560l159 170h67l88 -170h-45l-86 99l-133 -99h-50z" />
    <glyph glyph-name="ncaron" unicode="&#xda;" horiz-adv-x="574" 
d="M48 61l77 234q5 16 9 28.5t4 20.5q0 5 -3 9.5t-11 4.5q-7 0 -18 -7t-22.5 -17t-21.5 -19t-15 -14l-19 20q15 16 36 40.5t45.5 47t50 39t49.5 16.5q47 0 47 -50q0 -15 -8 -41.5t-18.5 -56t-21 -57t-14.5 -43.5l2 -2q17 28 50.5 70.5t73.5 82.5t82.5 68.5t77.5 28.5
q25 0 40 -10t15 -43q0 -19 -16 -66t-35.5 -99t-35.5 -97.5t-16 -60.5q0 -13 12 -13q9 0 21.5 9t25.5 21t24 23.5t16 16.5l19 -22q-55 -67 -99 -102.5t-92 -35.5q-20 0 -32.5 13t-12.5 34q0 18 14 63.5t31.5 95t31.5 91t14 51.5q0 25 -25 25q-20 0 -48 -25.5t-56 -60.5
t-51.5 -70.5t-34.5 -54.5q-22 -41 -33.5 -70t-19 -47t-14.5 -26.5t-20 -8.5q-37 0 -53 2.5t-16 12.5q0 7 4 19.5t10 31.5zM561 730l-159 -170h-67l-88 170h45l86 -99l133 99h50z" />
    <glyph glyph-name="oacute" unicode="&#xdb;" horiz-adv-x="537" 
d="M230 23q45 0 76.5 34t51 81.5t28 97.5t8.5 83q0 19 -2.5 38.5t-11 34.5t-24.5 24.5t-42 9.5q-44 0 -75.5 -32t-51 -77.5t-28.5 -95t-9 -84.5q0 -47 15.5 -80.5t64.5 -33.5zM311 464q49 0 86 -15t61 -41.5t36 -61.5t12 -75q0 -55 -19.5 -106.5t-55.5 -91.5t-86 -64
t-111 -24q-46 0 -82.5 16t-61.5 43t-38.5 61.5t-13.5 72.5q0 61 22.5 113t60 90.5t87 60.5t103.5 22zM274 560l131 136q22 22 34.5 31t25.5 9q17 0 29.5 -12.5t12.5 -31.5q0 -16 -16 -28t-51 -33l-122 -71h-44z" />
    <glyph glyph-name="dagger" unicode="&#xdc;" 
d="M344 396l-24 -118q-23 -117 -43.5 -234.5t-40.5 -236.5q-21 3 -43 3q-24 0 -48 -3q29 119 55.5 238t49.5 233l24 118h-58q-34 0 -67.5 -2t-67.5 -4q4 17 7.5 34.5t4.5 34.5q17 -1 39 -2t45 -3q22 -1 41 -1.5t30 -0.5h36q13 60 23 121.5t16 124.5q24 -3 47 -3q21 0 44 3
q-17 -62 -31.5 -123.5t-28.5 -122.5h28q11 0 32 0.5t45 1.5t47.5 2.5t40.5 2.5q-7 -17 -9 -35t-3 -34q-35 2 -69 4t-68 2h-54z" />
    <glyph glyph-name="section" unicode="&#xdf;" 
d="M129 431q0 53 24.5 103.5t64.5 90.5t90 64t101 24q41 0 76 -18t35 -51q0 -16 -11 -30t-39 -14q-19 0 -28 11.5t-16.5 26t-17 26t-29.5 11.5q-22 0 -35.5 -10.5t-21.5 -26.5t-11 -35.5t-3 -38.5q0 -55 22 -114t48 -118t48 -116t22 -109q0 -62 -27 -117t-70.5 -95.5
t-99 -64t-112.5 -23.5q-40 0 -71.5 18.5t-31.5 49.5q0 17 15.5 32t32.5 15q19 0 29.5 -12t19.5 -26.5t19 -26.5t27 -12q26 0 43 13.5t27.5 33.5t15 44.5t4.5 45.5q0 54 -22 109.5t-48 112t-48 113.5t-22 114zM191 442q0 -48 21 -102.5t46 -110t46 -110.5t21 -103
q0 -40 -8.5 -62t-18.5 -47h2q20 14 36 35.5t27 46.5t17 51t6 48q0 56 -21 111t-46 110t-46 109.5t-21 108.5q0 41 9 64.5t11 29.5h-2q-32 -24 -55.5 -73.5t-23.5 -105.5z" />
    <glyph glyph-name="daggerdbl" unicode="&#xe1;" 
d="M282 379l10 51h-53q-36 0 -71.5 -2.5t-71.5 -4.5q9 32 15 70q35 -4 70 -5.5t69 -1.5h52q10 52 17.5 104t12.5 108q21 -3 43 -3q23 0 47 3q-15 -54 -28.5 -107t-24.5 -105h53q36 0 71.5 1.5t71.5 5.5q-9 -32 -15 -70q-35 2 -70.5 4.5t-69.5 2.5h-51q-7 -40 -14 -84.5
t-10 -92.5q-10 -29 -19 -59t-18 -68l-10 -51h53q36 0 71.5 2.5t71.5 4.5q-9 -32 -15 -70q-35 4 -70 5.5t-69 1.5h-52q-10 -52 -17.5 -104.5t-12.5 -107.5q-21 3 -43 3q-23 0 -47 -3q15 54 28.5 107t24.5 105h-53q-36 0 -71.5 -1.5t-71.5 -5.5q9 32 15 70q35 -2 70.5 -4.5
t69.5 -2.5h51q7 41 14 85t10 93q10 29 19 58.5t18 67.5z" />
    <glyph glyph-name="perthousand" unicode="&#xe2;" horiz-adv-x="1000" 
d="M69 514q0 34 13 68.5t35.5 61.5t53.5 44t68 17q55 0 92 -33.5t37 -94.5q0 -35 -13 -69t-35.5 -61t-53.5 -44t-68 -17q-56 0 -92.5 33.5t-36.5 94.5zM153 479q0 -22 8 -42.5t34 -20.5q25 0 42 24.5t27.5 57t15 65t4.5 49.5q0 22 -8 42.5t-34 20.5q-25 0 -42 -24.5
t-27.5 -57t-15 -65t-4.5 -49.5zM337 113q0 35 13 69t35.5 61t53.5 44t68 17q55 0 92 -33.5t37 -94.5q0 -34 -13 -68.5t-35.5 -61.5t-53.5 -44t-68 -17q-56 0 -92.5 33.5t-36.5 94.5zM421 78q0 -22 8 -42.5t34 -20.5q25 0 42 24.5t27.5 57t15 65t4.5 49.5q0 22 -8 42.5
t-34 20.5q-25 0 -42 -24.5t-27.5 -57t-15 -65t-4.5 -49.5zM677 113q0 35 13 69t35.5 61t53.5 44t68 17q55 0 92 -33.5t37 -94.5q0 -34 -13 -68.5t-35.5 -61.5t-53.5 -44t-68 -17q-56 0 -92.5 33.5t-36.5 94.5zM761 78q0 -22 8 -42.5t34 -20.5q25 0 42 24.5t27.5 57t15 65
t4.5 49.5q0 22 -8 42.5t-34 20.5q-25 0 -42 -24.5t-27.5 -57t-15 -65t-4.5 -49.5zM102 -30l440 750h53l-440 -750h-53z" />
    <glyph glyph-name="guilsinglleft" unicode="&#xe3;" horiz-adv-x="333" 
d="M220 68l-168 170l225 170l15 -19l-140 -151l89 -156z" />
    <glyph glyph-name="Scaron" unicode="&#xe4;" horiz-adv-x="538" 
d="M494 518l-32 -4q1 8 1.5 19t0.5 27q0 20 -6 40t-20 37t-36.5 27.5t-56.5 10.5q-54 0 -84 -28t-30 -83q0 -26 18 -52t45 -54t58 -58t58 -63.5t45 -70.5t18 -79q0 -49 -18.5 -87t-50 -63.5t-75 -38.5t-92.5 -13q-22 0 -44 4.5t-41.5 10.5t-35.5 12.5t-25 10.5l-39 -23
l-18 2q8 47 14.5 104.5t10.5 97.5l30 2q0 -35 9 -68t26.5 -58.5t43.5 -41t61 -15.5q24 0 47.5 5.5t42.5 19t30.5 36.5t11.5 57q0 32 -17 61t-42.5 57t-55.5 56.5t-55.5 59.5t-42.5 66t-17 77q0 48 18 84.5t48 61t68.5 37t78.5 12.5q41 0 68 -7t41 -12q19 -7 29 -7
q13 0 17 12l24 -2q-9 -44 -16.5 -89t-12.5 -90zM557 915l-159 -170h-67l-88 170h45l86 -99l133 99h50z" />
    <glyph glyph-name="Sacute" unicode="&#xe5;" horiz-adv-x="538" 
d="M494 518l-32 -4q1 8 1.5 19t0.5 27q0 20 -6 40t-20 37t-36.5 27.5t-56.5 10.5q-54 0 -84 -28t-30 -83q0 -26 18 -52t45 -54t58 -58t58 -63.5t45 -70.5t18 -79q0 -49 -18.5 -87t-50 -63.5t-75 -38.5t-92.5 -13q-22 0 -44 4.5t-41.5 10.5t-35.5 12.5t-25 10.5l-39 -23
l-18 2q8 47 14.5 104.5t10.5 97.5l30 2q0 -35 9 -68t26.5 -58.5t43.5 -41t61 -15.5q24 0 47.5 5.5t42.5 19t30.5 36.5t11.5 57q0 32 -17 61t-42.5 57t-55.5 56.5t-55.5 59.5t-42.5 66t-17 77q0 48 18 84.5t48 61t68.5 37t78.5 12.5q41 0 68 -7t41 -12q19 -7 29 -7
q13 0 17 12l24 -2q-9 -44 -16.5 -89t-12.5 -90zM294 745l131 136q22 23 34.5 31.5t25.5 8.5q17 0 29.5 -12.5t12.5 -31.5q0 -17 -16 -28.5t-51 -32.5l-122 -71h-44z" />
    <glyph glyph-name="lcaron" unicode="&#xe6;" horiz-adv-x="400" 
d="M72 172l123 506l-63 33l5 18q19 1 44 4.5t49.5 9t46.5 11t37 10.5l12 -11q-14 -46 -31.5 -109t-31.5 -121l-96 -381q-3 -13 -6 -26.5t-3 -21.5q0 -7 3.5 -13t11.5 -6q15 0 40.5 22.5t51.5 50.5l19 -20q-38 -42 -65.5 -70t-49 -44t-38.5 -22.5t-35 -6.5q-32 0 -41 17
t-9 39q0 19 8.5 56t17.5 75zM337 546l-7 23q14 1 33 6.5t36.5 14.5t29.5 22t12 29q0 17 -10 21.5t-22.5 8.5t-22.5 13t-10 34q0 22 15 36t37 14q38 0 54.5 -22.5t16.5 -56.5q0 -36 -16.5 -62t-40.5 -43t-52.5 -26t-52.5 -12z" />
    <glyph glyph-name="Tcaron" unicode="&#xe7;" horiz-adv-x="667" 
d="M134 0l5 30h24q25 0 39 4.5t22.5 15t12.5 28t9 44.5l97 532h-88q-30 0 -54.5 -4.5t-45 -18.5t-35.5 -39t-25 -67h-32q11 48 21.5 96.5t19.5 97.5h24q1 -10 10.5 -15.5t35.5 -5.5h446q24 0 46.5 2.5t31.5 18.5h27q-7 -48 -13.5 -96.5t-9.5 -97.5h-32q1 12 1.5 24t0.5 26
q0 54 -35 66.5t-98 12.5h-68l-100 -543q-5 -25 -5 -46q0 -22 17.5 -28.5t37.5 -6.5h36l-4 -30q-40 1 -79.5 2.5t-79.5 1.5t-80 -1t-80 -3zM613 915l-159 -170h-67l-88 170h45l86 -99l133 99h50z" />
    <glyph glyph-name="Zacute" unicode="&#xe8;" horiz-adv-x="685" 
d="M191 50h228q46 0 78 8.5t54.5 26t38 43.5t28.5 60h31q-13 -47 -25 -94t-23 -94q-66 1 -134.5 2.5t-149.5 1.5q-96 0 -166 -2t-133 -2q-4 0 -4 6v3q0 2 2 5.5t10 13.5l484 626h-191q-74 0 -116.5 -26t-64.5 -96h-34q11 38 23.5 81.5t22.5 84.5q68 -1 135 -2.5t135 -1.5
t135 1.5t135 2.5v-12zM374 745l131 136q22 23 34.5 31.5t25.5 8.5q17 0 29.5 -12.5t12.5 -31.5q0 -17 -16 -28.5t-51 -32.5l-122 -71h-44z" />
    <glyph glyph-name="Zcaron" unicode="&#xe9;" horiz-adv-x="685" 
d="M191 50h228q46 0 78 8.5t54.5 26t38 43.5t28.5 60h31q-13 -47 -25 -94t-23 -94q-66 1 -134.5 2.5t-149.5 1.5q-96 0 -166 -2t-133 -2q-4 0 -4 6v3q0 2 2 5.5t10 13.5l484 626h-191q-74 0 -116.5 -26t-64.5 -96h-34q11 38 23.5 81.5t22.5 84.5q68 -1 135 -2.5t135 -1.5
t135 1.5t135 2.5v-12zM603 915l-159 -170h-67l-88 170h45l86 -99l133 99h50z" />
    <glyph glyph-name="quoteleft" unicode="&#xeb;" horiz-adv-x="278" 
d="M313 698l9 -30q-16 -1 -41 -8t-48 -18.5t-39.5 -27.5t-16.5 -36q0 -22 13 -29t29 -12.5t29 -17t13 -43.5q0 -27 -21.5 -43.5t-46.5 -16.5q-49 0 -70.5 27t-21.5 73q0 41 19 73.5t49 55.5t68 36.5t76 16.5z" />
    <glyph glyph-name="quotedblleft" unicode="&#xec;" horiz-adv-x="519" 
d="M319 698l9 -30q-16 -1 -41 -8t-48 -18.5t-39.5 -27.5t-16.5 -36q0 -22 13 -29t29 -12.5t29 -17t13 -43.5q0 -27 -21.5 -43.5t-46.5 -16.5q-49 0 -70.5 27t-21.5 73q0 41 19 73.5t49 55.5t68 36.5t76 16.5zM542 698l9 -30q-17 -1 -41.5 -8t-47.5 -18.5t-39.5 -27.5
t-16.5 -36q0 -22 13 -29t29 -12.5t29 -17t13 -43.5q0 -27 -21 -43.5t-47 -16.5q-49 0 -70.5 27t-21.5 73q0 41 19 73.5t49 55.5t68 36.5t76 16.5z" />
    <glyph glyph-name="quoteright" unicode="&#xed;" horiz-adv-x="278" 
d="M78 416l-9 30q17 1 41.5 8t47.5 18.5t39.5 27.5t16.5 36q0 22 -13 29t-29 12.5t-29 17t-13 43.5q0 27 21 43.5t47 16.5q49 0 70.5 -27t21.5 -73q0 -41 -19 -73.5t-49 -55.5t-68 -36.5t-76 -16.5z" />
    <glyph glyph-name="quotedblright" unicode="&#xee;" horiz-adv-x="519" 
d="M90 416l-9 30q17 1 41.5 8t47.5 18.5t39.5 27.5t16.5 36q0 22 -13 29t-29 12.5t-29 17t-13 43.5q0 27 21 43.5t47 16.5q49 0 70.5 -27t21.5 -73q0 -41 -19 -73.5t-49 -55.5t-68 -36.5t-76 -16.5zM313 416l-9 30q16 1 41 8t48 18.5t39.5 27.5t16.5 36q0 22 -13 29
t-29 12.5t-29 17t-13 43.5q0 27 21.5 43.5t46.5 16.5q49 0 70.5 -27t21.5 -73q0 -41 -19 -73.5t-49 -55.5t-68 -36.5t-76 -16.5z" />
    <glyph glyph-name="bullet" unicode="&#xef;" horiz-adv-x="500" 
d="M91 349q0 36 13.5 68t37 55.5t55 37t68.5 13.5q36 0 68 -13.5t56 -37t37.5 -55.5t13.5 -68t-13.5 -68t-37.5 -56t-56 -37.5t-68 -13.5t-68 13.5t-55.5 37t-37 55.5t-13.5 69z" />
    <glyph glyph-name="endash" unicode="&#xf1;" horiz-adv-x="500" 
d="M0 198l12 80h500l-12 -80h-500z" />
    <glyph glyph-name="emdash" unicode="&#xf3;" horiz-adv-x="1000" 
d="M130 198l12 80h740l-12 -80h-740z" />
    <glyph glyph-name="trademark" unicode="&#xf4;" horiz-adv-x="1000" 
d="M131 294v24q38 2 45 9.5t7 37.5v309h-48q-30 0 -44.5 -19t-19.5 -45h-24v88h362v-88h-24q-5 26 -20 45t-45 19h-47v-309q0 -30 7 -37.5t45 -9.5v-24h-194zM803 294v24q37 2 44 9.5t7 37.5v221h-2l-148 -292h-13l-140 292h-2v-200q0 -38 8.5 -52t43.5 -16v-24h-133v24
q34 2 42.5 16t8.5 52v237q-10 24 -28.5 37.5t-40.5 13.5v24h139l142 -289l151 289h118v-24q-35 0 -45.5 -11.5t-10.5 -35.5v-262q0 -30 7.5 -37.5t48.5 -9.5v-24h-197z" />
    <glyph glyph-name="guilsinglright" unicode="&#xf5;" horiz-adv-x="333" 
d="M124 408l168 -170l-225 -170l-15 19l140 151l-89 156z" />
    <glyph glyph-name="scaron" unicode="&#xf6;" horiz-adv-x="389" 
d="M345 339h-23q-10 32 -38 44.5t-57 12.5q-35 0 -56 -9t-21 -30q0 -17 16.5 -34t44.5 -35l68 -43q31 -20 47 -38.5t16 -56.5q0 -24 -15 -52.5t-41 -53.5t-63 -42t-80 -17q-24 0 -48.5 5t-44 15.5t-32 26t-12.5 37.5q0 23 5 36t27 37h19q5 -27 22.5 -43.5t39.5 -25t44 -11.5
t35 -3q34 0 55 8t21 32q0 13 -9 26t-52 41l-87 57q-28 18 -40 41.5t-12 42.5q0 29 18 54.5t40.5 44.5t43 31t24.5 14q26 13 67 13q17 0 35 -2t33 -8.5t24.5 -19t9.5 -34.5q0 -17 -8.5 -34t-15.5 -27zM469 730l-159 -170h-67l-88 170h45l86 -99l133 99h50z" />
    <glyph glyph-name="Odieresis" unicode="&#xf7;" horiz-adv-x="852" 
d="M686 414q0 46 -9 93t-32.5 84t-64 60.5t-102.5 23.5q-73 0 -124.5 -39t-84.5 -96.5t-48 -125t-15 -124.5q0 -46 9 -93.5t32.5 -86t64 -63t102.5 -24.5q64 0 115 32.5t85.5 86.5t53 125t18.5 147zM824 390q0 -87 -32.5 -161t-88.5 -128.5t-130 -85t-157 -30.5t-147.5 24
t-109 67t-68 102.5t-23.5 129.5q0 94 32.5 169t88.5 127.5t130.5 80.5t158.5 28q82 0 146.5 -25.5t108.5 -69.5t67.5 -102.5t23.5 -125.5zM632 881q22 0 39 -16.5t17 -39.5t-17 -39.5t-39 -16.5t-39 16.5t-17 39.5t17 39.5t39 16.5zM421 881q23 0 39.5 -16.5t16.5 -39.5
t-16.5 -39.5t-39.5 -16.5t-39.5 16.5t-16.5 39.5t16.5 39.5t39.5 16.5z" />
    <glyph glyph-name="zdotaccent" unicode="&#xf8;" horiz-adv-x="463" 
d="M38 68l290 280l-2 2q-15 -6 -41 -6q-23 0 -44 7t-39.5 16t-34 16t-27.5 7q-16 0 -24 -10t-8 -20t4 -17t4 -17q0 -13 -9 -19t-22 -6q-25 0 -25 30q0 23 17 46.5t66 64.5q11 9 26 15.5t29 6.5q23 0 48.5 -10t50 -22t46 -22t36.5 -10q6 0 11.5 4.5t5.5 14.5q0 6 -1 13t-1 17
q0 9 7.5 17t21.5 8q11 0 19 -6t8 -18q0 -20 -14 -37t-36 -39l-260 -257h10q27 0 55.5 -16.5t55.5 -37t51 -37t41 -16.5q15 0 23 10t8 20q0 7 -5 12t-10.5 10t-10.5 10.5t-5 14.5q0 11 8 18t19 7q22 0 31 -16t9 -35q0 -21 -11 -44t-28 -42.5t-38 -32t-42 -12.5
q-33 0 -61 20.5t-53.5 45t-49.5 45t-49 20.5t-25 -19q0 -4 1.5 -10.5t1.5 -16.5q0 -11 -7.5 -20.5t-21.5 -9.5q-16 0 -21.5 9.5t-5.5 20.5q0 17 8.5 30t19.5 23zM318 696q22 0 39 -16.5t17 -39.5t-17 -39.5t-39 -16.5t-39 16.5t-17 39.5t17 39.5t39 16.5z" />
    <glyph glyph-name="tcaron" unicode="&#xf9;" horiz-adv-x="355" 
d="M46 399l13 50h105l43 142h104l-42 -142h117l-12 -50h-119l-69 -230q-4 -13 -10 -34t-6 -32q0 -18 21 -18q13 0 26.5 8t27 19.5t25.5 24t23 21.5l18 -21q-15 -16 -38.5 -41.5t-51 -50t-57 -42.5t-57.5 -18q-33 0 -44 18.5t-11 38.5q0 13 3.5 31.5t9 39t11.5 40.5t10 35
l63 211h-103zM324 496l-6 20q12 1 28.5 5.5t31 12.5t25 19t10.5 24q0 14 -8.5 18.5t-19 8t-19 11t-8.5 28.5q0 19 12.5 31t31.5 12q32 0 46.5 -19.5t14.5 -48.5q0 -31 -14 -53t-35 -36.5t-45 -22.5t-45 -10z" />
    <glyph glyph-name="sacute" unicode="&#xfa;" horiz-adv-x="389" 
d="M345 339h-23q-10 32 -38 44.5t-57 12.5q-35 0 -56 -9t-21 -30q0 -17 16.5 -34t44.5 -35l68 -43q31 -20 47 -38.5t16 -56.5q0 -24 -15 -52.5t-41 -53.5t-63 -42t-80 -17q-24 0 -48.5 5t-44 15.5t-32 26t-12.5 37.5q0 23 5 36t27 37h19q5 -27 22.5 -43.5t39.5 -25t44 -11.5
t35 -3q34 0 55 8t21 32q0 13 -9 26t-52 41l-87 57q-28 18 -40 41.5t-12 42.5q0 29 18 54.5t40.5 44.5t43 31t24.5 14q26 13 67 13q17 0 35 -2t33 -8.5t24.5 -19t9.5 -34.5q0 -17 -8.5 -34t-15.5 -27zM210 560l131 136q22 22 34.5 31t25.5 9q17 0 29.5 -12.5t12.5 -31.5
q0 -16 -16 -28t-51 -33l-122 -71h-44z" />
    <glyph glyph-name="zcaron" unicode="&#xfb;" horiz-adv-x="463" 
d="M38 68l290 280l-2 2q-15 -6 -41 -6q-23 0 -44 7t-39.5 16t-34 16t-27.5 7q-16 0 -24 -10t-8 -20t4 -17t4 -17q0 -13 -9 -19t-22 -6q-25 0 -25 30q0 23 17 46.5t66 64.5q11 9 26 15.5t29 6.5q23 0 48.5 -10t50 -22t46 -22t36.5 -10q6 0 11.5 4.5t5.5 14.5q0 6 -1 13t-1 17
q0 9 7.5 17t21.5 8q11 0 19 -6t8 -18q0 -20 -14 -37t-36 -39l-260 -257h10q27 0 55.5 -16.5t55.5 -37t51 -37t41 -16.5q15 0 23 10t8 20q0 7 -5 12t-10.5 10t-10.5 10.5t-5 14.5q0 11 8 18t19 7q22 0 31 -16t9 -35q0 -21 -11 -44t-28 -42.5t-38 -32t-42 -12.5
q-33 0 -61 20.5t-53.5 45t-49.5 45t-49 20.5t-25 -19q0 -4 1.5 -10.5t1.5 -16.5q0 -11 -7.5 -20.5t-21.5 -9.5q-16 0 -21.5 9.5t-5.5 20.5q0 17 8.5 30t19.5 23zM496 730l-159 -170h-67l-88 170h45l86 -99l133 99h50z" />
    <glyph glyph-name="zacute" unicode="&#xfc;" horiz-adv-x="463" 
d="M38 68l290 280l-2 2q-15 -6 -41 -6q-23 0 -44 7t-39.5 16t-34 16t-27.5 7q-16 0 -24 -10t-8 -20t4 -17t4 -17q0 -13 -9 -19t-22 -6q-25 0 -25 30q0 23 17 46.5t66 64.5q11 9 26 15.5t29 6.5q23 0 48.5 -10t50 -22t46 -22t36.5 -10q6 0 11.5 4.5t5.5 14.5q0 6 -1 13t-1 17
q0 9 7.5 17t21.5 8q11 0 19 -6t8 -18q0 -20 -14 -37t-36 -39l-260 -257h10q27 0 55.5 -16.5t55.5 -37t51 -37t41 -16.5q15 0 23 10t8 20q0 7 -5 12t-10.5 10t-10.5 10.5t-5 14.5q0 11 8 18t19 7q22 0 31 -16t9 -35q0 -21 -11 -44t-28 -42.5t-38 -32t-42 -12.5
q-33 0 -61 20.5t-53.5 45t-49.5 45t-49 20.5t-25 -19q0 -4 1.5 -10.5t1.5 -16.5q0 -11 -7.5 -20.5t-21.5 -9.5q-16 0 -21.5 9.5t-5.5 20.5q0 17 8.5 30t19.5 23zM237 560l131 136q22 22 34 31t26 9q17 0 29.5 -12.5t12.5 -31.5q0 -16 -16 -28t-51 -33l-122 -71h-44z" />
    <glyph glyph-name="Rcaron" unicode="&#xff;" horiz-adv-x="685" 
d="M317 660l-49 -286q10 -2 21.5 -2h24.5q72 0 112.5 50t40.5 130q0 46 -24 77t-81 31h-45zM-8 0l5 30q23 0 39 1.5t27 8t18 19t11 35.5l85 457q4 19 6.5 38t2.5 30q0 26 -19 37.5t-72 11.5l5 30q34 -1 69 -2.5t69 -1.5q40 0 77 2t91 2q34 0 69.5 -6.5t64 -23.5t47 -46
t18.5 -74q0 -44 -16 -76.5t-42.5 -56.5t-61.5 -39.5t-72 -24.5q28 -29 47.5 -58.5t44.5 -73.5l55 -94q29 -49 51.5 -72t58.5 -23h16l-4 -30q-26 1 -53 2.5t-53 1.5q-20 0 -40.5 -1.5t-40.5 -2.5q-59 81 -105 169.5t-102 171.5l-26 2l-42 -234q-2 -10 -3.5 -19.5t-1.5 -19.5
q0 -20 12.5 -30t47.5 -10h33l-4 -30q-40 1 -79 2.5t-79 1.5q-38 0 -77 -1.5t-77 -2.5zM573 915l-159 -170h-67l-88 170h45l86 -99l133 99h50z" />
    <glyph glyph-name="ohungarumlaut" unicode="&#x131;" horiz-adv-x="537" 
d="M230 23q45 0 76.5 34t51 81.5t28 97.5t8.5 83q0 19 -2.5 38.5t-11 34.5t-24.5 24.5t-42 9.5q-44 0 -75.5 -32t-51 -77.5t-28.5 -95t-9 -84.5q0 -47 15.5 -80.5t64.5 -33.5zM311 464q49 0 86 -15t61 -41.5t36 -61.5t12 -75q0 -55 -19.5 -106.5t-55.5 -91.5t-86 -64
t-111 -24q-46 0 -82.5 16t-61.5 43t-38.5 61.5t-13.5 72.5q0 61 22.5 113t60 90.5t87 60.5t103.5 22zM174 560l131 136q22 22 34.5 31t25.5 9q17 0 29.5 -12.5t12.5 -31.5q0 -16 -16 -28t-51 -33l-122 -71h-44zM374 560l131 136q22 22 34.5 31t25.5 9q17 0 29.5 -12.5
t12.5 -31.5q0 -16 -16 -28t-51 -33l-122 -71h-44z" />
    <glyph glyph-name="Icircumflex" unicode="&#x152;" horiz-adv-x="352" 
d="M102 668l4 30q40 -1 80 -2.5t80 -1.5q35 0 71.5 1.5t74.5 2.5l-5 -30q-44 -1 -64.5 -8t-27.5 -43l-84 -445q-10 -52 -13 -73t-3 -32q0 -25 18.5 -30.5t61.5 -6.5l-4 -30q-33 1 -72 2.5t-79 1.5q-35 0 -71.5 -1.5t-76.5 -2.5l5 30q23 0 39 1.5t27 8t18 19t11 35.5l81 431
q10 53 13 74t3 32q0 25 -21.5 30.5t-65.5 6.5zM112 745l159 170h67l88 -170h-45l-86 99l-133 -99h-50z" />
    <glyph glyph-name="Dcaron" unicode="&#x153;" horiz-adv-x="778" 
d="M-8 0l5 30q23 0 39 1.5t27 8t18 19t11 35.5l89 474q2 11 4 24.5t2 26.5q0 29 -20 39t-54 10h-17l4 30q34 -1 69.5 -2.5t77.5 -1.5q45 0 94.5 2t91.5 2q75 0 136 -24t104 -65t66.5 -96.5t23.5 -118.5q0 -103 -36 -177.5t-94.5 -122.5t-132 -71t-149.5 -23q-41 0 -73 0.5
t-58 1.5t-47.5 1.5t-42.5 0.5q-34 0 -69 -1.5t-69 -2.5zM321 658l-98 -534q-1 -10 -3 -22t-2 -23q0 -14 9 -22.5t23.5 -12.5t32 -5t34.5 -1q70 0 126.5 28t97 76.5t62.5 115t22 143.5q0 117 -61.5 188t-182.5 71q-15 0 -30 -0.5t-30 -1.5zM633 915l-159 -170h-67l-88 170h45
l86 -99l133 99h50z" />
    <glyph glyph-name="Uring" unicode="&#x178;" horiz-adv-x="722" 
d="M800 698l-4 -30q-56 0 -74.5 -18t-27.5 -64l-76 -404q-12 -62 -40 -100t-65.5 -60t-80.5 -29.5t-84 -7.5q-49 0 -94 10t-79.5 32.5t-55 58.5t-20.5 89q0 32 4.5 63.5t7.5 47.5l46 239q11 53 13.5 74t2.5 32q0 25 -21.5 30.5t-65.5 6.5l4 30q40 -1 80 -2.5t80 -1.5
q35 0 71.5 1.5t74.5 2.5l-5 -30q-44 -1 -64.5 -8t-27.5 -43l-70 -390q-4 -21 -5 -35.5t-1 -29.5q0 -68 39.5 -97.5t96.5 -29.5q56 0 95 12.5t65.5 38t41.5 64.5t23 92l46 302q8 48 8 78q0 20 -17.5 33t-66.5 13l4 30q29 -1 59 -2.5t59 -1.5q31 0 62 1.5t62 2.5zM484 933
q41 0 72 -31t31 -72q0 -42 -31 -72.5t-72 -30.5q-42 0 -72.5 30.5t-30.5 72.5q0 41 30.5 72t72.5 31zM484 889q-25 0 -42 -17.5t-17 -41.5q0 -25 17 -42t42 -17q24 0 41.5 17t17.5 42q0 24 -17.5 41.5t-41.5 17.5z" />
    <glyph glyph-name="Adieresis" unicode="&#x192;" horiz-adv-x="685" 
d="M-57 0l5 30h12q38 0 58.5 16t43.5 57l282 495q14 23 31.5 53.5t33.5 59.5l54 15l14 -8q7 -43 14 -85t15 -85l73 -418q5 -26 9 -44.5t12.5 -31t22.5 -18.5t38 -6h23l-5 -30q-37 1 -75 2.5t-75 1.5q-38 0 -76 -1.5t-76 -2.5l5 30h25q33 0 43 7.5t10 24.5q0 8 -2 20.5
t-4 25.5l-20 134h-235l-64 -124q-7 -13 -14 -29.5t-7 -31.5q0 -16 19.5 -21.5t45.5 -5.5h21l-4 -30q-32 1 -64 2.5t-63 1.5t-63 -2t-63 -2zM426 292l-47 274h-2l-150 -274h199zM562 881q22 0 39 -16.5t17 -39.5t-17 -39.5t-39 -16.5t-39 16.5t-17 39.5t17 39.5t39 16.5z
M351 881q23 0 39.5 -16.5t16.5 -39.5t-16.5 -39.5t-39.5 -16.5t-39.5 16.5t-16.5 39.5t16.5 39.5t39.5 16.5z" />
    <glyph glyph-name="odieresis" unicode="&#x2c6;" horiz-adv-x="537" 
d="M230 23q45 0 76.5 34t51 81.5t28 97.5t8.5 83q0 19 -2.5 38.5t-11 34.5t-24.5 24.5t-42 9.5q-44 0 -75.5 -32t-51 -77.5t-28.5 -95t-9 -84.5q0 -47 15.5 -80.5t64.5 -33.5zM311 464q49 0 86 -15t61 -41.5t36 -61.5t12 -75q0 -55 -19.5 -106.5t-55.5 -91.5t-86 -64
t-111 -24q-46 0 -82.5 16t-61.5 43t-38.5 61.5t-13.5 72.5q0 61 22.5 113t60 90.5t87 60.5t103.5 22zM462 696q22 0 39 -16.5t17 -39.5t-17 -39.5t-39 -16.5t-39 16.5t-17 39.5t17 39.5t39 16.5zM251 696q23 0 39.5 -16.5t16.5 -39.5t-16.5 -39.5t-39.5 -16.5t-39.5 16.5
t-16.5 39.5t16.5 39.5t39.5 16.5z" />
    <glyph glyph-name="dotaccent" unicode="&#x2c7;" horiz-adv-x="278" 
d="M225 696q23 0 39.5 -16.5t16.5 -39.5t-16.5 -39.5t-39.5 -16.5t-39.5 16.5t-16.5 39.5t16.5 39.5t39.5 16.5z" />
    <glyph glyph-name="uring" unicode="&#x2d8;" horiz-adv-x="574" 
d="M540 434l-93 -279q-7 -22 -11 -38t-4 -22q0 -20 12 -20q9 0 21.5 9t25.5 21t24 23.5t16 16.5l19 -22q-52 -57 -98 -97.5t-83 -40.5q-25 0 -37 14.5t-12 31.5q0 6 2.5 19t10 40t22 71.5t39.5 115.5l-2 2q-20 -31 -52 -81t-71 -97t-83 -81.5t-88 -34.5q-31 0 -39.5 18
t-8.5 37t14 65.5t30 96.5t30 91.5t14 50.5q0 5 -3 9.5t-11 4.5q-7 0 -18 -7t-22.5 -17t-21.5 -19t-15 -14l-19 20q15 16 37 40.5t47.5 47t52 39t50.5 16.5q47 0 47 -50q0 -28 -14.5 -74.5t-32.5 -94t-32.5 -87.5t-14.5 -55q0 -7 4 -12.5t12 -5.5q16 0 42.5 26.5t53 60
t48.5 65t29 42.5q25 38 42 71.5t29 59t20.5 40t16.5 14.5q6 0 12.5 -3t12.5 -5zM382 748q41 0 72 -31t31 -72q0 -42 -31 -72.5t-72 -30.5q-42 0 -72.5 30.5t-30.5 72.5q0 41 30.5 72t72.5 31zM382 704q-25 0 -42 -17.5t-17 -41.5q0 -25 17 -42t42 -17q24 0 41.5 17t17.5 42
q0 24 -17.5 41.5t-41.5 17.5z" />
    <glyph glyph-name="uacute" unicode="&#x2d9;" horiz-adv-x="574" 
d="M540 434l-93 -279q-7 -22 -11 -38t-4 -22q0 -20 12 -20q9 0 21.5 9t25.5 21t24 23.5t16 16.5l19 -22q-52 -57 -98 -97.5t-83 -40.5q-25 0 -37 14.5t-12 31.5q0 6 2.5 19t10 40t22 71.5t39.5 115.5l-2 2q-20 -31 -52 -81t-71 -97t-83 -81.5t-88 -34.5q-31 0 -39.5 18
t-8.5 37t14 65.5t30 96.5t30 91.5t14 50.5q0 5 -3 9.5t-11 4.5q-7 0 -18 -7t-22.5 -17t-21.5 -19t-15 -14l-19 20q15 16 37 40.5t47.5 47t52 39t50.5 16.5q47 0 47 -50q0 -28 -14.5 -74.5t-32.5 -94t-32.5 -87.5t-14.5 -55q0 -7 4 -12.5t12 -5.5q16 0 42.5 26.5t53 60
t48.5 65t29 42.5q25 38 42 71.5t29 59t20.5 40t16.5 14.5q6 0 12.5 -3t12.5 -5zM296 560l131 136q22 22 34.5 31t25.5 9q17 0 29.5 -12.5t12.5 -31.5q0 -16 -16 -28t-51 -33l-122 -71h-44z" />
    <glyph glyph-name="uhungarumlaut" unicode="&#x2da;" horiz-adv-x="574" 
d="M540 434l-93 -279q-7 -22 -11 -38t-4 -22q0 -20 12 -20q9 0 21.5 9t25.5 21t24 23.5t16 16.5l19 -22q-52 -57 -98 -97.5t-83 -40.5q-25 0 -37 14.5t-12 31.5q0 6 2.5 19t10 40t22 71.5t39.5 115.5l-2 2q-20 -31 -52 -81t-71 -97t-83 -81.5t-88 -34.5q-31 0 -39.5 18
t-8.5 37t14 65.5t30 96.5t30 91.5t14 50.5q0 5 -3 9.5t-11 4.5q-7 0 -18 -7t-22.5 -17t-21.5 -19t-15 -14l-19 20q15 16 37 40.5t47.5 47t52 39t50.5 16.5q47 0 47 -50q0 -28 -14.5 -74.5t-32.5 -94t-32.5 -87.5t-14.5 -55q0 -7 4 -12.5t12 -5.5q16 0 42.5 26.5t53 60
t48.5 65t29 42.5q25 38 42 71.5t29 59t20.5 40t16.5 14.5q6 0 12.5 -3t12.5 -5zM192 560l131 136q22 22 34.5 31t25.5 9q17 0 29.5 -12.5t12.5 -31.5q0 -16 -16 -28t-51 -33l-122 -71h-44zM392 560l131 136q22 22 34.5 31t25.5 9q17 0 29.5 -12.5t12.5 -31.5q0 -16 -16 -28
t-51 -33l-122 -71h-44z" />
    <glyph glyph-name="tcommaaccent" unicode="&#x2db;" horiz-adv-x="333" 
d="M46 399l13 50h105l43 142h104l-42 -142h117l-12 -50h-119l-69 -230q-4 -13 -10 -34t-6 -32q0 -18 21 -18q13 0 26.5 8t27 19.5t25.5 24t23 21.5l18 -21q-15 -16 -38.5 -41.5t-51 -50t-57 -42.5t-57.5 -18q-33 0 -44 18.5t-11 38.5q0 13 3.5 31.5t9 39t11.5 40.5t10 35
l63 211h-103zM-12 -264l-7 23q14 1 33.5 6.5t37 14.5t29.5 22t12 29q0 17 -10 21.5t-22.5 8.5t-22.5 13t-10 34q0 22 15 36t37 14q38 0 54.5 -22.5t16.5 -56.5q0 -36 -16.5 -62t-41 -43t-53 -26t-52.5 -12z" />
    <glyph glyph-name="divide" unicode="&#x2dc;" 
d="M26 207v90h504v-90h-504zM204 460q0 29 22.5 51.5t51.5 22.5t51.5 -22.5t22.5 -51.5t-22.5 -51.5t-51.5 -22.5t-51.5 22.5t-22.5 51.5zM204 44q0 29 22.5 51.5t51.5 22.5t51.5 -22.5t22.5 -51.5t-22.5 -51.5t-51.5 -22.5t-51.5 22.5t-22.5 51.5z" />
    <glyph glyph-name="yacute" unicode="&#x2dd;" horiz-adv-x="519" 
d="M51 287l-15 -6l-24 14q0 27 5 56.5t18 54.5t35 41.5t57 16.5q39 0 64.5 -22t43 -57.5t27.5 -80t18 -88.5l26 -151h2q12 18 29.5 46.5t34.5 60t29 62.5t12 55q0 33 -12 55.5t-12 49.5q0 30 14.5 50t46.5 20q57 0 57 -67q0 -40 -25 -103t-72.5 -140t-115 -163t-152.5 -171
q-27 -27 -49.5 -37.5t-54.5 -10.5q-24 0 -40 10t-16 38q0 32 13 42t24 10q21 0 35.5 -5t41.5 -5q24 0 42.5 10.5t33.5 25.5t27 31t21 27q-2 18 -4 41.5t-5 46.5t-5.5 42.5t-4.5 29.5q-25 136 -54 197t-65 61q-34 0 -34 -49q0 -7 1 -18t2 -20zM265 560l131 136q22 22 34 31
t26 9q17 0 29.5 -12.5t12.5 -31.5q0 -16 -16 -28t-51 -33l-122 -71h-44z" />
    <glyph glyph-name="Cacute" unicode="&#x394;" horiz-adv-x="741" 
d="M663 203l28 -8q-13 -42 -24 -84.5t-19 -85.5q-6 2 -19 2q-11 0 -31 -6.5t-47.5 -14.5t-62 -14.5t-74.5 -6.5q-82 0 -146.5 24t-108.5 67t-67.5 102.5t-23.5 129.5q0 94 32.5 169t88.5 127.5t130.5 80.5t158.5 28q52 0 84 -7t54 -15.5t37.5 -15.5t34.5 -7q8 0 14 6.5
t7 14.5l24 -4q-11 -47 -19.5 -93.5t-13.5 -95.5l-30 4q0 76 -39.5 125.5t-121.5 49.5q-77 0 -133.5 -32.5t-94.5 -85.5t-56.5 -121.5t-18.5 -139.5q0 -56 15 -105.5t42.5 -86.5t67.5 -59t91 -22q88 0 147.5 51.5t93.5 128.5zM424 745l131 136q22 23 34.5 31.5t25.5 8.5
q17 0 29.5 -12.5t12.5 -31.5q0 -17 -16 -28.5t-51 -32.5l-122 -71h-44z" />
    <glyph glyph-name="Cacute" unicode="&#x2206;" horiz-adv-x="741" 
d="M663 203l28 -8q-13 -42 -24 -84.5t-19 -85.5q-6 2 -19 2q-11 0 -31 -6.5t-47.5 -14.5t-62 -14.5t-74.5 -6.5q-82 0 -146.5 24t-108.5 67t-67.5 102.5t-23.5 129.5q0 94 32.5 169t88.5 127.5t130.5 80.5t158.5 28q52 0 84 -7t54 -15.5t37.5 -15.5t34.5 -7q8 0 14 6.5
t7 14.5l24 -4q-11 -47 -19.5 -93.5t-13.5 -95.5l-30 4q0 76 -39.5 125.5t-121.5 49.5q-77 0 -133.5 -32.5t-94.5 -85.5t-56.5 -121.5t-18.5 -139.5q0 -56 15 -105.5t42.5 -86.5t67.5 -59t91 -22q88 0 147.5 51.5t93.5 128.5zM424 745l131 136q22 23 34.5 31.5t25.5 8.5
q17 0 29.5 -12.5t12.5 -31.5q0 -17 -16 -28.5t-51 -32.5l-122 -71h-44z" />
    <glyph glyph-name="hungarumlaut" unicode="&#x3a9;" horiz-adv-x="278" 
d="M44 560l131 136q22 22 34.5 31t25.5 9q17 0 29.5 -12.5t12.5 -31.5q0 -16 -16 -28t-51 -33l-122 -71h-44zM244 560l131 136q22 22 34.5 31t25.5 9q17 0 29.5 -12.5t12.5 -31.5q0 -16 -16 -28t-51 -33l-122 -71h-44z" />
    <glyph glyph-name="aogonek" unicode="&#x3c0;" horiz-adv-x="537" 
d="M118 146q0 -24 8 -47.5t34 -23.5q33 0 69.5 32.5t67.5 77t51 91.5t20 77q0 23 -12 39t-38 16q-39 0 -75.5 -29t-64 -70.5t-44 -86t-16.5 -76.5zM501 152l21 -21q-12 -13 -29 -32t-37.5 -38t-42 -36.5t-42.5 -27.5q-23 -19 -48.5 -45.5t-25.5 -61.5q0 -22 14.5 -39.5
t37.5 -17.5t35.5 6.5t18.5 11.5l16 -18q-16 -15 -42 -29.5t-64 -14.5q-41 0 -66.5 21.5t-25.5 60.5q0 44 28.5 71.5t62.5 47.5q-25 10 -25 40q0 15 5 36t12 43t14.5 41.5t11.5 31.5l-2 2q-15 -27 -42 -61.5t-59.5 -65t-68 -51.5t-69.5 -21q-41 0 -56 28t-15 57
q0 71 36 141.5t87.5 126.5t109 91t101.5 35q21 0 33.5 -8t26.5 -31l20 47q2 6 5.5 8t14.5 2q38 0 46.5 -3.5t8.5 -9.5q0 -5 -8.5 -30t-16.5 -51l-70 -231q-7 -22 -10 -36.5t-3 -19.5q0 -16 17 -16t39.5 20.5t45.5 46.5z" />
    <glyph glyph-name="Dcroat" unicode="&#x2013;" horiz-adv-x="778" 
d="M321 658l-44 -240h178l-9 -56h-179l-44 -238q-1 -10 -3 -22t-2 -23q0 -14 9 -22.5t23.5 -12.5t32 -5t34.5 -1q70 0 126.5 28t97 76.5t62.5 115t22 143.5q0 117 -61.5 188t-182.5 71q-15 0 -30 -0.5t-30 -1.5zM-8 0l5 30q23 0 39 1.5t27 8t18 19t11 35.5l51 268h-95l9 56
h96l28 150q2 11 4 24.5t2 26.5q0 29 -20 39t-54 10h-17l4 30q34 -1 69.5 -2.5t77.5 -1.5q45 0 94.5 2t91.5 2q75 0 136 -24t104 -65t66.5 -96.5t23.5 -118.5q0 -103 -36 -177.5t-94.5 -122.5t-132 -71t-149.5 -23q-41 0 -73 0.5t-58 1.5t-47.5 1.5t-42.5 0.5q-34 0 -69 -1.5
t-69 -2.5z" />
    <glyph glyph-name="Nacute" unicode="&#x2014;" horiz-adv-x="778" 
d="M97 128l82 445l-20 33q-21 34 -38 48t-54 14l5 30q26 -1 51 -2.5t51 -1.5q20 0 40.5 1.5t40.5 2.5q10 -19 21.5 -37.5t24.5 -37.5l307 -469l61 374q7 45 8.5 61.5t1.5 26.5q0 34 -25 43t-61 9l4 30q31 -1 61.5 -2.5t61.5 -1.5q30 0 60.5 2t60.5 2l-4 -30
q-29 0 -46.5 -3.5t-29 -15t-18.5 -33.5t-14 -58l-83 -460l22 -34q12 -19 25.5 -26.5t25.5 -7.5l-5 -30q-20 1 -40 2.5t-40 1.5t-40 -1.5t-40 -2.5l-32 56t-33 54l-271 412l-65 -385q-2 -13 -4 -30t-2 -35q0 -19 14 -30.5t51 -11.5h21l-5 -30q-28 1 -57 2.5t-58 1.5
q-31 0 -63 -1.5t-63 -2.5l5 30h8q20 0 35.5 3t27.5 13t20 29.5t14 52.5zM384 745l131 136q22 23 34.5 31.5t25.5 8.5q17 0 29.5 -12.5t12.5 -31.5q0 -17 -16 -28.5t-51 -32.5l-122 -71h-44z" />
    <glyph glyph-name="Ocircumflex" unicode="&#x2018;" horiz-adv-x="852" 
d="M686 414q0 46 -9 93t-32.5 84t-64 60.5t-102.5 23.5q-73 0 -124.5 -39t-84.5 -96.5t-48 -125t-15 -124.5q0 -46 9 -93.5t32.5 -86t64 -63t102.5 -24.5q64 0 115 32.5t85.5 86.5t53 125t18.5 147zM824 390q0 -87 -32.5 -161t-88.5 -128.5t-130 -85t-157 -30.5t-147.5 24
t-109 67t-68 102.5t-23.5 129.5q0 94 32.5 169t88.5 127.5t130.5 80.5t158.5 28q82 0 146.5 -25.5t108.5 -69.5t67.5 -102.5t23.5 -125.5zM348 745l159 170h67l88 -170h-45l-86 99l-133 -99h-50z" />
    <glyph glyph-name="Ohungarumlaut" unicode="&#x2019;" horiz-adv-x="852" 
d="M686 414q0 46 -9 93t-32.5 84t-64 60.5t-102.5 23.5q-73 0 -124.5 -39t-84.5 -96.5t-48 -125t-15 -124.5q0 -46 9 -93.5t32.5 -86t64 -63t102.5 -24.5q64 0 115 32.5t85.5 86.5t53 125t18.5 147zM824 390q0 -87 -32.5 -161t-88.5 -128.5t-130 -85t-157 -30.5t-147.5 24
t-109 67t-68 102.5t-23.5 129.5q0 94 32.5 169t88.5 127.5t130.5 80.5t158.5 28q82 0 146.5 -25.5t108.5 -69.5t67.5 -102.5t23.5 -125.5zM354 745l131 136q22 23 34.5 31.5t25.5 8.5q17 0 29.5 -12.5t12.5 -31.5q0 -17 -16 -28.5t-51 -32.5l-122 -71h-44zM554 745l131 136
q22 23 34.5 31.5t25.5 8.5q17 0 29.5 -12.5t12.5 -31.5q0 -17 -16 -28.5t-51 -32.5l-122 -71h-44z" />
    <glyph glyph-name="acircumflex" unicode="&#x201a;" horiz-adv-x="537" 
d="M482 388l-70 -231q-7 -22 -10 -36.5t-3 -19.5q0 -16 17 -16t39.5 20.5t45.5 46.5l21 -21q-15 -16 -37.5 -40.5t-48.5 -48t-53 -40.5t-51 -17q-20 0 -32.5 12t-12.5 33q0 15 5 36t12 43t14.5 41.5t11.5 31.5l-2 2q-15 -27 -42 -61.5t-59.5 -65t-68 -51.5t-69.5 -21
q-41 0 -56 28t-15 57q0 71 36 141.5t87.5 126.5t109 91t101.5 35q21 0 33.5 -8t26.5 -31l20 47q2 6 5.5 8t14.5 2q38 0 46.5 -3.5t8.5 -9.5q0 -5 -8.5 -30t-16.5 -51zM118 146q0 -24 8 -47.5t34 -23.5q33 0 69.5 32.5t67.5 77t51 91.5t20 77q0 23 -12 39t-38 16
q-39 0 -75.5 -29t-64 -70.5t-44 -86t-16.5 -76.5zM222 560l159 170h67l88 -170h-45l-86 99l-133 -99h-50z" />
    <glyph glyph-name="Ncaron" unicode="&#x201c;" horiz-adv-x="778" 
d="M97 128l82 445l-20 33q-21 34 -38 48t-54 14l5 30q26 -1 51 -2.5t51 -1.5q20 0 40.5 1.5t40.5 2.5q10 -19 21.5 -37.5t24.5 -37.5l307 -469l61 374q7 45 8.5 61.5t1.5 26.5q0 34 -25 43t-61 9l4 30q31 -1 61.5 -2.5t61.5 -1.5q30 0 60.5 2t60.5 2l-4 -30
q-29 0 -46.5 -3.5t-29 -15t-18.5 -33.5t-14 -58l-83 -460l22 -34q12 -19 25.5 -26.5t25.5 -7.5l-5 -30q-20 1 -40 2.5t-40 1.5t-40 -1.5t-40 -2.5l-32 56t-33 54l-271 412l-65 -385q-2 -13 -4 -30t-2 -35q0 -19 14 -30.5t51 -11.5h21l-5 -30q-28 1 -57 2.5t-58 1.5
q-31 0 -63 -1.5t-63 -2.5l5 30h8q20 0 35.5 3t27.5 13t20 29.5t14 52.5zM663 915l-159 -170h-67l-88 170h45l86 -99l133 99h50z" />
    <glyph glyph-name="Oacute" unicode="&#x201d;" horiz-adv-x="852" 
d="M686 414q0 46 -9 93t-32.5 84t-64 60.5t-102.5 23.5q-73 0 -124.5 -39t-84.5 -96.5t-48 -125t-15 -124.5q0 -46 9 -93.5t32.5 -86t64 -63t102.5 -24.5q64 0 115 32.5t85.5 86.5t53 125t18.5 147zM824 390q0 -87 -32.5 -161t-88.5 -128.5t-130 -85t-157 -30.5t-147.5 24
t-109 67t-68 102.5t-23.5 129.5q0 94 32.5 169t88.5 127.5t130.5 80.5t158.5 28q82 0 146.5 -25.5t108.5 -69.5t67.5 -102.5t23.5 -125.5zM444 745l131 136q22 23 34.5 31.5t25.5 8.5q17 0 29.5 -12.5t12.5 -31.5q0 -17 -16 -28.5t-51 -32.5l-122 -71h-44z" />
    <glyph glyph-name="abreve" unicode="&#x201e;" horiz-adv-x="537" 
d="M482 388l-70 -231q-7 -22 -10 -36.5t-3 -19.5q0 -16 17 -16t39.5 20.5t45.5 46.5l21 -21q-15 -16 -37.5 -40.5t-48.5 -48t-53 -40.5t-51 -17q-20 0 -32.5 12t-12.5 33q0 15 5 36t12 43t14.5 41.5t11.5 31.5l-2 2q-15 -27 -42 -61.5t-59.5 -65t-68 -51.5t-69.5 -21
q-41 0 -56 28t-15 57q0 71 36 141.5t87.5 126.5t109 91t101.5 35q21 0 33.5 -8t26.5 -31l20 47q2 6 5.5 8t14.5 2q38 0 46.5 -3.5t8.5 -9.5q0 -5 -8.5 -30t-16.5 -51zM118 146q0 -24 8 -47.5t34 -23.5q33 0 69.5 32.5t67.5 77t51 91.5t20 77q0 23 -12 39t-38 16
q-39 0 -75.5 -29t-64 -70.5t-44 -86t-16.5 -76.5zM257 720h36q2 -47 31.5 -70.5t75.5 -23.5t81 25t49 69h36q-12 -72 -59 -117t-115 -45q-75 0 -105 43.5t-30 118.5z" />
    <glyph glyph-name="racute" unicode="&#x2021;" horiz-adv-x="389" 
d="M69 87l49 162q2 9 5.5 22t6.5 25.5t5.5 23.5t2.5 16q0 7 -2 14.5t-12 7.5q-9 0 -20.5 -6.5t-22.5 -15.5t-20 -19t-15 -16l-18 22q13 17 34.5 41t46.5 46t51 38t48 16q23 0 32.5 -12t9.5 -33q0 -19 -5 -43t-12.5 -48t-15 -47.5t-12.5 -41.5l2 -2q15 23 37 61t48 75
t55.5 64t59.5 27q42 0 42 -39q0 -23 -11.5 -48t-37.5 -25q-15 0 -23.5 3t-21.5 3q-19 0 -42 -22.5t-47 -59.5t-47.5 -84.5t-43.5 -98.5q-10 -25 -16.5 -50.5t-10.5 -32.5q-7 -10 -18.5 -12.5t-34.5 -2.5q-28 0 -37 5.5t-9 12.5q0 2 2.5 11.5t5.5 21t6.5 23.5t5.5 18z
M230 560l131 136q22 22 34.5 31t25.5 9q17 0 29.5 -12.5t12.5 -31.5q0 -16 -16 -28t-51 -33l-122 -71h-44z" />
    <glyph glyph-name="Aogonek" unicode="&#x2022;" horiz-adv-x="685" 
d="M426 292l-47 274h-2l-150 -274h199zM-57 0l5 30h12q38 0 58.5 16t43.5 57l282 495q14 23 31.5 53.5t33.5 59.5l54 15l14 -8q7 -43 14 -85t15 -85l73 -418q5 -26 9 -44.5t12.5 -31t22.5 -18.5t38 -6h23l-5 -30l-58 2t-58 1q-11 -10 -25.5 -21.5t-27 -25.5t-21 -30.5
t-8.5 -35.5q0 -22 14.5 -39.5t37.5 -17.5t35.5 6.5t18.5 11.5l16 -18q-16 -15 -42 -29.5t-64 -14.5q-41 0 -66.5 21.5t-25.5 60.5q0 26 10.5 45.5t27 35.5t37 28.5t40.5 23.5q-35 0 -71 -1.5t-72 -2.5l5 30h25q33 0 43 7.5t10 24.5q0 8 -2 20.5t-4 25.5l-20 134h-235
l-64 -124q-7 -13 -14 -29.5t-7 -31.5q0 -16 19.5 -21.5t45.5 -5.5h21l-4 -30q-32 1 -64 2.5t-63 1.5t-63 -2t-63 -2z" />
    <glyph glyph-name="Eacute" unicode="&#x2026;" horiz-adv-x="648" 
d="M-8 0l5 30q23 0 39 1.5t27 8t18 19t11 35.5l81 431q10 53 13 74t3 32q0 25 -21.5 30.5t-65.5 6.5l4 30q38 0 63 -1t43 -1.5t32 -1t30 -0.5q22 0 51 0.5t71 1t100 1.5t138 1q-6 -36 -10.5 -73.5t-8.5 -75.5h-31q1 5 1 12v13q0 24 -6 40.5t-22.5 26.5t-45.5 14.5t-76 4.5
q-17 0 -50.5 -2t-62.5 -4l-48 -262h120q52 0 74 20t33 73h29q-3 -17 -9 -47.5t-12 -65t-12 -68t-10 -56.5h-27q1 8 2 19.5t1 25.5q0 18 -2.5 29t-12.5 17t-30.5 7.5t-56.5 1.5q-35 0 -57.5 -0.5t-37.5 -1.5l-39 -216q-3 -16 -5 -27.5t-2 -23.5q0 -16 13 -25.5t68 -9.5h76
q57 0 90.5 5.5t54.5 19.5t35.5 39.5t33.5 65.5h31q-13 -44 -24 -87t-22 -87q-80 1 -160 2.5t-160 1.5q-66 0 -132 -1.5t-132 -2.5zM354 745l131 136q22 23 34.5 31.5t25.5 8.5q17 0 29.5 -12.5t12.5 -31.5q0 -17 -16 -28.5t-51 -32.5l-122 -71h-44z" />
    <glyph glyph-name="adieresis" unicode="&#x2030;" horiz-adv-x="537" 
d="M482 388l-70 -231q-7 -22 -10 -36.5t-3 -19.5q0 -16 17 -16t39.5 20.5t45.5 46.5l21 -21q-15 -16 -37.5 -40.5t-48.5 -48t-53 -40.5t-51 -17q-20 0 -32.5 12t-12.5 33q0 15 5 36t12 43t14.5 41.5t11.5 31.5l-2 2q-15 -27 -42 -61.5t-59.5 -65t-68 -51.5t-69.5 -21
q-41 0 -56 28t-15 57q0 71 36 141.5t87.5 126.5t109 91t101.5 35q21 0 33.5 -8t26.5 -31l20 47q2 6 5.5 8t14.5 2q38 0 46.5 -3.5t8.5 -9.5q0 -5 -8.5 -30t-16.5 -51zM118 146q0 -24 8 -47.5t34 -23.5q33 0 69.5 32.5t67.5 77t51 91.5t20 77q0 23 -12 39t-38 16
q-39 0 -75.5 -29t-64 -70.5t-44 -86t-16.5 -76.5zM522 696q22 0 39 -16.5t17 -39.5t-17 -39.5t-39 -16.5t-39 16.5t-17 39.5t17 39.5t39 16.5zM311 696q23 0 39.5 -16.5t16.5 -39.5t-16.5 -39.5t-39.5 -16.5t-39.5 16.5t-16.5 39.5t16.5 39.5t39.5 16.5z" />
    <glyph glyph-name="Udieresis" unicode="&#x2039;" horiz-adv-x="722" 
d="M800 698l-4 -30q-56 0 -74.5 -18t-27.5 -64l-76 -404q-12 -62 -40 -100t-65.5 -60t-80.5 -29.5t-84 -7.5q-49 0 -94 10t-79.5 32.5t-55 58.5t-20.5 89q0 32 4.5 63.5t7.5 47.5l46 239q11 53 13.5 74t2.5 32q0 25 -21.5 30.5t-65.5 6.5l4 30q40 -1 80 -2.5t80 -1.5
q35 0 71.5 1.5t74.5 2.5l-5 -30q-44 -1 -64.5 -8t-27.5 -43l-70 -390q-4 -21 -5 -35.5t-1 -29.5q0 -68 39.5 -97.5t96.5 -29.5q56 0 95 12.5t65.5 38t41.5 64.5t23 92l46 302q8 48 8 78q0 20 -17.5 33t-66.5 13l4 30q29 -1 59 -2.5t59 -1.5q31 0 62 1.5t62 2.5zM587 881
q23 0 39.5 -16.5t16.5 -39.5t-16.5 -39.5t-39.5 -16.5t-39.5 16.5t-16.5 39.5t16.5 39.5t39.5 16.5zM376 881q22 0 39 -16.5t17 -39.5t-17 -39.5t-39 -16.5t-39 16.5t-17 39.5t17 39.5t39 16.5z" />
    <glyph glyph-name="Yacute" unicode="&#x203a;" horiz-adv-x="630" 
d="M125 0l5 30h19q49 0 61.5 19t20.5 63l32 165l-107 282q-15 38 -26 60t-23 33t-28 13.5t-40 2.5l5 30q41 -1 81.5 -2.5t81.5 -1.5q35 0 69 1.5t69 2.5l-4 -30q-41 0 -58 -6t-17 -24q0 -5 4 -25t22 -68l75 -204l151 240q14 22 19 34.5t5 21.5q0 19 -24 25t-50 6l4 30
q30 -1 60.5 -2.5t60.5 -1.5t60 1.5t60 2.5l-4 -30q-41 0 -64 -15t-50 -56l-208 -316l-26 -143q-7 -37 -8.5 -52.5t-1.5 -26.5q0 -10 9.5 -19.5t50.5 -9.5h30l-5 -30q-40 1 -81 2.5t-82 1.5q-37 0 -74 -1.5t-74 -2.5zM331 745l131 136q22 23 34 31.5t26 8.5q17 0 29.5 -12.5
t12.5 -31.5q0 -17 -16 -28.5t-51 -32.5l-122 -71h-44z" />
    <glyph glyph-name="Uacute" unicode="&#x2044;" horiz-adv-x="722" 
d="M800 698l-4 -30q-56 0 -74.5 -18t-27.5 -64l-76 -404q-12 -62 -40 -100t-65.5 -60t-80.5 -29.5t-84 -7.5q-49 0 -94 10t-79.5 32.5t-55 58.5t-20.5 89q0 32 4.5 63.5t7.5 47.5l46 239q11 53 13.5 74t2.5 32q0 25 -21.5 30.5t-65.5 6.5l4 30q40 -1 80 -2.5t80 -1.5
q35 0 71.5 1.5t74.5 2.5l-5 -30q-44 -1 -64.5 -8t-27.5 -43l-70 -390q-4 -21 -5 -35.5t-1 -29.5q0 -68 39.5 -97.5t96.5 -29.5q56 0 95 12.5t65.5 38t41.5 64.5t23 92l46 302q8 48 8 78q0 20 -17.5 33t-66.5 13l4 30q29 -1 59 -2.5t59 -1.5q31 0 62 1.5t62 2.5zM384 745
l131 136q22 23 34.5 31.5t25.5 8.5q17 0 29.5 -12.5t12.5 -31.5q0 -17 -16 -28.5t-51 -32.5l-122 -71h-44z" />
    <glyph glyph-name="Uhungarumlaut" unicode="&#x20ac;" horiz-adv-x="722" 
d="M800 698l-4 -30q-56 0 -74.5 -18t-27.5 -64l-76 -404q-12 -62 -40 -100t-65.5 -60t-80.5 -29.5t-84 -7.5q-49 0 -94 10t-79.5 32.5t-55 58.5t-20.5 89q0 32 4.5 63.5t7.5 47.5l46 239q11 53 13.5 74t2.5 32q0 25 -21.5 30.5t-65.5 6.5l4 30q40 -1 80 -2.5t80 -1.5
q35 0 71.5 1.5t74.5 2.5l-5 -30q-44 -1 -64.5 -8t-27.5 -43l-70 -390q-4 -21 -5 -35.5t-1 -29.5q0 -68 39.5 -97.5t96.5 -29.5q56 0 95 12.5t65.5 38t41.5 64.5t23 92l46 302q8 48 8 78q0 20 -17.5 33t-66.5 13l4 30q29 -1 59 -2.5t59 -1.5q31 0 62 1.5t62 2.5zM304 745
l131 136q22 23 34.5 31.5t25.5 8.5q17 0 29.5 -12.5t12.5 -31.5q0 -17 -16 -28.5t-51 -32.5l-122 -71h-44zM504 745l131 136q22 23 34.5 31.5t25.5 8.5q17 0 29.5 -12.5t12.5 -31.5q0 -17 -16 -28.5t-51 -32.5l-122 -71h-44z" />
    <glyph glyph-name="Scommaaccent" unicode="&#x2122;" horiz-adv-x="538" 
d="M494 518l-32 -4q1 8 1.5 19t0.5 27q0 20 -6 40t-20 37t-36.5 27.5t-56.5 10.5q-54 0 -84 -28t-30 -83q0 -26 18 -52t45 -54t58 -58t58 -63.5t45 -70.5t18 -79q0 -49 -18.5 -87t-50 -63.5t-75 -38.5t-92.5 -13q-22 0 -44 4.5t-41.5 10.5t-35.5 12.5t-25 10.5l-39 -23
l-18 2q8 47 14.5 104.5t10.5 97.5l30 2q0 -35 9 -68t26.5 -58.5t43.5 -41t61 -15.5q24 0 47.5 5.5t42.5 19t30.5 36.5t11.5 57q0 32 -17 61t-42.5 57t-55.5 56.5t-55.5 59.5t-42.5 66t-17 77q0 48 18 84.5t48 61t68.5 37t78.5 12.5q41 0 68 -7t41 -12q19 -7 29 -7
q13 0 17 12l24 -2q-9 -44 -16.5 -89t-12.5 -90zM131 -264l-7 23q14 1 33 6.5t36.5 14.5t29.5 22t12 29q0 17 -10 21.5t-22.5 8.5t-22.5 13t-10 34q0 22 15 36t37 14q38 0 54.5 -22.5t16.5 -56.5q0 -36 -16.5 -62t-40.5 -43t-52.5 -26t-52.5 -12z" />
    <glyph glyph-name="paragraph" unicode="&#x2202;" horiz-adv-x="620" 
d="M87 -178l6 30h30q30 0 43.5 17t23.5 67l70 339q-73 0 -107.5 41.5t-34.5 111.5q0 130 63.5 200t196.5 70h293l-6 -30h-33q-14 0 -23.5 -3.5t-17 -14t-13 -30.5t-12.5 -52l-131 -632l-6 -32t-3 -26q0 -26 36 -26h33l-6 -30h-164l176 846h-73l-176 -846h-165zM272 331
l64 311q-38 0 -62.5 -23t-39 -56t-20.5 -71t-6 -68q0 -47 19 -70t45 -23z" />
    <glyph glyph-name="cedilla" unicode="&#x220f;" horiz-adv-x="278" 
d="M-21 -191l17 31q12 -7 31 -11.5t36 -4.5q24 0 39.5 9.5t15.5 30.5q0 19 -12.5 29.5t-31.5 10.5q-16 0 -32 -7l-12 12l64 93h41l-45 -62q8 2 15 2h14q33 0 58 -19t25 -56q0 -34 -34 -57.5t-85 -23.5q-37 0 -64 8.5t-40 14.5z" />
    <glyph glyph-name="periodcentered" unicode="&#x2211;" horiz-adv-x="278" 
d="M149 367q27 0 48 -21t21 -48q0 -28 -21 -48.5t-48 -20.5q-28 0 -48.5 20.5t-20.5 48.5q0 27 20.5 48t48.5 21z" />
    <glyph glyph-name="Abreve" unicode="&#x221a;" horiz-adv-x="685" 
d="M-57 0l5 30h12q38 0 58.5 16t43.5 57l282 495q14 23 31.5 53.5t33.5 59.5l54 15l14 -8q7 -43 14 -85t15 -85l73 -418q5 -26 9 -44.5t12.5 -31t22.5 -18.5t38 -6h23l-5 -30q-37 1 -75 2.5t-75 1.5q-38 0 -76 -1.5t-76 -2.5l5 30h25q33 0 43 7.5t10 24.5q0 8 -2 20.5
t-4 25.5l-20 134h-235l-64 -124q-7 -13 -14 -29.5t-7 -31.5q0 -16 19.5 -21.5t45.5 -5.5h21l-4 -30q-32 1 -64 2.5t-63 1.5t-63 -2t-63 -2zM426 292l-47 274h-2l-150 -274h199zM308 905h36q2 -47 31 -70.5t76 -23.5t81.5 25t48.5 69h36q-12 -72 -59.5 -117t-114.5 -45
q-75 0 -105 43.5t-30 118.5z" />
    <glyph glyph-name="degree" unicode="&#x221e;" horiz-adv-x="400" 
d="M154 556q0 -39 27.5 -66t65.5 -27t65.5 27t27.5 66t-27.5 66t-65.5 27t-65.5 -27t-27.5 -66zM98 556q0 31 12 58t32 47.5t47 32t58 11.5t58 -11.5t47 -32t32 -47.5t12 -58t-12 -58t-32 -47.5t-47 -32t-58 -11.5t-58 11.5t-47 32t-32 47.5t-12 58z" />
    <glyph glyph-name="scommaaccent" unicode="&#x222b;" horiz-adv-x="389" 
d="M345 339h-23q-10 32 -38 44.5t-57 12.5q-35 0 -56 -9t-21 -30q0 -17 16.5 -34t44.5 -35l68 -43q31 -20 47 -38.5t16 -56.5q0 -24 -15 -52.5t-41 -53.5t-63 -42t-80 -17q-24 0 -48.5 5t-44 15.5t-32 26t-12.5 37.5q0 23 5 36t27 37h19q5 -27 22.5 -43.5t39.5 -25t44 -11.5
t35 -3q34 0 55 8t21 32q0 13 -9 26t-52 41l-87 57q-28 18 -40 41.5t-12 42.5q0 29 18 54.5t40.5 44.5t43 31t24.5 14q26 13 67 13q17 0 35 -2t33 -8.5t24.5 -19t9.5 -34.5q0 -17 -8.5 -34t-15.5 -27zM17 -264l-7 23q14 1 33 6.5t36.5 14.5t29.5 22t12 29q0 17 -10 21.5
t-22.5 8.5t-22.5 13t-10 34q0 22 15 36t37 14q38 0 54.5 -22.5t16.5 -56.5q0 -36 -16.5 -62t-40.5 -43t-52.5 -26t-52.5 -12z" />
    <glyph glyph-name="Lacute" unicode="&#x2248;" horiz-adv-x="630" 
d="M-8 0l5 30q23 0 39 1.5t27 8t18 19t11 35.5l81 431q10 53 13 74t3 32q0 25 -21.5 30.5t-65.5 6.5l4 30q40 -1 80 -2.5t80 -1.5q35 0 71.5 1.5t74.5 2.5l-5 -30q-44 -1 -64.5 -7.5t-27.5 -43.5l-106 -573h146q26 0 55.5 3t58 13.5t52.5 31t39 55.5l14 34l31 -3
q-5 -16 -13 -39.5t-16 -48.5t-15 -49t-11 -41q-58 1 -117 2.5t-117 1.5q-82 0 -163 -1.5t-161 -2.5zM224 745l131 136q22 23 34.5 31.5t25.5 8.5q17 0 29.5 -12.5t12.5 -31.5q0 -17 -16 -28.5t-51 -32.5l-122 -71h-44z" />
    <glyph glyph-name="hyphen" unicode="&#x2260;" horiz-adv-x="370" 
d="M43 198q7 19 13.5 39.5t11.5 40.5l64 -2t63 -1q36 0 72 1l72 2q-5 -20 -10.5 -40t-9.5 -40q-36 1 -71.5 2t-71.5 1q-33 0 -66.5 -1t-66.5 -2z" />
    <glyph glyph-name="ogonek" unicode="&#x2264;" horiz-adv-x="278" 
d="M138 5h43q-11 -10 -25.5 -22t-27.5 -26t-22 -30.5t-9 -36.5q0 -22 14.5 -39.5t37.5 -17.5t35.5 6.5t18.5 11.5l16 -18q-16 -15 -42 -29.5t-64 -14.5q-41 0 -66.5 21.5t-25.5 60.5q0 26 11 46t28 36t37.5 28.5t40.5 23.5z" />
    <glyph glyph-name="lslash" unicode="&#x2265;" horiz-adv-x="296" 
d="M72 172l37 154l-98 -57l13 53l98 58l73 298l-63 33l5 18q19 1 44 4.5t49.5 9t46.5 11t37 10.5l12 -11q-14 -46 -31.5 -109t-31.5 -121l-18 -72l98 57l-11 -53l-101 -58l-64 -255q-3 -13 -6 -26.5t-3 -21.5q0 -7 3.5 -13t11.5 -6q15 0 40.5 22.5t51.5 50.5l19 -20
q-38 -42 -65.5 -70t-49 -44t-38.5 -22.5t-35 -6.5q-32 0 -41 17t-9 39q0 19 8.5 56t17.5 75z" />
    <glyph glyph-name="multiply" unicode="&#x25ca;" 
d="M216 252l-170 170l62 62l170 -171l170 171l62 -62l-171 -170l171 -170l-62 -62l-170 171l-170 -171l-62 62z" />
    <glyph glyph-name="dcroat" unicode="&#xe01e;" horiz-adv-x="574" 
d="M140 127q0 -31 10.5 -49.5t42.5 -18.5q42 0 78.5 31.5t64 78t43.5 98t16 92.5q0 35 -11 51t-45 16q-41 0 -77.5 -34t-63.5 -81t-42.5 -98t-15.5 -86zM322 582l12 47h123l10 51l-66 31l5 18q43 4 93.5 14.5t83.5 20.5l11 -7l-30 -128h64l-12 -47h-63l-103 -440
q-2 -8 -4.5 -20.5t-2.5 -20.5q0 -16 15 -16q8 0 20.5 8.5t25 20t24.5 23t18 17.5l18 -23q-16 -18 -37.5 -43t-46.5 -48t-51.5 -39t-51.5 -16q-27 0 -36.5 14.5t-9.5 33.5q0 17 6 44t15 61h-2q-15 -27 -38.5 -54t-52 -49t-61 -36t-65.5 -14q-53 0 -79 36.5t-26 94.5
q0 52 28.5 112.5t74 113t102 87.5t113.5 35q38 0 73 -18l28 136h-125z" />
    <glyph glyph-name="dcroat" unicode="&#xf8ff;" horiz-adv-x="574" 
d="M140 127q0 -31 10.5 -49.5t42.5 -18.5q42 0 78.5 31.5t64 78t43.5 98t16 92.5q0 35 -11 51t-45 16q-41 0 -77.5 -34t-63.5 -81t-42.5 -98t-15.5 -86zM322 582l12 47h123l10 51l-66 31l5 18q43 4 93.5 14.5t83.5 20.5l11 -7l-30 -128h64l-12 -47h-63l-103 -440
q-2 -8 -4.5 -20.5t-2.5 -20.5q0 -16 15 -16q8 0 20.5 8.5t25 20t24.5 23t18 17.5l18 -23q-16 -18 -37.5 -43t-46.5 -48t-51.5 -39t-51.5 -16q-27 0 -36.5 14.5t-9.5 33.5q0 17 6 44t15 61h-2q-15 -27 -38.5 -54t-52 -49t-61 -36t-65.5 -14q-53 0 -79 36.5t-26 94.5
q0 52 28.5 112.5t74 113t102 87.5t113.5 35q38 0 73 -18l28 136h-125z" />
    <glyph glyph-name="Tcommaaccent" unicode="&#xfb01;" horiz-adv-x="667" 
d="M134 0l5 30h24q25 0 39 4.5t22.5 15t12.5 28t9 44.5l97 532h-88q-30 0 -54.5 -4.5t-45 -18.5t-35.5 -39t-25 -67h-32q11 48 21.5 96.5t19.5 97.5h24q1 -10 10.5 -15.5t35.5 -5.5h446q24 0 46.5 2.5t31.5 18.5h27q-7 -48 -13.5 -96.5t-9.5 -97.5h-32q1 12 1.5 24t0.5 26
q0 54 -35 66.5t-98 12.5h-68l-100 -543q-5 -25 -5 -46q0 -22 17.5 -28.5t37.5 -6.5h36l-4 -30q-40 1 -79.5 2.5t-79.5 1.5t-80 -1t-80 -3zM186 -264l-7 23q14 1 33 6.5t36.5 14.5t29.5 22t12 29q0 17 -10 21.5t-22.5 8.5t-22.5 13t-10 34q0 22 15 36t37 14q37 0 54 -22.5
t17 -56.5q0 -36 -16.5 -62t-40.5 -43t-52.5 -26t-52.5 -12z" />
    <glyph glyph-name="germandbls" unicode="&#xfb02;" 
d="M-27 -230l49 199q34 137 63 275t69 273q34 118 117.5 182.5t190.5 64.5q49 0 85 -29.5t36 -79.5q0 -45 -28.5 -78t-62.5 -59t-62.5 -47t-28.5 -41q0 -19 17 -49.5t38 -64.5t38 -67t17 -58q0 -40 -20.5 -75.5t-51.5 -62.5t-69 -43t-72 -16q-33 0 -62 18t-29 49
q0 23 9.5 38.5t23.5 31.5l18 -5q15 -28 40.5 -46t59.5 -18q29 0 50 15.5t21 46.5q0 24 -19.5 59t-42.5 72t-42.5 73t-19.5 61q0 26 29.5 51t64.5 52.5t64.5 59t29.5 71.5q0 42 -26.5 66.5t-69.5 24.5q-51 0 -79.5 -42.5t-55.5 -146.5q-51 -201 -104 -380t-105 -356l-68 -27z
" />
    <glyph glyph-name="onehalf" horiz-adv-x="834" 
d="M188 -30l440 750h59l-440 -750h-59zM77 282l2 24h24q34 0 41.5 9t13.5 34l48 236q2 6 4 16t2 14q0 6 -5 6q-4 0 -18 -7t-21 -10l-57 -29l-8 25l125 65q13 7 34.5 20t35.5 20l15 -3q-2 -10 -7 -31.5t-10 -49.5l-44 -227q-4 -20 -7.5 -36.5t-3.5 -30.5q0 -16 18.5 -18.5
t34.5 -2.5h17l-3 -24q-29 1 -58.5 1.5t-58.5 0.5t-57 -0.5t-57 -1.5zM827 105l-32 -105q-34 1 -69.5 1.5t-78.5 0.5q-47 0 -83 -1t-61 -1q-6 0 -6 17q0 4 2.5 7.5t12.5 12.5q26 22 62 55t69 69.5t56.5 73.5t23.5 67q0 34 -19 55.5t-51 21.5q-29 0 -50.5 -14.5t-41.5 -30.5
l-13 19q32 28 70 49t81 21q49 0 84.5 -22.5t35.5 -72.5q0 -36 -21 -70t-52 -64.5t-67 -56.5t-65 -47l-28 -20v-2h197l24 42z" />
    <glyph glyph-name="Ncommaaccent" horiz-adv-x="778" 
d="M97 128l82 445l-20 33q-21 34 -38 48t-54 14l5 30q26 -1 51 -2.5t51 -1.5q20 0 40.5 1.5t40.5 2.5q10 -19 21.5 -37.5t24.5 -37.5l307 -469l61 374q7 45 8.5 61.5t1.5 26.5q0 34 -25 43t-61 9l4 30q31 -1 61.5 -2.5t61.5 -1.5q30 0 60.5 2t60.5 2l-4 -30
q-29 0 -46.5 -3.5t-29 -15t-18.5 -33.5t-14 -58l-83 -460l22 -34q12 -19 25.5 -26.5t25.5 -7.5l-5 -30q-20 1 -40 2.5t-40 1.5t-40 -1.5t-40 -2.5l-32 56t-33 54l-271 412l-65 -385q-2 -13 -4 -30t-2 -35q0 -19 14 -30.5t51 -11.5h21l-5 -30q-28 1 -57 2.5t-58 1.5
q-31 0 -63 -1.5t-63 -2.5l5 30h8q20 0 35.5 3t27.5 13t20 29.5t14 52.5zM271 -264l-7 23q14 1 33 6.5t36.5 14.5t29.5 22t12 29q0 17 -10 21.5t-22.5 8.5t-22.5 13t-10 34q0 22 15 36t37 14q38 0 54.5 -22.5t16.5 -56.5q0 -36 -16.5 -62t-40.5 -43t-52.5 -26t-52.5 -12z" />
    <glyph glyph-name="ordfeminine" horiz-adv-x="349" 
d="M46 469q0 35 22.5 75t55.5 74t70.5 56t68.5 22q23 0 32.5 -5t18.5 -16l8 15q4 8 8.5 11.5t13.5 3.5q15 0 25 -1.5t10 -5.5q0 -3 -6.5 -20.5t-10.5 -27.5l-48 -134l-6 -18t-3 -14q0 -10 11 -10t26 11.5t30 27.5l13 -12q-10 -9 -24.5 -23.5t-31.5 -27.5t-34.5 -22.5
t-33.5 -9.5q-13 0 -22.5 6.5t-9.5 22.5q0 12 10.5 36.5t21.5 46.5h-2q-10 -15 -27.5 -34.5t-39.5 -37t-47 -29t-50 -11.5q-26 0 -37.5 16t-11.5 35zM278 623q0 29 -33 29q-22 0 -44 -16t-40 -38t-29.5 -45.5t-11.5 -39.5q0 -11 5 -22t19 -11q21 0 45 17.5t43.5 41t32.5 47.5
t13 37z" />
    <glyph glyph-name="ugrave" horiz-adv-x="574" 
d="M540 434l-93 -279q-7 -22 -11 -38t-4 -22q0 -20 12 -20q9 0 21.5 9t25.5 21t24 23.5t16 16.5l19 -22q-52 -57 -98 -97.5t-83 -40.5q-25 0 -37 14.5t-12 31.5q0 6 2.5 19t10 40t22 71.5t39.5 115.5l-2 2q-20 -31 -52 -81t-71 -97t-83 -81.5t-88 -34.5q-31 0 -39.5 18
t-8.5 37t14 65.5t30 96.5t30 91.5t14 50.5q0 5 -3 9.5t-11 4.5q-7 0 -18 -7t-22.5 -17t-21.5 -19t-15 -14l-19 20q15 16 37 40.5t47.5 47t52 39t50.5 16.5q47 0 47 -50q0 -28 -14.5 -74.5t-32.5 -94t-32.5 -87.5t-14.5 -55q0 -7 4 -12.5t12 -5.5q16 0 42.5 26.5t53 60
t48.5 65t29 42.5q25 38 42 71.5t29 59t20.5 40t16.5 14.5q6 0 12.5 -3t12.5 -5zM399 560l-136 96q-11 8 -19 18t-8 24q0 19 13.5 28.5t30.5 9.5q19 0 30.5 -10t18.5 -21l110 -145h-40z" />
    <glyph glyph-name="umacron" horiz-adv-x="574" 
d="M540 434l-93 -279q-7 -22 -11 -38t-4 -22q0 -20 12 -20q9 0 21.5 9t25.5 21t24 23.5t16 16.5l19 -22q-52 -57 -98 -97.5t-83 -40.5q-25 0 -37 14.5t-12 31.5q0 6 2.5 19t10 40t22 71.5t39.5 115.5l-2 2q-20 -31 -52 -81t-71 -97t-83 -81.5t-88 -34.5q-31 0 -39.5 18
t-8.5 37t14 65.5t30 96.5t30 91.5t14 50.5q0 5 -3 9.5t-11 4.5q-7 0 -18 -7t-22.5 -17t-21.5 -19t-15 -14l-19 20q15 16 37 40.5t47.5 47t52 39t50.5 16.5q47 0 47 -50q0 -28 -14.5 -74.5t-32.5 -94t-32.5 -87.5t-14.5 -55q0 -7 4 -12.5t12 -5.5q16 0 42.5 26.5t53 60
t48.5 65t29 42.5q25 38 42 71.5t29 59t20.5 40t16.5 14.5q6 0 12.5 -3t12.5 -5zM223 597l15 62h278l-15 -62h-278z" />
    <glyph glyph-name="atilde" horiz-adv-x="537" 
d="M482 388l-70 -231q-7 -22 -10 -36.5t-3 -19.5q0 -16 17 -16t39.5 20.5t45.5 46.5l21 -21q-15 -16 -37.5 -40.5t-48.5 -48t-53 -40.5t-51 -17q-20 0 -32.5 12t-12.5 33q0 15 5 36t12 43t14.5 41.5t11.5 31.5l-2 2q-15 -27 -42 -61.5t-59.5 -65t-68 -51.5t-69.5 -21
q-41 0 -56 28t-15 57q0 71 36 141.5t87.5 126.5t109 91t101.5 35q21 0 33.5 -8t26.5 -31l20 47q2 6 5.5 8t14.5 2q38 0 46.5 -3.5t8.5 -9.5q0 -5 -8.5 -30t-16.5 -51zM118 146q0 -24 8 -47.5t34 -23.5q33 0 69.5 32.5t67.5 77t51 91.5t20 77q0 23 -12 39t-38 16
q-39 0 -75.5 -29t-64 -70.5t-44 -86t-16.5 -76.5zM529 692h37q-7 -42 -38 -76.5t-81 -34.5q-19 0 -37 7t-35 15t-34.5 15t-34.5 7q-22 0 -35.5 -16t-17.5 -27h-37q7 42 38 76.5t81 34.5q19 0 37 -6.5t35 -14.5t34.5 -15t34.5 -7q22 0 35.5 16t17.5 26z" />
    <glyph glyph-name="igrave" horiz-adv-x="315" 
d="M265 145l19 -22q-55 -67 -99 -102.5t-92 -35.5q-20 0 -32.5 13t-12.5 34q0 18 14 64t31.5 96t31.5 93t14 56q0 9 -3 16t-12 7t-19.5 -7t-20.5 -17t-19.5 -20.5t-16.5 -17.5l-20 24q14 16 36.5 40t48 45.5t52.5 37t49 15.5q25 0 40 -10t15 -43q0 -19 -16 -66t-35.5 -99
t-35.5 -97.5t-16 -60.5q0 -13 12 -13q9 0 21.5 9t25.5 21t24 23.5t16 16.5zM270 560l-136 96q-10 8 -18.5 18t-8.5 24q0 19 13.5 28.5t30.5 9.5q19 0 30 -10t19 -21l110 -145h-40z" />
    <glyph glyph-name="Idieresis" horiz-adv-x="352" 
d="M102 668l4 30q40 -1 80 -2.5t80 -1.5q35 0 71.5 1.5t74.5 2.5l-5 -30q-44 -1 -64.5 -8t-27.5 -43l-84 -445q-10 -52 -13 -73t-3 -32q0 -25 18.5 -30.5t61.5 -6.5l-4 -30q-33 1 -72 2.5t-79 1.5q-35 0 -71.5 -1.5t-76.5 -2.5l5 30q23 0 39 1.5t27 8t18 19t11 35.5l81 431
q10 53 13 74t3 32q0 25 -21.5 30.5t-65.5 6.5zM382 881q22 0 39 -16.5t17 -39.5t-17 -39.5t-39 -16.5t-39 16.5t-17 39.5t17 39.5t39 16.5zM171 881q23 0 39.5 -16.5t16.5 -39.5t-16.5 -39.5t-39.5 -16.5t-39.5 16.5t-16.5 39.5t16.5 39.5t39.5 16.5z" />
    <glyph glyph-name="Delta" horiz-adv-x="685" 
d="M485 712l134 -712h-655l477 712h44zM523 56l-102 555l-368 -555h470z" />
    <glyph glyph-name="dotlessi" horiz-adv-x="315" 
d="M265 145l19 -22q-55 -67 -99 -102.5t-92 -35.5q-20 0 -32.5 13t-12.5 34q0 18 14 64t31.5 96t31.5 93t14 56q0 9 -3 16t-12 7t-19.5 -7t-20.5 -17t-19.5 -20.5t-16.5 -17.5l-20 24q14 16 36.5 40t48 45.5t52.5 37t49 15.5q25 0 40 -10t15 -43q0 -19 -16 -66t-35.5 -99
t-35.5 -97.5t-16 -60.5q0 -13 12 -13q9 0 21.5 9t25.5 21t24 23.5t16 16.5z" />
    <glyph glyph-name="amacron" horiz-adv-x="537" 
d="M482 388l-70 -231q-7 -22 -10 -36.5t-3 -19.5q0 -16 17 -16t39.5 20.5t45.5 46.5l21 -21q-15 -16 -37.5 -40.5t-48.5 -48t-53 -40.5t-51 -17q-20 0 -32.5 12t-12.5 33q0 15 5 36t12 43t14.5 41.5t11.5 31.5l-2 2q-15 -27 -42 -61.5t-59.5 -65t-68 -51.5t-69.5 -21
q-41 0 -56 28t-15 57q0 71 36 141.5t87.5 126.5t109 91t101.5 35q21 0 33.5 -8t26.5 -31l20 47q2 6 5.5 8t14.5 2q38 0 46.5 -3.5t8.5 -9.5q0 -5 -8.5 -30t-16.5 -51zM118 146q0 -24 8 -47.5t34 -23.5q33 0 69.5 32.5t67.5 77t51 91.5t20 77q0 23 -12 39t-38 16
q-39 0 -75.5 -29t-64 -70.5t-44 -86t-16.5 -76.5zM265 597l15 62h278l-15 -62h-278z" />
    <glyph glyph-name="ydieresis" horiz-adv-x="519" 
d="M51 287l-15 -6l-24 14q0 27 5 56.5t18 54.5t35 41.5t57 16.5q39 0 64.5 -22t43 -57.5t27.5 -80t18 -88.5l26 -151h2q12 18 29.5 46.5t34.5 60t29 62.5t12 55q0 33 -12 55.5t-12 49.5q0 30 14.5 50t46.5 20q57 0 57 -67q0 -40 -25 -103t-72.5 -140t-115 -163t-152.5 -171
q-27 -27 -49.5 -37.5t-54.5 -10.5q-24 0 -40 10t-16 38q0 32 13 42t24 10q21 0 35.5 -5t41.5 -5q24 0 42.5 10.5t33.5 25.5t27 31t21 27q-2 18 -4 41.5t-5 46.5t-5.5 42.5t-4.5 29.5q-25 136 -54 197t-65 61q-34 0 -34 -49q0 -7 1 -18t2 -20zM453 696q23 0 39.5 -16.5
t16.5 -39.5t-16.5 -39.5t-39.5 -16.5t-39.5 16.5t-16.5 39.5t16.5 39.5t39.5 16.5zM242 696q22 0 39 -16.5t17 -39.5t-17 -39.5t-39 -16.5t-39 16.5t-17 39.5t17 39.5t39 16.5z" />
    <glyph glyph-name="sterling" 
d="M66 369l4 50h117q2 18 8 50.5t19 71t33 78t49.5 72t69 53t91.5 20.5q20 0 40 -3t36 -11.5t26 -23.5t10 -39q0 -29 -16 -43t-40 -14q-9 0 -18 0.5t-19 2.5q3 15 3 28q0 25 -12.5 42t-39.5 17q-30 0 -49 -20t-30.5 -51t-17.5 -67t-11 -68l-15 -95h166l-7 -50h-166
q-13 -67 -40 -125t-65 -110q21 3 42 3q40 0 71 -13t56.5 -29t47 -29t42.5 -13q16 0 27.5 10.5t11.5 29.5q0 23 -16 31t-35 9q-3 9 -3 24q0 14 10 29t33 15q33 0 50 -19t17 -50q0 -30 -14 -57t-36.5 -47t-51.5 -31.5t-59 -11.5q-34 0 -64 15t-57 33.5t-52.5 35t-51.5 18.5
q-9 -9 -20.5 -24.5t-25.5 -30.5t-30.5 -26t-36.5 -11q-12 0 -17 8t-5 18q0 19 10 36.5t26 32t36.5 25t41.5 15.5q11 26 18.5 60.5t13 69t8.5 64t3 45.5h-116z" />
    <glyph glyph-name="ae" horiz-adv-x="722" 
d="M608 387q0 39 -37 39q-23 0 -45.5 -21t-41.5 -51t-32.5 -63t-18.5 -56q27 1 57.5 12.5t56.5 31.5t43.5 47.5t17.5 60.5zM507 485l-26 -71h2q25 17 56.5 33t68.5 17q42 0 74 -19.5t32 -66.5q0 -45 -31.5 -77.5t-76.5 -53.5t-95 -33t-87 -17q-2 -9 -4 -23t-2 -32
q0 -35 20 -62t58 -27q50 0 93 27t72 51l19 -24q-24 -22 -50 -43.5t-56 -39t-64 -28.5t-73 -11q-30 0 -52.5 11t-37.5 29t-22 40t-7 43q0 15 0.5 26t1.5 16h-2q-9 -14 -30 -41.5t-49.5 -55t-63.5 -48t-72 -20.5q-47 0 -66 31.5t-19 73.5q0 47 32 109t80 117.5t104 94
t105 38.5q25 0 41 -9.5t30 -28.5l29 67l58 15zM367 347q1 29 -13 43.5t-34 14.5q-34 0 -69.5 -27t-65 -68.5t-48.5 -90t-19 -90.5q0 -23 12.5 -38.5t35.5 -15.5q34 0 70 31.5t65 75t47.5 90t18.5 75.5z" />
    <glyph glyph-name="Ydieresis" horiz-adv-x="630" 
d="M125 0l5 30h19q49 0 61.5 19t20.5 63l32 165l-107 282q-15 38 -26 60t-23 33t-28 13.5t-40 2.5l5 30q41 -1 81.5 -2.5t81.5 -1.5q35 0 69 1.5t69 2.5l-4 -30q-41 0 -58 -6t-17 -24q0 -5 4 -25t22 -68l75 -204l151 240q14 22 19 34.5t5 21.5q0 19 -24 25t-50 6l4 30
q30 -1 60.5 -2.5t60.5 -1.5t60 1.5t60 2.5l-4 -30q-41 0 -64 -15t-50 -56l-208 -316l-26 -143q-7 -37 -8.5 -52.5t-1.5 -26.5q0 -10 9.5 -19.5t50.5 -9.5h30l-5 -30q-40 1 -81 2.5t-82 1.5q-37 0 -74 -1.5t-74 -2.5zM512 881q22 0 39 -16.5t17 -39.5t-17 -39.5t-39 -16.5
t-39 16.5t-17 39.5t17 39.5t39 16.5zM301 881q23 0 39.5 -16.5t16.5 -39.5t-16.5 -39.5t-39.5 -16.5t-39.5 16.5t-16.5 39.5t16.5 39.5t39.5 16.5z" />
    <glyph glyph-name="radical" horiz-adv-x="519" 
d="M498 786l-197 -1000h-67l-157 363l-49 -21l-19 42l107 45l150 -357l181 928h51z" />
    <glyph glyph-name="Aring" horiz-adv-x="685" 
d="M-57 0l5 30h12q38 0 58.5 16t43.5 57l282 495q14 23 31.5 53.5t33.5 59.5l54 15l14 -8q7 -43 14 -85t15 -85l73 -418q5 -26 9 -44.5t12.5 -31t22.5 -18.5t38 -6h23l-5 -30q-37 1 -75 2.5t-75 1.5q-38 0 -76 -1.5t-76 -2.5l5 30h25q33 0 43 7.5t10 24.5q0 8 -2 20.5
t-4 25.5l-20 134h-235l-64 -124q-7 -13 -14 -29.5t-7 -31.5q0 -16 19.5 -21.5t45.5 -5.5h21l-4 -30q-32 1 -64 2.5t-63 1.5t-63 -2t-63 -2zM426 292l-47 274h-2l-150 -274h199zM454 945q41 0 72 -31t31 -72q0 -42 -31 -72.5t-72 -30.5q-42 0 -72.5 30.5t-30.5 72.5
q0 41 30.5 72t72.5 31zM454 901q-25 0 -42 -17.5t-17 -41.5q0 -25 17 -42t42 -17q24 0 41.5 17t17.5 42q0 24 -17.5 41.5t-41.5 17.5z" />
    <glyph glyph-name="scedilla" horiz-adv-x="389" 
d="M66 -91l54 78q-43 3 -78.5 23.5t-35.5 58.5q0 23 5 36t27 37h19q5 -27 22.5 -43.5t39.5 -25t44 -11.5t35 -3q34 0 55 8t21 32q0 13 -9 26t-52 41l-87 57q-28 18 -40 41.5t-12 42.5q0 29 18 54.5t40.5 44.5t43 31t24.5 14q26 13 67 13q17 0 35 -2t33 -8.5t24.5 -19
t9.5 -34.5q0 -17 -8.5 -34t-15.5 -27h-23q-10 32 -38 44.5t-57 12.5q-35 0 -56 -9t-21 -30q0 -17 16.5 -34t44.5 -35l68 -43q31 -20 47 -38.5t16 -56.5q0 -22 -13 -49.5t-37 -51.5t-58 -41.5t-74 -20.5l-34 -47q8 2 15 2h14q33 0 58 -19t25 -56q0 -34 -34 -57.5t-85 -23.5
q-37 0 -64 8.5t-40 14.5l17 31q12 -7 31 -11.5t36 -4.5q24 0 39.5 9.5t15.5 30.5q0 19 -12.5 29.5t-31.5 10.5q-16 0 -32 -7z" />
    <glyph glyph-name="ring" horiz-adv-x="278" 
d="M234 748q41 0 72 -31t31 -72q0 -42 -31 -72.5t-72 -30.5q-42 0 -72.5 30.5t-30.5 72.5q0 41 30.5 72t72.5 31zM234 704q-25 0 -42 -17.5t-17 -41.5q0 -25 17 -42t42 -17q24 0 41.5 17t17.5 42q0 24 -17.5 41.5t-41.5 17.5z" />
    <glyph glyph-name="tilde" horiz-adv-x="278" 
d="M373 692h37q-7 -42 -38 -76.5t-81 -34.5q-19 0 -37 7t-35 15t-34.5 15t-34.5 7q-22 0 -35.5 -16t-17.5 -27h-37q7 42 38 76.5t81 34.5q19 0 37 -6.5t35 -14.5t34.5 -15t34.5 -7q22 0 35.5 16t17.5 26z" />
    <glyph glyph-name="Omacron" horiz-adv-x="852" 
d="M686 414q0 46 -9 93t-32.5 84t-64 60.5t-102.5 23.5q-73 0 -124.5 -39t-84.5 -96.5t-48 -125t-15 -124.5q0 -46 9 -93.5t32.5 -86t64 -63t102.5 -24.5q64 0 115 32.5t85.5 86.5t53 125t18.5 147zM824 390q0 -87 -32.5 -161t-88.5 -128.5t-130 -85t-157 -30.5t-147.5 24
t-109 67t-68 102.5t-23.5 129.5q0 94 32.5 169t88.5 127.5t130.5 80.5t158.5 28q82 0 146.5 -25.5t108.5 -69.5t67.5 -102.5t23.5 -125.5zM375 782l15 62h278l-15 -62h-278z" />
    <glyph glyph-name="commaaccent" horiz-adv-x="278" 
d="M-39 -264l-7 23q14 1 33 6.5t36.5 14.5t29.5 22t12 29q0 17 -10 21.5t-22.5 8.5t-22.5 13t-10 34q0 22 15 36t37 14q38 0 54.5 -22.5t16.5 -56.5q0 -36 -16.5 -62t-40.5 -43t-52.5 -26t-52.5 -12z" />
    <glyph glyph-name="ecircumflex" horiz-adv-x="444" 
d="M383 131l19 -24q-24 -22 -50 -43.5t-56 -39t-64 -28.5t-73 -11q-35 0 -60 13t-40.5 34.5t-23 49t-7.5 56.5q0 60 25.5 118t67.5 104.5t96.5 75t112.5 28.5q42 0 74 -19.5t32 -66.5q0 -45 -31.5 -77.5t-76.5 -53.5t-95 -33t-87 -17q-2 -9 -4 -23t-2 -32q0 -35 20 -62
t58 -27q50 0 93 27t72 51zM330 387q0 39 -37 39q-23 0 -45.5 -21t-41.5 -51t-32.5 -63t-18.5 -56q27 1 57.5 12.5t56.5 31.5t43.5 47.5t17.5 60.5zM170 560l159 170h67l88 -170h-45l-86 99l-133 -99h-50z" />
    <glyph glyph-name="OE" horiz-adv-x="1093" 
d="M527 100l74 417q5 28 8.5 52.5t3.5 40.5q0 35 -36 50t-87 15q-83 0 -139 -38.5t-90 -98.5t-48.5 -132.5t-14.5 -141.5q0 -45 12.5 -88t37.5 -77t63.5 -55t89.5 -21q58 0 88 13.5t38 63.5zM746 649l-46 -258l117 2q27 0 43.5 3t27 12t17.5 27t14 48h32l-39 -237h-33
q1 11 2.5 23.5t1.5 32.5q0 28 -15 34t-38 6h-139l-38 -212q-3 -16 -5 -27.5t-2 -23.5q0 -16 13 -25.5t68 -9.5h37q67 0 105.5 4.5t63 18.5t40.5 40t38 69h31l-47 -176q-43 1 -99 2.5t-110 1.5q-58 0 -103 -1.5t-87 -2.5q-22 -1 -46 -3t-49 -4t-50.5 -5t-54.5 -3
q-72 0 -132 22t-104 64t-68 102.5t-24 138.5t26.5 150t78.5 128t129 89.5t178 33.5q18 0 39.5 -1.5t45.5 -5.5q26 -4 55.5 -5.5t44.5 -2.5q17 -1 65 -2.5t118 -1.5q43 0 97.5 1.5t106.5 2.5l-18 -153h-29v12q0 56 -21.5 74.5t-79.5 18.5h-84.5t-73.5 -1z" />
    <glyph glyph-name="ucircumflex" horiz-adv-x="574" 
d="M540 434l-93 -279q-7 -22 -11 -38t-4 -22q0 -20 12 -20q9 0 21.5 9t25.5 21t24 23.5t16 16.5l19 -22q-52 -57 -98 -97.5t-83 -40.5q-25 0 -37 14.5t-12 31.5q0 6 2.5 19t10 40t22 71.5t39.5 115.5l-2 2q-20 -31 -52 -81t-71 -97t-83 -81.5t-88 -34.5q-31 0 -39.5 18
t-8.5 37t14 65.5t30 96.5t30 91.5t14 50.5q0 5 -3 9.5t-11 4.5q-7 0 -18 -7t-22.5 -17t-21.5 -19t-15 -14l-19 20q15 16 37 40.5t47.5 47t52 39t50.5 16.5q47 0 47 -50q0 -28 -14.5 -74.5t-32.5 -94t-32.5 -87.5t-14.5 -55q0 -7 4 -12.5t12 -5.5q16 0 42.5 26.5t53 60
t48.5 65t29 42.5q25 38 42 71.5t29 59t20.5 40t16.5 14.5q6 0 12.5 -3t12.5 -5zM210 560l159 170h67l88 -170h-45l-86 99l-133 -99h-50z" />
    <glyph glyph-name="Emacron" horiz-adv-x="648" 
d="M-8 0l5 30q23 0 39 1.5t27 8t18 19t11 35.5l81 431q10 53 13 74t3 32q0 25 -21.5 30.5t-65.5 6.5l4 30q38 0 63 -1t43 -1.5t32 -1t30 -0.5q22 0 51 0.5t71 1t100 1.5t138 1q-6 -36 -10.5 -73.5t-8.5 -75.5h-31q1 5 1 12v13q0 24 -6 40.5t-22.5 26.5t-45.5 14.5t-76 4.5
q-17 0 -50.5 -2t-62.5 -4l-48 -262h120q52 0 74 20t33 73h29q-3 -17 -9 -47.5t-12 -65t-12 -68t-10 -56.5h-27q1 8 2 19.5t1 25.5q0 18 -2.5 29t-12.5 17t-30.5 7.5t-56.5 1.5q-35 0 -57.5 -0.5t-37.5 -1.5l-39 -216q-3 -16 -5 -27.5t-2 -23.5q0 -16 13 -25.5t68 -9.5h76
q57 0 90.5 5.5t54.5 19.5t35.5 39.5t33.5 65.5h31q-13 -44 -24 -87t-22 -87q-80 1 -160 2.5t-160 1.5q-66 0 -132 -1.5t-132 -2.5zM275 782l15 62h278l-15 -62h-278z" />
    <glyph glyph-name="Ecircumflex" horiz-adv-x="648" 
d="M-8 0l5 30q23 0 39 1.5t27 8t18 19t11 35.5l81 431q10 53 13 74t3 32q0 25 -21.5 30.5t-65.5 6.5l4 30q38 0 63 -1t43 -1.5t32 -1t30 -0.5q22 0 51 0.5t71 1t100 1.5t138 1q-6 -36 -10.5 -73.5t-8.5 -75.5h-31q1 5 1 12v13q0 24 -6 40.5t-22.5 26.5t-45.5 14.5t-76 4.5
q-17 0 -50.5 -2t-62.5 -4l-48 -262h120q52 0 74 20t33 73h29q-3 -17 -9 -47.5t-12 -65t-12 -68t-10 -56.5h-27q1 8 2 19.5t1 25.5q0 18 -2.5 29t-12.5 17t-30.5 7.5t-56.5 1.5q-35 0 -57.5 -0.5t-37.5 -1.5l-39 -216q-3 -16 -5 -27.5t-2 -23.5q0 -16 13 -25.5t68 -9.5h76
q57 0 90.5 5.5t54.5 19.5t35.5 39.5t33.5 65.5h31q-13 -44 -24 -87t-22 -87q-80 1 -160 2.5t-160 1.5q-66 0 -132 -1.5t-132 -2.5zM252 745l159 170h67l88 -170h-45l-86 99l-133 -99h-50z" />
    <glyph glyph-name="aring" horiz-adv-x="537" 
d="M482 388l-70 -231q-7 -22 -10 -36.5t-3 -19.5q0 -16 17 -16t39.5 20.5t45.5 46.5l21 -21q-15 -16 -37.5 -40.5t-48.5 -48t-53 -40.5t-51 -17q-20 0 -32.5 12t-12.5 33q0 15 5 36t12 43t14.5 41.5t11.5 31.5l-2 2q-15 -27 -42 -61.5t-59.5 -65t-68 -51.5t-69.5 -21
q-41 0 -56 28t-15 57q0 71 36 141.5t87.5 126.5t109 91t101.5 35q21 0 33.5 -8t26.5 -31l20 47q2 6 5.5 8t14.5 2q38 0 46.5 -3.5t8.5 -9.5q0 -5 -8.5 -30t-16.5 -51zM118 146q0 -24 8 -47.5t34 -23.5q33 0 69.5 32.5t67.5 77t51 91.5t20 77q0 23 -12 39t-38 16
q-39 0 -75.5 -29t-64 -70.5t-44 -86t-16.5 -76.5zM404 748q41 0 72 -31t31 -72q0 -42 -31 -72.5t-72 -30.5q-42 0 -72.5 30.5t-30.5 72.5q0 41 30.5 72t72.5 31zM404 704q-25 0 -42 -17.5t-17 -41.5q0 -25 17 -42t42 -17q24 0 41.5 17t17.5 42q0 24 -17.5 41.5t-41.5 17.5z
" />
    <glyph glyph-name="uogonek" horiz-adv-x="574" 
d="M531 145l19 -22q-39 -43 -74.5 -77t-67.5 -50q-22 -19 -47.5 -45t-25.5 -61q0 -22 14.5 -39.5t37.5 -17.5t35.5 6.5t18.5 11.5l16 -18q-16 -15 -42 -29.5t-64 -14.5q-41 0 -66.5 21.5t-25.5 60.5q0 43 27.5 71t61.5 47q-14 5 -21 17t-7 25q0 6 2.5 19t10 40t22 71.5
t39.5 115.5l-2 2q-20 -31 -52 -81t-71 -97t-83 -81.5t-88 -34.5q-31 0 -39.5 18t-8.5 37t14 65.5t30 96.5t30 91.5t14 50.5q0 5 -3 9.5t-11 4.5q-7 0 -18 -7t-22.5 -17t-21.5 -19t-15 -14l-19 20q15 16 37 40.5t47.5 47t52 39t50.5 16.5q47 0 47 -50q0 -28 -14.5 -74.5
t-32.5 -94t-32.5 -87.5t-14.5 -55q0 -7 4 -12.5t12 -5.5q16 0 42.5 26.5t53 60t48.5 65t29 42.5q25 38 42 71.5t29 59t20.5 40t16.5 14.5q6 0 12.5 -3t12.5 -5l50 -22l-93 -279q-7 -22 -11 -38t-4 -22q0 -20 12 -20q9 0 21.5 9t25.5 21t24 23.5t16 16.5z" />
    <glyph glyph-name="Thorn" horiz-adv-x="593" 
d="M-8 0l5 30q23 0 39 1.5t27 8t18 19t11 35.5l81 431q10 53 13 74t3 32q0 25 -21.5 30.5t-65.5 6.5l4 30q40 -1 80 -2.5t80 -1.5q35 0 71.5 1.5t74.5 2.5l-5 -30q-44 -1 -64.5 -8t-27.5 -43l-3 -21q16 1 37.5 1.5t43.5 0.5q35 0 71 -7t65 -25.5t47.5 -50t18.5 -80.5
q0 -53 -22.5 -92t-57 -65.5t-76.5 -39.5t-80 -13q-54 0 -79 5l7 37q9 -1 19 -2.5t27 -1.5q31 0 54.5 16t39 41t23 55.5t7.5 60.5q0 59 -25.5 91.5t-77.5 32.5q-14 0 -25 -1t-26 -3l-80 -434q-4 -19 -4 -53q0 -39 62 -39h34l-4 -30q-43 1 -87 2.5t-87 1.5q-36 0 -72.5 -1.5
t-72.5 -2.5z" />
    <glyph glyph-name="lessequal" 
d="M26 269v86l504 183v-89l-389 -137l389 -134v-89zM26 52h504v-84h-504v84z" />
    <glyph glyph-name="Eth" horiz-adv-x="778" 
d="M321 658l-44 -240h178l-9 -56h-179l-44 -238q-1 -10 -3 -22t-2 -23q0 -14 9 -22.5t23.5 -12.5t32 -5t34.5 -1q70 0 126.5 28t97 76.5t62.5 115t22 143.5q0 117 -61.5 188t-182.5 71q-15 0 -30 -0.5t-30 -1.5zM-8 0l5 30q23 0 39 1.5t27 8t18 19t11 35.5l51 268h-95l9 56
h96l28 150q2 11 4 24.5t2 26.5q0 29 -20 39t-54 10h-17l4 30q34 -1 69.5 -2.5t77.5 -1.5q45 0 94.5 2t91.5 2q75 0 136 -24t104 -65t66.5 -96.5t23.5 -118.5q0 -103 -36 -177.5t-94.5 -122.5t-132 -71t-149.5 -23q-41 0 -73 0.5t-58 1.5t-47.5 1.5t-42.5 0.5q-34 0 -69 -1.5
t-69 -2.5z" />
    <glyph glyph-name="agrave" horiz-adv-x="537" 
d="M482 388l-70 -231q-7 -22 -10 -36.5t-3 -19.5q0 -16 17 -16t39.5 20.5t45.5 46.5l21 -21q-15 -16 -37.5 -40.5t-48.5 -48t-53 -40.5t-51 -17q-20 0 -32.5 12t-12.5 33q0 15 5 36t12 43t14.5 41.5t11.5 31.5l-2 2q-15 -27 -42 -61.5t-59.5 -65t-68 -51.5t-69.5 -21
q-41 0 -56 28t-15 57q0 71 36 141.5t87.5 126.5t109 91t101.5 35q21 0 33.5 -8t26.5 -31l20 47q2 6 5.5 8t14.5 2q38 0 46.5 -3.5t8.5 -9.5q0 -5 -8.5 -30t-16.5 -51zM118 146q0 -24 8 -47.5t34 -23.5q33 0 69.5 32.5t67.5 77t51 91.5t20 77q0 23 -12 39t-38 16
q-39 0 -75.5 -29t-64 -70.5t-44 -86t-16.5 -76.5zM441 560l-136 96q-11 8 -19 18t-8 24q0 19 13.5 28.5t30.5 9.5q19 0 30.5 -10t18.5 -21l110 -145h-40z" />
    <glyph glyph-name="Ugrave" horiz-adv-x="722" 
d="M800 698l-4 -30q-56 0 -74.5 -18t-27.5 -64l-76 -404q-12 -62 -40 -100t-65.5 -60t-80.5 -29.5t-84 -7.5q-49 0 -94 10t-79.5 32.5t-55 58.5t-20.5 89q0 32 4.5 63.5t7.5 47.5l46 239q11 53 13.5 74t2.5 32q0 25 -21.5 30.5t-65.5 6.5l4 30q40 -1 80 -2.5t80 -1.5
q35 0 71.5 1.5t74.5 2.5l-5 -30q-44 -1 -64.5 -8t-27.5 -43l-70 -390q-4 -21 -5 -35.5t-1 -29.5q0 -68 39.5 -97.5t96.5 -29.5q56 0 95 12.5t65.5 38t41.5 64.5t23 92l46 302q8 48 8 78q0 20 -17.5 33t-66.5 13l4 30q29 -1 59 -2.5t59 -1.5q31 0 62 1.5t62 2.5zM506 745
l-136 96q-10 7 -18.5 18t-8.5 24q0 19 13.5 28.5t30.5 9.5q19 0 30 -10.5t19 -20.5l110 -145h-40z" />
    <glyph glyph-name="emacron" horiz-adv-x="444" 
d="M383 131l19 -24q-24 -22 -50 -43.5t-56 -39t-64 -28.5t-73 -11q-35 0 -60 13t-40.5 34.5t-23 49t-7.5 56.5q0 60 25.5 118t67.5 104.5t96.5 75t112.5 28.5q42 0 74 -19.5t32 -66.5q0 -45 -31.5 -77.5t-76.5 -53.5t-95 -33t-87 -17q-2 -9 -4 -23t-2 -32q0 -35 20 -62
t58 -27q50 0 93 27t72 51zM330 387q0 39 -37 39q-23 0 -45.5 -21t-41.5 -51t-32.5 -63t-18.5 -56q27 1 57.5 12.5t56.5 31.5t43.5 47.5t17.5 60.5zM198 597l15 62h278l-15 -62h-278z" />
    <glyph glyph-name="questiondown" horiz-adv-x="444" 
d="M340 119q0 -39 -20.5 -62t-51 -38t-66 -25t-66 -22t-51 -28.5t-20.5 -45.5q0 -31 19 -47.5t50 -16.5q16 0 29 5t25.5 11t24.5 11t27 5t25.5 -12.5t10.5 -26.5q0 -17 -8 -27.5t-20.5 -16.5t-27 -8.5t-28.5 -2.5q-80 0 -131.5 47.5t-51.5 128.5q0 41 20.5 66.5t51 41.5
t66 26.5t66 21t51 25t20.5 39.5q0 22 -17 37t-40 15q-12 0 -20 -2.5t-14.5 -5.5t-13 -5.5t-16.5 -2.5q-13 0 -22.5 9.5t-9.5 23.5q0 24 14 34.5t37 10.5q32 0 60.5 -14t50.5 -37t34.5 -52.5t12.5 -59.5zM268 344q-30 0 -52 22.5t-22 51.5q0 30 22.5 52t51.5 22
q30 0 52 -21.5t22 -52.5q0 -30 -21.5 -52t-52.5 -22z" />
    <glyph glyph-name="cent" 
d="M223 62l124 333q-11 7 -23 7q-26 0 -51 -30t-44.5 -72t-32 -88t-12.5 -79q0 -50 39 -71zM141 -155l53 140q-66 5 -97 45t-31 98q0 65 29 121t74 99.5t98.5 72t102.5 37.5l51 138h37l-49 -132h7q27 0 50.5 -12.5t23.5 -44.5q0 -24 -14.5 -39.5t-39.5 -15.5q-22 0 -36 7
t-25 15l-119 -321h8q24 0 50 10t50 25t45.5 32.5t36.5 31.5l21 -27q-21 -21 -48.5 -44t-58.5 -43.5t-64 -35t-65 -17.5l-53 -140h-37z" />
    <glyph glyph-name="fi" horiz-adv-x="611" 
d="M9 -230l137 629h-97l11 50h96q11 71 37.5 129t66.5 99.5t92.5 64t115.5 22.5q21 0 45.5 -5t45 -16.5t34.5 -31t14 -49.5q0 -29 -14.5 -47.5t-46.5 -18.5q-31 0 -38 20t-7 42q0 31 -18 46.5t-46 15.5q-47 0 -76 -29.5t-47.5 -71.5t-29 -88.5t-19.5 -81.5h218
q22 0 45.5 1.5t40.5 2.5l10 -11q-28 -55 -44 -112l-51 -171q-4 -16 -8.5 -32t-4.5 -32q0 -20 12 -20q9 0 21.5 9t25.5 21t24 23.5t16 16.5l19 -22q-55 -67 -99 -102.5t-92 -35.5q-20 0 -32.5 13t-12.5 34q0 14 3 37.5t18 72.5l75 249l-5 8h-187q-31 -157 -77 -309t-92 -303
l-68 -25z" />
    <glyph glyph-name="edotaccent" horiz-adv-x="444" 
d="M383 131l19 -24q-24 -22 -50 -43.5t-56 -39t-64 -28.5t-73 -11q-35 0 -60 13t-40.5 34.5t-23 49t-7.5 56.5q0 60 25.5 118t67.5 104.5t96.5 75t112.5 28.5q42 0 74 -19.5t32 -66.5q0 -45 -31.5 -77.5t-76.5 -53.5t-95 -33t-87 -17q-2 -9 -4 -23t-2 -32q0 -35 20 -62
t58 -27q50 0 93 27t72 51zM330 387q0 39 -37 39q-23 0 -45.5 -21t-41.5 -51t-32.5 -63t-18.5 -56q27 1 57.5 12.5t56.5 31.5t43.5 47.5t17.5 60.5zM348 696q22 0 39 -16.5t17 -39.5t-17 -39.5t-39 -16.5t-39 16.5t-17 39.5t17 39.5t39 16.5z" />
    <glyph glyph-name="gbreve" horiz-adv-x="500" 
d="M219 80l122 -53q40 -17 64 -41.5t24 -64.5q0 -48 -27.5 -79t-67.5 -49t-85.5 -24.5t-82.5 -6.5q-25 0 -59.5 5.5t-66 18t-53.5 34.5t-22 55q0 29 14.5 48.5t37 34.5t50.5 27.5t56 25.5q-21 7 -39.5 20t-18.5 36q0 18 9 31.5t22 24t28 20t26 18.5q-40 16 -62.5 47.5
t-22.5 75.5t16.5 77.5t45 56.5t65.5 34.5t78 11.5q26 0 47.5 -5t40.5 -11q20 -6 38 -11.5t40 -5.5q23 0 35 6.5t25 6.5q10 0 21.5 -6.5t11.5 -27.5q0 -37 -33 -37q-11 0 -19.5 4.5t-17.5 9.5t-19.5 9.5t-25.5 4.5q10 -12 19 -33t9 -43q0 -42 -16 -75t-43.5 -55.5t-64 -34.5
t-76.5 -12q-15 0 -30 1t-29 3q-5 -2 -13.5 -12.5t-8.5 -20.5q0 -7 9 -14.5t49 -24.5zM231 -37l-77 34l-33 -21q-10 -6 -21.5 -14t-21.5 -18.5t-16.5 -24t-6.5 -30.5q0 -26 15 -43.5t36 -27.5t43.5 -14t38.5 -4q21 0 45.5 3.5t46 12.5t35.5 24.5t14 39.5q0 32 -26 47.5
t-72 35.5zM171 255q0 -30 15.5 -49.5t44.5 -19.5q28 0 47.5 17.5t32.5 42.5t19 53.5t6 50.5q0 32 -11 54t-52 22q-29 0 -48.5 -20t-31.5 -48t-17 -56.5t-5 -46.5zM179 720h36q2 -47 31.5 -70.5t75.5 -23.5t81 25t49 69h36q-12 -72 -59 -117t-115 -45q-75 0 -105 43.5
t-30 118.5z" />
    <glyph glyph-name="threequarters" horiz-adv-x="834" 
d="M680 173l33 164h-2l-165 -164h134zM645 0l24 117h-187l4 34l281 272h43l-51 -250h71l-12 -56h-70l-24 -117h-79zM203 -30l440 750h59l-440 -750h-59zM148 488l7 26q23 0 45 6.5t39.5 18.5t28.5 29.5t11 40.5q0 26 -15.5 42t-47.5 16q-33 0 -54.5 -10.5t-34.5 -19.5
l-11 17q27 20 59.5 35.5t73.5 15.5q19 0 38.5 -3.5t36 -12.5t27 -24t10.5 -38q0 -48 -34.5 -74.5t-84.5 -44.5v-2q46 -3 75.5 -25t29.5 -68q0 -31 -16 -56.5t-42 -44t-58 -29t-65 -10.5q-38 0 -67 6.5t-48 14.5l-14 47l32 12q13 -25 35 -40.5t53 -15.5q45 0 72.5 32t27.5 80
q0 41 -20 61t-66 20q-5 0 -11 -0.5t-12 -1.5z" />
    <glyph glyph-name="fraction" horiz-adv-x="167" 
d="M-146 -30l440 750h59l-440 -750h-59z" />
    <glyph glyph-name="Edotaccent" horiz-adv-x="648" 
d="M-8 0l5 30q23 0 39 1.5t27 8t18 19t11 35.5l81 431q10 53 13 74t3 32q0 25 -21.5 30.5t-65.5 6.5l4 30q38 0 63 -1t43 -1.5t32 -1t30 -0.5q22 0 51 0.5t71 1t100 1.5t138 1q-6 -36 -10.5 -73.5t-8.5 -75.5h-31q1 5 1 12v13q0 24 -6 40.5t-22.5 26.5t-45.5 14.5t-76 4.5
q-17 0 -50.5 -2t-62.5 -4l-48 -262h120q52 0 74 20t33 73h29q-3 -17 -9 -47.5t-12 -65t-12 -68t-10 -56.5h-27q1 8 2 19.5t1 25.5q0 18 -2.5 29t-12.5 17t-30.5 7.5t-56.5 1.5q-35 0 -57.5 -0.5t-37.5 -1.5l-39 -216q-3 -16 -5 -27.5t-2 -23.5q0 -16 13 -25.5t68 -9.5h76
q57 0 90.5 5.5t54.5 19.5t35.5 39.5t33.5 65.5h31q-13 -44 -24 -87t-22 -87q-80 1 -160 2.5t-160 1.5q-66 0 -132 -1.5t-132 -2.5zM425 881q23 0 39.5 -16.5t16.5 -39.5t-16.5 -39.5t-39.5 -16.5t-39.5 16.5t-16.5 39.5t16.5 39.5t39.5 16.5z" />
    <glyph glyph-name="Amacron" horiz-adv-x="685" 
d="M-57 0l5 30h12q38 0 58.5 16t43.5 57l282 495q14 23 31.5 53.5t33.5 59.5l54 15l14 -8q7 -43 14 -85t15 -85l73 -418q5 -26 9 -44.5t12.5 -31t22.5 -18.5t38 -6h23l-5 -30q-37 1 -75 2.5t-75 1.5q-38 0 -76 -1.5t-76 -2.5l5 30h25q33 0 43 7.5t10 24.5q0 8 -2 20.5
t-4 25.5l-20 134h-235l-64 -124q-7 -13 -14 -29.5t-7 -31.5q0 -16 19.5 -21.5t45.5 -5.5h21l-4 -30q-32 1 -64 2.5t-63 1.5t-63 -2t-63 -2zM426 292l-47 274h-2l-150 -274h199zM305 782l15 62h278l-15 -62h-278z" />
    <glyph glyph-name="imacron" horiz-adv-x="315" 
d="M265 145l19 -22q-55 -67 -99 -102.5t-92 -35.5q-20 0 -32.5 13t-12.5 34q0 18 14 64t31.5 96t31.5 93t14 56q0 9 -3 16t-12 7t-19.5 -7t-20.5 -17t-19.5 -20.5t-16.5 -17.5l-20 24q14 16 36.5 40t48 45.5t52.5 37t49 15.5q25 0 40 -10t15 -43q0 -19 -16 -66t-35.5 -99
t-35.5 -97.5t-16 -60.5q0 -13 12 -13q9 0 21.5 9t25.5 21t24 23.5t16 16.5zM94 597l15 62h278l-15 -62h-278z" />
    <glyph glyph-name="Rcommaaccent" horiz-adv-x="685" 
d="M317 660l-49 -286q10 -2 21.5 -2h24.5q72 0 112.5 50t40.5 130q0 46 -24 77t-81 31h-45zM-8 0l5 30q23 0 39 1.5t27 8t18 19t11 35.5l85 457q4 19 6.5 38t2.5 30q0 26 -19 37.5t-72 11.5l5 30q34 -1 69 -2.5t69 -1.5q40 0 77 2t91 2q34 0 69.5 -6.5t64 -23.5t47 -46
t18.5 -74q0 -44 -16 -76.5t-42.5 -56.5t-61.5 -39.5t-72 -24.5q28 -29 47.5 -58.5t44.5 -73.5l55 -94q29 -49 51.5 -72t58.5 -23h16l-4 -30q-26 1 -53 2.5t-53 1.5q-20 0 -40.5 -1.5t-40.5 -2.5q-59 81 -105 169.5t-102 171.5l-26 2l-42 -234q-2 -10 -3.5 -19.5t-1.5 -19.5
q0 -20 12.5 -30t47.5 -10h33l-4 -30q-40 1 -79 2.5t-79 1.5q-38 0 -77 -1.5t-77 -2.5zM225 -264l-7 23q14 1 33 6.5t36.5 14.5t29.5 22t12 29q0 17 -10 21.5t-22.5 8.5t-22.5 13t-10 34q0 22 15 36t37 14q38 0 54.5 -22.5t16.5 -56.5q0 -36 -16.5 -62t-40.5 -43t-52.5 -26
t-52.5 -12z" />
    <glyph glyph-name="Umacron" horiz-adv-x="722" 
d="M800 698l-4 -30q-56 0 -74.5 -18t-27.5 -64l-76 -404q-12 -62 -40 -100t-65.5 -60t-80.5 -29.5t-84 -7.5q-49 0 -94 10t-79.5 32.5t-55 58.5t-20.5 89q0 32 4.5 63.5t7.5 47.5l46 239q11 53 13.5 74t2.5 32q0 25 -21.5 30.5t-65.5 6.5l4 30q40 -1 80 -2.5t80 -1.5
q35 0 71.5 1.5t74.5 2.5l-5 -30q-44 -1 -64.5 -8t-27.5 -43l-70 -390q-4 -21 -5 -35.5t-1 -29.5q0 -68 39.5 -97.5t96.5 -29.5q56 0 95 12.5t65.5 38t41.5 64.5t23 92l46 302q8 48 8 78q0 20 -17.5 33t-66.5 13l4 30q29 -1 59 -2.5t59 -1.5q31 0 62 1.5t62 2.5zM335 782
l15 62h278l-15 -62h-278z" />
    <glyph glyph-name="oslash" horiz-adv-x="537" 
d="M394 318l-238 -234q6 -28 23 -44.5t51 -16.5q45 0 76 33.5t50.5 80.5t28.5 97.5t9 83.5zM150 131l239 235q-5 25 -21.5 42.5t-53.5 17.5q-44 0 -75.5 -32t-51 -78t-28.5 -97t-9 -88zM7 -10l71 70q-40 51 -40 118q0 61 22.5 113t60 90.5t87 60.5t103.5 22q43 0 76.5 -12
t56.5 -32l66 65l27 -26l-68 -67q37 -49 37 -121q0 -55 -19.5 -106.5t-55.5 -91.5t-86 -64t-111 -24q-40 0 -73 12.5t-58 34.5l-69 -68z" />
    <glyph glyph-name="Ograve" horiz-adv-x="852" 
d="M686 414q0 46 -9 93t-32.5 84t-64 60.5t-102.5 23.5q-73 0 -124.5 -39t-84.5 -96.5t-48 -125t-15 -124.5q0 -46 9 -93.5t32.5 -86t64 -63t102.5 -24.5q64 0 115 32.5t85.5 86.5t53 125t18.5 147zM824 390q0 -87 -32.5 -161t-88.5 -128.5t-130 -85t-157 -30.5t-147.5 24
t-109 67t-68 102.5t-23.5 129.5q0 94 32.5 169t88.5 127.5t130.5 80.5t158.5 28q82 0 146.5 -25.5t108.5 -69.5t67.5 -102.5t23.5 -125.5zM561 745l-136 96q-11 7 -19 18t-8 24q0 19 13.5 28.5t30.5 9.5q19 0 30.5 -10.5t18.5 -20.5l110 -145h-40z" />
    <glyph glyph-name="rcommaaccent" horiz-adv-x="389" 
d="M69 87l49 162q2 9 5.5 22t6.5 25.5t5.5 23.5t2.5 16q0 7 -2 14.5t-12 7.5q-9 0 -20.5 -6.5t-22.5 -15.5t-20 -19t-15 -16l-18 22q13 17 34.5 41t46.5 46t51 38t48 16q23 0 32.5 -12t9.5 -33q0 -19 -5 -43t-12.5 -48t-15 -47.5t-12.5 -41.5l2 -2q15 23 37 61t48 75
t55.5 64t59.5 27q42 0 42 -39q0 -23 -11.5 -48t-37.5 -25q-15 0 -23.5 3t-21.5 3q-19 0 -42 -22.5t-47 -59.5t-47.5 -84.5t-43.5 -98.5q-10 -25 -16.5 -50.5t-10.5 -32.5q-7 -10 -18.5 -12.5t-34.5 -2.5q-28 0 -37 5.5t-9 12.5q0 2 2.5 11.5t5.5 21t6.5 23.5t5.5 18z
M-25 -264l-7 23q14 1 33 6.5t36.5 14.5t29.5 22t12 29q0 17 -10 21.5t-22.5 8.5t-22.5 13t-10 34q0 22 15 36t37 14q38 0 54.5 -22.5t16.5 -56.5q0 -36 -16.5 -62t-40.5 -43t-52.5 -26t-52.5 -12z" />
    <glyph glyph-name="Scedilla" horiz-adv-x="538" 
d="M59 204l30 2q0 -35 9 -68t26.5 -58.5t43.5 -41t61 -15.5q24 0 47.5 5.5t42.5 19t30.5 36.5t11.5 57q0 32 -17 61t-42.5 57t-55.5 56.5t-55.5 59.5t-42.5 66t-17 77q0 48 18 84.5t48 61t68.5 37t78.5 12.5q41 0 68 -7t41 -12q19 -7 29 -7q13 0 17 12l24 -2
q-9 -44 -16.5 -89t-12.5 -90l-32 -4q1 8 1.5 19t0.5 27q0 20 -6 40t-20 37t-36.5 27.5t-56.5 10.5q-54 0 -84 -28t-30 -83q0 -26 18 -52t45 -54t58 -58t58 -63.5t45 -70.5t18 -79q0 -95 -62.5 -146t-156.5 -55l-34 -46q8 2 15 2h14q33 0 58 -19t25 -56q0 -34 -34 -57.5
t-85 -23.5q-37 0 -64 8.5t-40 14.5l17 31q12 -7 31 -11.5t36 -4.5q24 0 39.5 9.5t15.5 30.5q0 19 -12.5 29.5t-31.5 10.5q-16 0 -32 -7l-12 12l54 78q-38 4 -72.5 16.5t-50.5 19.5l-39 -23l-18 2q8 47 14.5 104.5t10.5 97.5z" />
    <glyph glyph-name="Otilde" horiz-adv-x="852" 
d="M686 414q0 46 -9 93t-32.5 84t-64 60.5t-102.5 23.5q-73 0 -124.5 -39t-84.5 -96.5t-48 -125t-15 -124.5q0 -46 9 -93.5t32.5 -86t64 -63t102.5 -24.5q64 0 115 32.5t85.5 86.5t53 125t18.5 147zM824 390q0 -87 -32.5 -161t-88.5 -128.5t-130 -85t-157 -30.5t-147.5 24
t-109 67t-68 102.5t-23.5 129.5q0 94 32.5 169t88.5 127.5t130.5 80.5t158.5 28q82 0 146.5 -25.5t108.5 -69.5t67.5 -102.5t23.5 -125.5zM663 877h37q-7 -42 -38 -76.5t-81 -34.5q-19 0 -37 7t-35 15t-34.5 15t-34.5 7q-22 0 -35.5 -16t-17.5 -27h-37q7 42 38 76.5t81 34.5
q19 0 37 -7t35 -14q17 -8 34.5 -15t34.5 -7q22 0 35.5 15.5t17.5 26.5z" />
    <glyph glyph-name="eth" horiz-adv-x="537" 
d="M150 137q0 -24 2.5 -44.5t11 -36t24.5 -24.5t42 -9q44 -1 75.5 31t51 78t28.5 96t9 84q0 24 -2.5 44.5t-11 36t-24.5 24.5t-42 9q-44 2 -75.5 -30.5t-51 -78.5t-28.5 -96t-9 -84zM199 593l118 59q-23 23 -50.5 43.5t-56.5 35.5l24 33q43 -15 81 -37t63 -46l115 58l28 -36
l-111 -56q8 -12 23.5 -33.5t32 -57.5t28.5 -88t12 -126q0 -99 -25 -167t-65 -110.5t-90 -61t-100 -18.5q-44 0 -78.5 16t-59 43t-37.5 61.5t-13 72.5q0 61 22.5 113t61 90.5t89 60.5t107.5 22q22 0 41.5 -5t37.5 -19q0 97 -52 175l-118 -59z" />
    <glyph glyph-name="fl" horiz-adv-x="611" 
d="M9 -230l137 629h-97l11 50h97q5 25 12 51.5t18 58.5q12 38 42 74.5t68.5 65.5t81.5 47t82 18q37 0 60.5 -10t38.5 -20l69 30l12 -11q-13 -46 -31 -109t-32 -121l-96 -381q-3 -13 -6 -26.5t-3 -21.5q0 -7 3.5 -13t11.5 -6q15 0 40.5 22.5t51.5 50.5l19 -20
q-38 -42 -65.5 -70t-49 -44t-38.5 -22.5t-35 -6.5q-31 0 -40.5 17t-9.5 39q0 19 8.5 56t17.5 75l121 497q-10 6 -34 19.5t-57 13.5q-57 0 -84 -34.5t-41 -99.5l-24 -119h117l-11 -50h-117q-31 -157 -77 -309t-92 -303l-68 -25z" />
    <glyph glyph-name="Uogonek" horiz-adv-x="722" 
d="M800 698l-4 -30q-56 0 -74.5 -18t-27.5 -64l-76 -404q-14 -77 -54.5 -119t-91.5 -59q-11 -10 -25.5 -21.5t-27 -25.5t-21.5 -30.5t-9 -36.5q0 -22 14.5 -39.5t37.5 -17.5t35.5 6.5t18.5 11.5l16 -18q-16 -15 -42 -29.5t-64 -14.5q-41 0 -66.5 21.5t-25.5 60.5
q0 43 27.5 71t61.5 47q-12 -1 -27 -3q-7 0 -13.5 -0.5t-13.5 -0.5q-49 0 -94 10t-79.5 32.5t-55 58.5t-20.5 89q0 32 4.5 63.5t7.5 47.5l46 239q11 53 13.5 74t2.5 32q0 25 -21.5 30.5t-65.5 6.5l4 30q40 -1 80 -2.5t80 -1.5q35 0 71.5 1.5t74.5 2.5l-5 -30q-44 -1 -64.5 -8
t-27.5 -43l-70 -390q-4 -21 -5 -35.5t-1 -29.5q0 -68 39.5 -97.5t96.5 -29.5q56 0 95 12.5t65.5 38t41.5 64.5t23 92l46 302q8 48 8 78q0 20 -17.5 33t-66.5 13l4 30q29 -1 59 -2.5t59 -1.5q31 0 62 1.5t62 2.5z" />
    <glyph glyph-name="Gbreve" horiz-adv-x="815" 
d="M690 167l-20 -121q-15 -7 -41 -17.5t-59 -20t-70.5 -16.5t-75.5 -7q-75 0 -140 20t-113 60.5t-75.5 102t-27.5 143.5q0 95 35.5 169.5t96 126.5t140.5 79t170 27q50 0 85 -6.5t52 -11.5q36 -10 53 -18.5t30 -8.5q22 0 25 21l24 -4q-10 -47 -18.5 -93.5t-14.5 -95.5l-30 4
q0 87 -53 131t-134 44q-79 0 -139 -33t-101 -86t-62 -119t-21 -133q0 -58 16 -109.5t44.5 -89.5t68.5 -60t89 -22q12 0 31.5 1.5t40 7.5t36.5 18.5t20 33.5l18 96q2 8 4 23t2 20q0 25 -18 32t-60 7h-20l4 30q40 -1 80 -2.5t81 -1.5q37 0 73 1.5t73 2.5l-4 -30h-19
q-22 0 -35 -5t-20.5 -16.5t-12 -29.5t-8.5 -44zM388 905h36q2 -47 31 -70.5t76 -23.5t81.5 25t48.5 69h36q-12 -72 -59.5 -117t-114.5 -45q-75 0 -105 43.5t-30 118.5z" />
    <glyph glyph-name="ntilde" horiz-adv-x="574" 
d="M48 61l77 234q5 16 9 28.5t4 20.5q0 5 -3 9.5t-11 4.5q-7 0 -18 -7t-22.5 -17t-21.5 -19t-15 -14l-19 20q15 16 36 40.5t45.5 47t50 39t49.5 16.5q47 0 47 -50q0 -15 -8 -41.5t-18.5 -56t-21 -57t-14.5 -43.5l2 -2q17 28 50.5 70.5t73.5 82.5t82.5 68.5t77.5 28.5
q25 0 40 -10t15 -43q0 -19 -16 -66t-35.5 -99t-35.5 -97.5t-16 -60.5q0 -13 12 -13q9 0 21.5 9t25.5 21t24 23.5t16 16.5l19 -22q-55 -67 -99 -102.5t-92 -35.5q-20 0 -32.5 13t-12.5 34q0 18 14 63.5t31.5 95t31.5 91t14 51.5q0 25 -25 25q-20 0 -48 -25.5t-56 -60.5
t-51.5 -70.5t-34.5 -54.5q-22 -41 -33.5 -70t-19 -47t-14.5 -26.5t-20 -8.5q-37 0 -53 2.5t-16 12.5q0 7 4 19.5t10 31.5zM521 692h37q-7 -42 -38 -76.5t-81 -34.5q-19 0 -37 7t-35 15t-34.5 15t-34.5 7q-22 0 -35.5 -16t-17.5 -27h-37q7 42 38 76.5t81 34.5q19 0 37 -6.5
t35 -14.5t34.5 -15t34.5 -7q22 0 35.5 16t17.5 26z" />
    <glyph glyph-name="AE" horiz-adv-x="1000" 
d="M-66 0l5 30h6q19 0 34 4t33 19.5t43 47t65 85.5l291 392q12 16 21 31t9 29q0 19 -20 24.5t-56 5.5h-11l5 30q52 -1 113 -2.5t135 -1.5q23 0 51.5 0.5t70.5 1t99.5 1.5t137.5 1l-18 -153h-29v12q0 56 -21.5 74.5t-79.5 18.5h-84.5t-73.5 -1l-49 -278l111 2q27 0 43.5 3
t27 12t17 27t14.5 48h32l-39 -237h-33q2 11 3 23.5t1 32.5q0 28 -15 34t-38 6h-133l-35 -192q-3 -16 -5 -27.5t-2 -23.5q0 -16 13 -25.5t68 -9.5h37q67 0 105.5 4.5t63 18.5t40.5 40t38 69h31l-47 -176q-80 1 -145.5 2.5t-135.5 1.5q-76 0 -152.5 -1.5t-140.5 -2.5l6 30h18
q23 0 37 3t23 15.5t16 37t14 67.5l29 169h-196l-89 -121q-5 -7 -19 -26.5t-29 -42t-26.5 -43.5t-11.5 -31q0 -18 14.5 -23t33.5 -5h31l-6 -30q-22 1 -45 2.5t-46 1.5q-39 0 -77.5 -1.5t-77.5 -2.5zM489 372l45 282h-7l-209 -282h171z" />
    <glyph glyph-name="circumflex" horiz-adv-x="278" 
d="M52 560l159 170h67l88 -170h-45l-86 99l-133 -99h-50z" />
    <glyph glyph-name="onesuperior" horiz-adv-x="361" 
d="M77 282l2 24h24q34 0 41.5 9t13.5 34l48 236q2 6 4 16t2 14q0 6 -5 6q-4 0 -18 -7t-21 -10l-57 -29l-8 25l125 65q13 7 34.5 20t35.5 20l15 -3q-2 -10 -7 -31.5t-10 -49.5l-44 -227q-4 -20 -7.5 -36.5t-3.5 -30.5q0 -16 18.5 -18.5t34.5 -2.5h17l-3 -24q-29 1 -58.5 1.5
t-58.5 0.5t-57 -0.5t-57 -1.5z" />
    <glyph glyph-name="iogonek" horiz-adv-x="315" 
d="M183 651q0 25 18.5 43.5t43.5 18.5t43.5 -18.5t18.5 -43.5t-18.5 -43.5t-43.5 -18.5t-43.5 18.5t-18.5 43.5zM48 302l-20 24q14 16 36.5 40t48 45.5t52.5 37t49 15.5q25 0 40 -10t15 -43q0 -19 -16 -66t-35.5 -99t-35.5 -97.5t-16 -60.5q0 -13 12 -13q9 0 21.5 9t25.5 21
t24 23.5t16 16.5l19 -22q-39 -48 -72.5 -80t-67.5 -47q-22 -18 -45 -43t-23 -58q0 -22 15 -39.5t37 -17.5q23 0 35.5 7t18.5 11l16 -18q-16 -15 -42 -29.5t-64 -14.5q-41 0 -66.5 21.5t-25.5 60.5q0 40 24 66t55 46q-31 8 -31 44q0 18 14 64t31.5 96t31.5 93t14 56
q0 9 -3 16t-12 7t-19.5 -7t-20.5 -17t-19.5 -20.5t-16.5 -17.5z" />
    <glyph glyph-name="Ucircumflex" horiz-adv-x="722" 
d="M800 698l-4 -30q-56 0 -74.5 -18t-27.5 -64l-76 -404q-12 -62 -40 -100t-65.5 -60t-80.5 -29.5t-84 -7.5q-49 0 -94 10t-79.5 32.5t-55 58.5t-20.5 89q0 32 4.5 63.5t7.5 47.5l46 239q11 53 13.5 74t2.5 32q0 25 -21.5 30.5t-65.5 6.5l4 30q40 -1 80 -2.5t80 -1.5
q35 0 71.5 1.5t74.5 2.5l-5 -30q-44 -1 -64.5 -8t-27.5 -43l-70 -390q-4 -21 -5 -35.5t-1 -29.5q0 -68 39.5 -97.5t96.5 -29.5q56 0 95 12.5t65.5 38t41.5 64.5t23 92l46 302q8 48 8 78q0 20 -17.5 33t-66.5 13l4 30q29 -1 59 -2.5t59 -1.5q31 0 62 1.5t62 2.5zM307 745
l159 170h67l88 -170h-45l-86 99l-133 -99h-50z" />
    <glyph glyph-name="notequal" 
d="M198 192l64 123h-236v83h279l78 150l73 -38l-59 -112h133v-83h-175l-65 -123h240v-84h-282l-77 -148l-73 37l57 111h-129v84h172z" />
    <glyph glyph-name="threesuperior" horiz-adv-x="361" 
d="M148 488l7 26q23 0 45 6.5t39.5 18.5t28.5 29.5t11 40.5q0 26 -15.5 42t-47.5 16q-33 0 -54.5 -10.5t-34.5 -19.5l-11 17q27 20 59.5 35.5t73.5 15.5q19 0 38.5 -3.5t36 -12.5t27 -24t10.5 -38q0 -48 -34.5 -74.5t-84.5 -44.5v-2q46 -3 75.5 -25t29.5 -68
q0 -31 -16 -56.5t-42 -44t-58 -29t-65 -10.5q-38 0 -67 6.5t-48 14.5l-14 47l32 12q13 -25 35 -40.5t53 -15.5q45 0 72.5 32t27.5 80q0 41 -20 61t-66 20q-5 0 -11 -0.5t-12 -1.5z" />
    <glyph glyph-name="summation" horiz-adv-x="741" 
d="M653 786l12 -174h-28q-8 65 -33 96t-99 31h-310l244 -388l-289 -475h393q30 0 50 2.5t32.5 13.5t19.5 33t11 60h28l-13 -199h-630l318 520l-306 480h600z" />
    <glyph glyph-name="ordmasculine" horiz-adv-x="349" 
d="M152 515q0 -29 10.5 -48t37.5 -19q26 0 45.5 19t32 45t18.5 53t6 43q0 28 -10.5 47.5t-37.5 19.5q-28 0 -47.5 -21t-31.5 -48t-17.5 -53.5t-5.5 -37.5zM257 705q60 0 93.5 -35t33.5 -80q0 -37 -14.5 -68.5t-40 -54.5t-59.5 -36t-73 -13q-60 0 -93.5 35.5t-33.5 80.5
q0 36 14.5 67.5t40 54.5t59.5 36t73 13z" />
    <glyph glyph-name="partialdiff" horiz-adv-x="537" 
d="M130 620l-39 52q37 20 70 34t82 14q73 0 123 -30t81 -80t44.5 -114.5t13.5 -133.5q0 -80 -15 -149t-45 -119t-76 -78.5t-108 -28.5q-48 0 -87 19t-67 50.5t-43 72.5t-15 84q0 48 16.5 87.5t45 68t65 44t77.5 15.5q47 0 85.5 -19t73.5 -52q-2 54 -6 102.5t-17 91.5
q-13 47 -49 83t-95 36q-32 0 -62 -13.5t-53 -36.5zM411 307q-7 8 -19.5 20.5t-30 24t-40 19.5t-50.5 8q-64 0 -98.5 -50.5t-34.5 -124.5t36 -122t91 -48q46 0 74 29.5t43.5 71.5t21.5 89t7 83z" />
    <glyph glyph-name="Lcommaaccent" horiz-adv-x="630" 
d="M-8 0l5 30q23 0 39 1.5t27 8t18 19t11 35.5l81 431q10 53 13 74t3 32q0 25 -21.5 30.5t-65.5 6.5l4 30q40 -1 80 -2.5t80 -1.5q35 0 71.5 1.5t74.5 2.5l-5 -30q-44 -1 -64.5 -7.5t-27.5 -43.5l-106 -573h146q26 0 55.5 3t58 13.5t52.5 31t39 55.5l14 34l31 -3
q-5 -16 -13 -39.5t-16 -48.5t-15 -49t-11 -41q-58 1 -117 2.5t-117 1.5q-82 0 -163 -1.5t-161 -2.5zM197 -264l-7 23q14 1 33 6.5t36.5 14.5t29.5 22t12 29q0 17 -10 21.5t-22.5 8.5t-22.5 13t-10 34q0 22 15 36t37 14q38 0 54.5 -22.5t16.5 -56.5q0 -36 -16.5 -62
t-40.5 -43t-52.5 -26t-52.5 -12z" />
    <glyph glyph-name="thorn" 
d="M335 753l-82 -304q13 4 27.5 6.5t28.5 4.5t28.5 3t29.5 1q32 0 60.5 -5.5t50.5 -20t34.5 -38.5t12.5 -61q0 -58 -25 -120.5t-68 -114.5t-98.5 -85.5t-117.5 -33.5q-22 0 -43 7.5t-32 16.5l-44 -180l79 -17l-4 -24q-16 -2 -39 -5t-48.5 -6.5t-49.5 -7.5t-41 -7l-12 8
q36 153 75 305.5t76 305.5q-10 -2 -26.5 -7.5t-34 -12t-33 -12.5t-23.5 -10l7 37q8 4 22.5 10t31.5 12.5t35 12.5t32 10q7 31 15 66t16 69t15.5 65.5t13.5 56.5l-63 33l5 18q37 3 89.5 12t87.5 23zM243 412l-62 -250q-4 -16 -10 -44t-6 -43q0 -27 16.5 -39.5t42.5 -12.5
q41 0 75.5 37.5t60 90t39.5 108t14 90.5q0 33 -23 52t-66 19q-29 0 -49.5 -3t-31.5 -5z" />
    <glyph glyph-name="Egrave" horiz-adv-x="648" 
d="M-8 0l5 30q23 0 39 1.5t27 8t18 19t11 35.5l81 431q10 53 13 74t3 32q0 25 -21.5 30.5t-65.5 6.5l4 30q38 0 63 -1t43 -1.5t32 -1t30 -0.5q22 0 51 0.5t71 1t100 1.5t138 1q-6 -36 -10.5 -73.5t-8.5 -75.5h-31q1 5 1 12v13q0 24 -6 40.5t-22.5 26.5t-45.5 14.5t-76 4.5
q-17 0 -50.5 -2t-62.5 -4l-48 -262h120q52 0 74 20t33 73h29q-3 -17 -9 -47.5t-12 -65t-12 -68t-10 -56.5h-27q1 8 2 19.5t1 25.5q0 18 -2.5 29t-12.5 17t-30.5 7.5t-56.5 1.5q-35 0 -57.5 -0.5t-37.5 -1.5l-39 -216q-3 -16 -5 -27.5t-2 -23.5q0 -16 13 -25.5t68 -9.5h76
q57 0 90.5 5.5t54.5 19.5t35.5 39.5t33.5 65.5h31q-13 -44 -24 -87t-22 -87q-80 1 -160 2.5t-160 1.5q-66 0 -132 -1.5t-132 -2.5zM451 745l-136 96q-11 7 -19 18t-8 24q0 19 13.5 28.5t30.5 9.5q19 0 30.5 -10.5t18.5 -20.5l110 -145h-40z" />
    <glyph glyph-name="Iogonek" horiz-adv-x="352" 
d="M-8 0l5 30q23 0 39 1.5t27 8t18 19t11 35.5l81 431q10 53 13 74t3 32q0 25 -21.5 30.5t-65.5 6.5l4 30q40 -1 80 -2.5t80 -1.5q35 0 71.5 1.5t74.5 2.5l-5 -30q-44 -1 -64.5 -8t-27.5 -43l-84 -445q-10 -52 -13 -73t-3 -32q0 -25 18.5 -30.5t61.5 -6.5l-4 -30
q-25 1 -54 2t-61 1q-11 -10 -25.5 -21.5t-27 -25.5t-21 -30.5t-8.5 -35.5q0 -22 15 -39.5t37 -17.5q23 0 35.5 6.5t18.5 11.5l16 -18q-16 -15 -42 -29.5t-64 -14.5q-41 0 -66.5 21.5t-25.5 60.5q0 26 10.5 45.5t27 35.5t37 28.5t40.5 23.5q-34 0 -68.5 -1.5t-72.5 -2.5z" />
    <glyph glyph-name="minus" 
d="M26 207v90h504v-90h-504z" />
    <glyph glyph-name="florin" 
d="M127 405l8 44h113q8 41 21 87.5t37 85.5t61 65t92 26q39 0 71.5 -18t32.5 -62q0 -55 -57 -55q-25 0 -34 14.5t-9 34.5q0 7 1 13.5t1 13.5q0 21 -22 21q-17 0 -29 -17.5t-21 -44t-15.5 -57t-11.5 -55.5l-10 -52h120l-6 -44h-122l-56 -258q-15 -71 -35 -138.5t-46.5 -120
t-61.5 -84.5t-82 -32q-43 0 -68.5 18t-25.5 59q0 55 51 55q22 0 35.5 -9t13.5 -32q0 -9 -1 -16t-1 -13q0 -9 4.5 -16.5t15.5 -7.5t22 15t23.5 56t28 112.5t34.5 184.5l39 227h-111z" />
    <glyph glyph-name="ograve" horiz-adv-x="537" 
d="M230 23q45 0 76.5 34t51 81.5t28 97.5t8.5 83q0 19 -2.5 38.5t-11 34.5t-24.5 24.5t-42 9.5q-44 0 -75.5 -32t-51 -77.5t-28.5 -95t-9 -84.5q0 -47 15.5 -80.5t64.5 -33.5zM311 464q49 0 86 -15t61 -41.5t36 -61.5t12 -75q0 -55 -19.5 -106.5t-55.5 -91.5t-86 -64
t-111 -24q-46 0 -82.5 16t-61.5 43t-38.5 61.5t-13.5 72.5q0 61 22.5 113t60 90.5t87 60.5t103.5 22zM396 560l-136 96q-10 8 -18.5 18t-8.5 24q0 19 13.5 28.5t30.5 9.5q19 0 30 -10t19 -21l110 -145h-40z" />
    <glyph glyph-name="egrave" horiz-adv-x="444" 
d="M383 131l19 -24q-24 -22 -50 -43.5t-56 -39t-64 -28.5t-73 -11q-35 0 -60 13t-40.5 34.5t-23 49t-7.5 56.5q0 60 25.5 118t67.5 104.5t96.5 75t112.5 28.5q42 0 74 -19.5t32 -66.5q0 -45 -31.5 -77.5t-76.5 -53.5t-95 -33t-87 -17q-2 -9 -4 -23t-2 -32q0 -35 20 -62
t58 -27q50 0 93 27t72 51zM330 387q0 39 -37 39q-23 0 -45.5 -21t-41.5 -51t-32.5 -63t-18.5 -56q27 1 57.5 12.5t56.5 31.5t43.5 47.5t17.5 60.5zM384 560l-136 96q-10 8 -18.5 18t-8.5 24q0 19 13.5 28.5t30.5 9.5q19 0 30 -10t19 -21l110 -145h-40z" />
    <glyph glyph-name="Igrave" horiz-adv-x="352" 
d="M102 668l4 30q40 -1 80 -2.5t80 -1.5q35 0 71.5 1.5t74.5 2.5l-5 -30q-44 -1 -64.5 -8t-27.5 -43l-84 -445q-10 -52 -13 -73t-3 -32q0 -25 18.5 -30.5t61.5 -6.5l-4 -30q-33 1 -72 2.5t-79 1.5q-35 0 -71.5 -1.5t-76.5 -2.5l5 30q23 0 39 1.5t27 8t18 19t11 35.5l81 431
q10 53 13 74t3 32q0 25 -21.5 30.5t-65.5 6.5zM311 745l-136 96q-11 7 -19 18t-8 24q0 19 13.5 28.5t30.5 9.5q19 0 30.5 -10.5t18.5 -20.5l110 -145h-40z" />
    <glyph glyph-name="oe" horiz-adv-x="759" 
d="M38 178q0 61 22.5 113t61 90.5t89 60.5t107.5 22q16 0 36.5 -3.5t40 -14t36 -28.5t25.5 -46q37 41 83.5 66.5t105.5 25.5q42 0 74 -19.5t32 -66.5q0 -45 -31.5 -77.5t-76.5 -53.5t-95 -33t-87 -17q-2 -9 -4 -23t-2 -32q0 -35 20 -62t58 -27q25 0 48.5 7.5t44.5 19.5
t39.5 25.5t32.5 25.5l19 -24q-24 -22 -50 -43.5t-56 -39t-64 -28.5t-73 -11q-38 0 -63.5 22t-36.5 51q-53 -73 -153 -73q-42 0 -75.5 16t-57.5 43t-37 61.5t-13 72.5zM150 137q0 -47 13 -80.5t62 -33.5q47 0 78.5 38.5t50 90.5t26 104.5t7.5 80.5q0 41 -18.5 65t-63.5 24
q-41 0 -71 -36t-49.5 -84t-28 -96t-6.5 -73zM645 387q0 39 -37 39q-22 0 -45 -21t-42 -51t-32.5 -63t-18.5 -56q27 1 57.5 12.5t56.5 31.5t43.5 47.5t17.5 60.5z" />
    <glyph glyph-name="Ntilde" horiz-adv-x="778" 
d="M97 128l82 445l-20 33q-21 34 -38 48t-54 14l5 30q26 -1 51 -2.5t51 -1.5q20 0 40.5 1.5t40.5 2.5q10 -19 21.5 -37.5t24.5 -37.5l307 -469l61 374q7 45 8.5 61.5t1.5 26.5q0 34 -25 43t-61 9l4 30q31 -1 61.5 -2.5t61.5 -1.5q30 0 60.5 2t60.5 2l-4 -30
q-29 0 -46.5 -3.5t-29 -15t-18.5 -33.5t-14 -58l-83 -460l22 -34q12 -19 25.5 -26.5t25.5 -7.5l-5 -30q-20 1 -40 2.5t-40 1.5t-40 -1.5t-40 -2.5l-32 56t-33 54l-271 412l-65 -385q-2 -13 -4 -30t-2 -35q0 -19 14 -30.5t51 -11.5h21l-5 -30q-28 1 -57 2.5t-58 1.5
q-31 0 -63 -1.5t-63 -2.5l5 30h8q20 0 35.5 3t27.5 13t20 29.5t14 52.5zM613 877h37q-7 -42 -38 -76.5t-81 -34.5q-19 0 -37 7t-35 15t-34.5 15t-34.5 7q-22 0 -35.5 -16t-17.5 -27h-37q7 42 38 76.5t81 34.5q19 0 37 -7t35 -14q17 -8 34.5 -15t34.5 -7q22 0 35.5 15.5
t17.5 26.5z" />
    <glyph glyph-name="greaterequal" 
d="M530 269l-504 -180v89l389 134l-389 137v89l504 -183v-86zM530 52v-84h-504v84h504z" />
    <glyph glyph-name="Oslash" horiz-adv-x="852" 
d="M667 540l-424 -420q23 -43 64.5 -70t106.5 -27q64 0 115 32.5t85.5 86.5t53 125t18.5 147q0 32 -4 64t-15 62zM226 159l424 420q-22 42 -63.5 69t-108.5 27q-73 0 -124.5 -39t-84.5 -96.5t-48 -125t-15 -124.5q0 -32 4.5 -66t15.5 -65zM48 -17l103 102q-83 86 -83 223
q0 94 32.5 169t88.5 127.5t130.5 80.5t158.5 28q73 0 131.5 -20.5t100.5 -54.5l106 105l28 -28l-105 -103q85 -90 85 -222q0 -87 -32.5 -161t-88.5 -128.5t-130 -85t-157 -30.5q-74 0 -133.5 19.5t-101.5 53.5l-105 -103z" />
    <glyph glyph-name="idieresis" horiz-adv-x="315" 
d="M265 145l19 -22q-55 -67 -99 -102.5t-92 -35.5q-20 0 -32.5 13t-12.5 34q0 18 14 64t31.5 96t31.5 93t14 56q0 9 -3 16t-12 7t-19.5 -7t-20.5 -17t-19.5 -20.5t-16.5 -17.5l-20 24q14 16 36.5 40t48 45.5t52.5 37t49 15.5q25 0 40 -10t15 -43q0 -19 -16 -66t-35.5 -99
t-35.5 -97.5t-16 -60.5q0 -13 12 -13q9 0 21.5 9t25.5 21t24 23.5t16 16.5zM351 696q23 0 39.5 -16.5t16.5 -39.5t-16.5 -39.5t-39.5 -16.5t-39.5 16.5t-16.5 39.5t16.5 39.5t39.5 16.5zM140 696q22 0 39 -16.5t17 -39.5t-17 -39.5t-39 -16.5t-39 16.5t-17 39.5t17 39.5
t39 16.5z" />
    <glyph glyph-name="yen" 
d="M511 261l-11 -50h-167l-13 -73q-7 -37 -9 -52.5t-2 -26.5q0 -10 8 -19.5t39 -9.5h37l-6 -30q-37 1 -74.5 2.5t-73.5 1.5q-31 0 -65 -1.5t-69 -2.5l6 30h18q23 0 36 4.5t20.5 14.5t12 25.5t8.5 37.5l18 99h-167l12 50h166l15 79h-166l10 50h139l-67 162q-15 38 -25.5 61
t-22.5 35t-28.5 16t-43.5 4l5 30q33 -1 70 -2.5t75 -1.5q32 0 64 1.5t63 2.5l-3 -30q-37 0 -54 -4t-17 -21q0 -9 5 -27.5t23 -63.5l62 -162l118 184q14 23 22 39t8 28q0 19 -18.5 23t-49.5 4l4 30q28 -1 56 -2.5t56 -1.5t55.5 1.5t55.5 2.5l-3 -30q-24 0 -39.5 -4.5
t-27.5 -13.5t-22.5 -22.5t-23.5 -32.5l-142 -205h149l-11 -50h-168l-15 -79h168z" />
    <glyph glyph-name="Atilde" horiz-adv-x="685" 
d="M-57 0l5 30h12q38 0 58.5 16t43.5 57l282 495q14 23 31.5 53.5t33.5 59.5l54 15l14 -8q7 -43 14 -85t15 -85l73 -418q5 -26 9 -44.5t12.5 -31t22.5 -18.5t38 -6h23l-5 -30q-37 1 -75 2.5t-75 1.5q-38 0 -76 -1.5t-76 -2.5l5 30h25q33 0 43 7.5t10 24.5q0 8 -2 20.5
t-4 25.5l-20 134h-235l-64 -124q-7 -13 -14 -29.5t-7 -31.5q0 -16 19.5 -21.5t45.5 -5.5h21l-4 -30q-32 1 -64 2.5t-63 1.5t-63 -2t-63 -2zM426 292l-47 274h-2l-150 -274h199zM593 877h37q-7 -42 -38 -76.5t-81 -34.5q-19 0 -37 7t-35 15t-34.5 15t-34.5 7q-22 0 -35.5 -16
t-17.5 -27h-37q7 42 38 76.5t81 34.5q19 0 37 -7t35 -14q17 -8 34.5 -15t34.5 -7q22 0 35.5 15.5t17.5 26.5z" />
    <glyph glyph-name="ncommaaccent" horiz-adv-x="574" 
d="M48 61l77 234q5 16 9 28.5t4 20.5q0 5 -3 9.5t-11 4.5q-7 0 -18 -7t-22.5 -17t-21.5 -19t-15 -14l-19 20q15 16 36 40.5t45.5 47t50 39t49.5 16.5q47 0 47 -50q0 -15 -8 -41.5t-18.5 -56t-21 -57t-14.5 -43.5l2 -2q17 28 50.5 70.5t73.5 82.5t82.5 68.5t77.5 28.5
q25 0 40 -10t15 -43q0 -19 -16 -66t-35.5 -99t-35.5 -97.5t-16 -60.5q0 -13 12 -13q9 0 21.5 9t25.5 21t24 23.5t16 16.5l19 -22q-55 -67 -99 -102.5t-92 -35.5q-20 0 -32.5 13t-12.5 34q0 18 14 63.5t31.5 95t31.5 91t14 51.5q0 25 -25 25q-20 0 -48 -25.5t-56 -60.5
t-51.5 -70.5t-34.5 -54.5q-22 -41 -33.5 -70t-19 -47t-14.5 -26.5t-20 -8.5q-37 0 -53 2.5t-16 12.5q0 7 4 19.5t10 31.5zM109 -264l-7 23q14 1 33 6.5t36.5 14.5t29.5 22t12 29q0 17 -10 21.5t-22.5 8.5t-22.5 13t-10 34q0 22 15 36t37 14q38 0 54.5 -22.5t16.5 -56.5
q0 -36 -16.5 -62t-40.5 -43t-52.5 -26t-52.5 -12z" />
    <glyph glyph-name="gcommaaccent" horiz-adv-x="500" 
d="M219 80l122 -53q40 -17 64 -41.5t24 -64.5q0 -48 -27.5 -79t-67.5 -49t-85.5 -24.5t-82.5 -6.5q-25 0 -59.5 5.5t-66 18t-53.5 34.5t-22 55q0 29 14.5 48.5t37 34.5t50.5 27.5t56 25.5q-21 7 -39.5 20t-18.5 36q0 18 9 31.5t22 24t28 20t26 18.5q-40 16 -62.5 47.5
t-22.5 75.5t16.5 77.5t45 56.5t65.5 34.5t78 11.5q26 0 47.5 -5t40.5 -11q20 -6 38 -11.5t40 -5.5q23 0 35 6.5t25 6.5q10 0 21.5 -6.5t11.5 -27.5q0 -37 -33 -37q-11 0 -19.5 4.5t-17.5 9.5t-19.5 9.5t-25.5 4.5q10 -12 19 -33t9 -43q0 -42 -16 -75t-43.5 -55.5t-64 -34.5
t-76.5 -12q-15 0 -30 1t-29 3q-5 -2 -13.5 -12.5t-8.5 -20.5q0 -7 9 -14.5t49 -24.5zM231 -37l-77 34l-33 -21q-10 -6 -21.5 -14t-21.5 -18.5t-16.5 -24t-6.5 -30.5q0 -26 15 -43.5t36 -27.5t43.5 -14t38.5 -4q21 0 45.5 3.5t46 12.5t35.5 24.5t14 39.5q0 32 -26 47.5
t-72 35.5zM171 255q0 -30 15.5 -49.5t44.5 -19.5q28 0 47.5 17.5t32.5 42.5t19 53.5t6 50.5q0 32 -11 54t-52 22q-29 0 -48.5 -20t-31.5 -48t-17 -56.5t-5 -46.5zM411 780l7 -23q-14 -1 -33 -6.5t-36.5 -14.5t-29.5 -22t-12 -29q0 -17 10 -21.5t22.5 -8.5t22.5 -13t10 -34
q0 -22 -15 -36t-37 -14q-38 0 -54.5 22.5t-16.5 56.5q0 36 16.5 62t40.5 43t52.5 26t52.5 12z" />
    <glyph glyph-name="macron" horiz-adv-x="278" 
d="M75 597l15 62h278l-15 -62h-278z" />
    <glyph glyph-name="twosuperior" horiz-adv-x="361" 
d="M369 387l-32 -105q-34 1 -69.5 1.5t-78.5 0.5q-47 0 -83 -1t-61 -1q-6 0 -6 17q0 4 2.5 7.5t12.5 12.5q26 22 62 55t69 69.5t56.5 73.5t23.5 67q0 34 -19 55.5t-51 21.5q-29 0 -50.5 -14.5t-41.5 -30.5l-13 19q32 28 70 49t81 21q49 0 84.5 -22.5t35.5 -72.5
q0 -36 -21 -70t-52 -64.5t-67 -56.5t-65 -47l-28 -20v-2h197l24 42z" />
    <glyph glyph-name="lcommaaccent" horiz-adv-x="296" 
d="M72 172l123 506l-63 33l5 18q19 1 44 4.5t49.5 9t46.5 11t37 10.5l12 -11q-14 -46 -31.5 -109t-31.5 -121l-96 -381q-3 -13 -6 -26.5t-3 -21.5q0 -7 3.5 -13t11.5 -6q15 0 40.5 22.5t51.5 50.5l19 -20q-38 -42 -65.5 -70t-49 -44t-38.5 -22.5t-35 -6.5q-32 0 -41 17
t-9 39q0 19 8.5 56t17.5 75zM-20 -264l-7 23q14 1 33 6.5t36.5 14.5t29.5 22t12 29q0 17 -10 21.5t-22.5 8.5t-22.5 13t-10 34q0 22 15 36t37 14q37 0 54 -22.5t17 -56.5q0 -36 -16.5 -62t-40.5 -43t-52.5 -26t-52.5 -12z" />
    <glyph glyph-name="Imacron" horiz-adv-x="352" 
d="M102 668l4 30q40 -1 80 -2.5t80 -1.5q35 0 71.5 1.5t74.5 2.5l-5 -30q-44 -1 -64.5 -8t-27.5 -43l-84 -445q-10 -52 -13 -73t-3 -32q0 -25 18.5 -30.5t61.5 -6.5l-4 -30q-33 1 -72 2.5t-79 1.5q-35 0 -71.5 -1.5t-76.5 -2.5l5 30q23 0 39 1.5t27 8t18 19t11 35.5l81 431
q10 53 13 74t3 32q0 25 -21.5 30.5t-65.5 6.5zM135 782l15 62h278l-15 -62h-278z" />
    <glyph glyph-name="Idotaccent" horiz-adv-x="352" 
d="M102 668l4 30q40 -1 80 -2.5t80 -1.5q35 0 71.5 1.5t74.5 2.5l-5 -30q-44 -1 -64.5 -8t-27.5 -43l-84 -445q-10 -52 -13 -73t-3 -32q0 -25 18.5 -30.5t61.5 -6.5l-4 -30q-33 1 -72 2.5t-79 1.5q-35 0 -71.5 -1.5t-76.5 -2.5l5 30q23 0 39 1.5t27 8t18 19t11 35.5l81 431
q10 53 13 74t3 32q0 25 -21.5 30.5t-65.5 6.5zM285 881q23 0 39.5 -16.5t16.5 -39.5t-16.5 -39.5t-39.5 -16.5t-39.5 16.5t-16.5 39.5t16.5 39.5t39.5 16.5z" />
    <glyph glyph-name="lozenge" horiz-adv-x="593" 
d="M356 747l174 -391l-174 -391h-81l-173 391l173 391h81zM444 356l-128 305l-127 -305l127 -306z" />
    <glyph glyph-name="exclamdown" horiz-adv-x="333" 
d="M162 274l25 -4q-6 -76 -12.5 -151.5t-11.5 -151.5q-1 -22 -4.5 -52t-12.5 -57.5t-26.5 -46.5t-47.5 -19q-36 0 -52.5 20t-16.5 52q0 25 20.5 80t47.5 117.5t53.5 121t37.5 91.5zM199 344q-30 0 -52 22t-22 52t22 52t52 22t52 -22t22 -52t-22 -52t-52 -22z" />
    <glyph glyph-name="Kcommaaccent" horiz-adv-x="685" 
d="M-8 0l5 30q23 0 39 1.5t27 8t18 19t11 35.5l81 431q10 53 13 74t3 32q0 25 -21.5 30.5t-65.5 6.5l4 30q40 -1 80 -2.5t80 -1.5q38 0 71.5 1.5t65.5 2.5l-5 -30q-38 -1 -57 -8.5t-27 -47.5l-47 -250q7 0 15 1t20 7t29 19.5t42 37.5l113 113q30 30 56.5 59.5t26.5 43.5
t-15.5 19.5t-38.5 5.5h-15l5 30q32 -1 65 -2.5t65 -1.5q29 0 58 1.5t57 2.5l-5 -30q-20 0 -35 -1.5t-28 -6.5t-27 -16t-32 -29l-241 -238l162 -243q44 -64 72 -84t59 -20h13l-4 -30q-22 1 -45 2.5t-46 1.5q-19 0 -38 -1.5t-39 -2.5q-16 0 -27 12.5t-27 35.5l-178 261
q-7 10 -11.5 12.5t-12.5 2.5l-29 -152q-10 -52 -13 -73t-3 -32q0 -25 18.5 -30.5t61.5 -6.5l-4 -30q-33 1 -72 2.5t-79 1.5q-35 0 -71.5 -1.5t-76.5 -2.5zM245 -264l-7 23q14 1 33 6.5t36.5 14.5t29.5 22t12 29q0 17 -10 21.5t-22.5 8.5t-22.5 13t-10 34q0 22 15 36t37 14
q38 0 54.5 -22.5t16.5 -56.5q0 -36 -16.5 -62t-40.5 -43t-52.5 -26t-52.5 -12z" />
    <glyph glyph-name="Agrave" horiz-adv-x="685" 
d="M-57 0l5 30h12q38 0 58.5 16t43.5 57l282 495q14 23 31.5 53.5t33.5 59.5l54 15l14 -8q7 -43 14 -85t15 -85l73 -418q5 -26 9 -44.5t12.5 -31t22.5 -18.5t38 -6h23l-5 -30q-37 1 -75 2.5t-75 1.5q-38 0 -76 -1.5t-76 -2.5l5 30h25q33 0 43 7.5t10 24.5q0 8 -2 20.5
t-4 25.5l-20 134h-235l-64 -124q-7 -13 -14 -29.5t-7 -31.5q0 -16 19.5 -21.5t45.5 -5.5h21l-4 -30q-32 1 -64 2.5t-63 1.5t-63 -2t-63 -2zM426 292l-47 274h-2l-150 -274h199zM471 745l-136 96q-11 7 -19 18t-8 24q0 19 13.5 28.5t30.5 9.5q19 0 30.5 -10.5t18.5 -20.5
l110 -145h-40z" />
    <glyph glyph-name="onequarter" horiz-adv-x="834" 
d="M680 173l33 164h-2l-165 -164h134zM645 0l24 117h-187l4 34l281 272h43l-51 -250h71l-12 -56h-70l-24 -117h-79zM203 -30l440 750h59l-440 -750h-59zM77 282l2 24h24q34 0 41.5 9t13.5 34l48 236q2 6 4 16t2 14q0 6 -5 6q-4 0 -18 -7t-21 -10l-57 -29l-8 25l125 65
q13 7 34.5 20t35.5 20l15 -3q-2 -10 -7 -31.5t-10 -49.5l-44 -227q-4 -20 -7.5 -36.5t-3.5 -30.5q0 -16 18.5 -18.5t34.5 -2.5h17l-3 -24q-29 1 -58.5 1.5t-58.5 0.5t-57 -0.5t-57 -1.5z" />
    <glyph glyph-name="Gcommaaccent" horiz-adv-x="815" 
d="M690 167l-20 -121q-15 -7 -41 -17.5t-59 -20t-70.5 -16.5t-75.5 -7q-75 0 -140 20t-113 60.5t-75.5 102t-27.5 143.5q0 95 35.5 169.5t96 126.5t140.5 79t170 27q50 0 85 -6.5t52 -11.5q36 -10 53 -18.5t30 -8.5q22 0 25 21l24 -4q-10 -47 -18.5 -93.5t-14.5 -95.5l-30 4
q0 87 -53 131t-134 44q-79 0 -139 -33t-101 -86t-62 -119t-21 -133q0 -58 16 -109.5t44.5 -89.5t68.5 -60t89 -22q12 0 31.5 1.5t40 7.5t36.5 18.5t20 33.5l18 96q2 8 4 23t2 20q0 25 -18 32t-60 7h-20l4 30q40 -1 80 -2.5t81 -1.5q37 0 73 1.5t73 2.5l-4 -30h-19
q-22 0 -35 -5t-20.5 -16.5t-12 -29.5t-8.5 -44zM310 -264l-7 23q14 1 33 6.5t36.5 14.5t29.5 22t12 29q0 17 -10 21.5t-22.5 8.5t-22.5 13t-10 34q0 22 15 36t37 14q37 0 54 -22.5t17 -56.5q0 -36 -16.5 -62t-40.5 -43t-52.5 -26t-52.5 -12z" />
    <glyph glyph-name="omacron" horiz-adv-x="537" 
d="M230 23q45 0 76.5 34t51 81.5t28 97.5t8.5 83q0 19 -2.5 38.5t-11 34.5t-24.5 24.5t-42 9.5q-44 0 -75.5 -32t-51 -77.5t-28.5 -95t-9 -84.5q0 -47 15.5 -80.5t64.5 -33.5zM311 464q49 0 86 -15t61 -41.5t36 -61.5t12 -75q0 -55 -19.5 -106.5t-55.5 -91.5t-86 -64
t-111 -24q-46 0 -82.5 16t-61.5 43t-38.5 61.5t-13.5 72.5q0 61 22.5 113t60 90.5t87 60.5t103.5 22zM205 597l15 62h278l-15 -62h-278z" />
    <glyph glyph-name="kcommaaccent" horiz-adv-x="537" 
d="M108 349l79 329l-63 33l5 18q18 1 41.5 4t48 7.5t47.5 10.5t40 13l12 -11l-112 -423h2q12 14 34 36.5t50 44.5t60.5 37.5t65.5 15.5q35 0 58 -19.5t23 -56.5q0 -36 -24.5 -66.5t-59.5 -55t-73.5 -42t-67.5 -26.5q32 -16 59 -44t50.5 -54t45.5 -45.5t44 -19.5q23 0 39 9
l-7 -34q-13 -8 -39 -16.5t-61 -8.5q-49 0 -82.5 25t-59 58.5t-47.5 67.5t-49 51l-41 -174q-3 -12 -15.5 -15t-26.5 -3q-37 0 -46.5 5.5t-9.5 19.5q0 6 8.5 40.5t20.5 83t26 103.5t25 102zM399 349q0 22 -12.5 31.5t-32.5 9.5q-23 0 -52 -17t-55.5 -44t-47.5 -60t-29 -64
q24 3 63 13t75.5 28t63.5 43.5t27 59.5zM101 -264l-7 23q14 1 33 6.5t36.5 14.5t29.5 22t12 29q0 17 -10 21.5t-22.5 8.5t-22.5 13t-10 34q0 22 15 36t37 14q38 0 54.5 -22.5t16.5 -56.5q0 -36 -16.5 -62t-40.5 -43t-52.5 -26t-52.5 -12z" />
    <glyph glyph-name="otilde" horiz-adv-x="537" 
d="M230 23q45 0 76.5 34t51 81.5t28 97.5t8.5 83q0 19 -2.5 38.5t-11 34.5t-24.5 24.5t-42 9.5q-44 0 -75.5 -32t-51 -77.5t-28.5 -95t-9 -84.5q0 -47 15.5 -80.5t64.5 -33.5zM311 464q49 0 86 -15t61 -41.5t36 -61.5t12 -75q0 -55 -19.5 -106.5t-55.5 -91.5t-86 -64
t-111 -24q-46 0 -82.5 16t-61.5 43t-38.5 61.5t-13.5 72.5q0 61 22.5 113t60 90.5t87 60.5t103.5 22zM503 692h37q-7 -42 -38 -76.5t-81 -34.5q-19 0 -37 7t-35 15t-34.5 15t-34.5 7q-22 0 -35.5 -16t-17.5 -27h-37q7 42 38 76.5t81 34.5q19 0 37 -6.5t35 -14.5t34.5 -15
t34.5 -7q22 0 35.5 16t17.5 26z" />
    </font>
</defs>
</svg>
