<?xml version="1.0" standalone="no"?>
<!DOCTYPE svg PUBLIC "-//W3C//DTD SVG 1.1//EN" "http://www.w3.org/Graphics/SVG/1.1/DTD/svg11.dtd" >
<svg xmlns="http://www.w3.org/2000/svg" xmlns:xlink="http://www.w3.org/1999/xlink" version="1.1">
<metadata>
Created by FontForge 20201107 at Tue Nov  4 01:12:50 2025
 By 
Copyright (c) 2023, NazmulsDesign.

All Rights Reserved.
This font is for personal use only. If you want to use it commercially, you will need to purchase a license.
I hope that helps! 

Email me for any business query: nazmul.islam842000@gmail.com
Let me know if you have any other questions.

Follow Me on Behance:
https://www.behance.net/NazmulsDesign

My Facebook:
https://www.facebook.com/D75PH70/

Contact Info:
WhatsApp: +8801741282304
</metadata>
<defs>
<font id="Xeroda-Regular" horiz-adv-x="856" >
  <font-face 
    font-family="Xeroda"
    font-weight="700"
    font-stretch="normal"
    units-per-em="2048"
    panose-1="2 0 5 3 0 0 0 0 0 0"
    ascent="1638"
    descent="-410"
    x-height="982"
    cap-height="1350"
    bbox="-39 -410 1751 1471"
    underline-thickness="102"
    underline-position="-204"
    unicode-range="U+0020-007E"
  />
<missing-glyph horiz-adv-x="1024" 
d="M102 0v1092h820v-1092h-820zM205 102h614v887h-614v-887z" />
    <glyph glyph-name=".notdef" horiz-adv-x="1024" 
d="M102 0v1092h820v-1092h-820zM205 102h614v887h-614v-887z" />
    <glyph glyph-name=".null" horiz-adv-x="0" 
 />
    <glyph glyph-name="nonmarkingreturn" horiz-adv-x="682" 
 />
    <glyph glyph-name="space" unicode=" " horiz-adv-x="614" 
 />
    <glyph glyph-name="exclam" unicode="!" horiz-adv-x="227" 
d="M53 330v1015h121v-1015h-121zM53 0v170h121v-170h-121z" />
    <glyph glyph-name="quotedbl" unicode="&#x22;" horiz-adv-x="399" 
d="M53 1350h109v-368h-109v368zM237 1350h108v-368h-108v368z" />
    <glyph glyph-name="numbersign" unicode="#" horiz-adv-x="1030" 
d="M987 668h-205l-65 -272h203v-104h-228l-75 -307h-111l76 307h-256l-75 -307h-112l77 307h-173v104h197l66 272h-196v98h220l73 304h112l-75 -304h257l73 304h112l-75 -304h180v-98zM607 396l65 272h-256l-66 -272h257z" />
    <glyph glyph-name="dollar" unicode="$" horiz-adv-x="962" 
d="M874 514q47 -62 47 -165q0 -81 -32 -142q-31 -60 -87 -99q-57 -40 -132 -58q-68 -17 -136 -18v-161h-90v163q-58 5 -107 16q-81 18 -156 54q-76 37 -138 88l69 122q24 -25 67 -54q99 -62 206 -85q30 -7 67 -10v385q-6 1 -14 3q-117 29 -194 63q-78 35 -118 91
q-40 57 -40 146q0 109 53 185q51 73 146 113q75 31 159 37v162h90v-161q121 -6 229 -60q56 -28 106 -69l-67 -117q-17 20 -52 43q-36 24 -72 38q-42 18 -87 27q-38 9 -67 10v-383l12 -3q118 -25 205 -63t133 -98zM366 721q21 -7 86 -25v364q-101 -6 -154 -48
q-62 -49 -62 -136q0 -62 32 -97q33 -36 98 -58zM699 206q68 44 68 129q0 63 -38 103q-36 38 -112 64q-10 4 -93 28v-368q114 3 175 44z" />
    <glyph glyph-name="percent" unicode="%" horiz-adv-x="1325" 
d="M332 802q-78 0 -144 36q-67 36 -106 100q-39 62 -39 136v1v1q0 78 39 139q41 63 106 99q66 36 144 36q81 0 147 -36q65 -36 104 -99q39 -61 39 -137q0 -77 -39 -140q-40 -65 -104 -100q-66 -36 -147 -36zM107 78l526 624l504 639l81 -70l-521 -620l-511 -644zM332 892h2
q47 0 84 25q38 25 61 68q22 41 22 89v1l1 1v2q0 49 -24 91q-22 41 -62 67q-38 24 -84 24q-47 0 -85 -25t-61 -68t-23 -90v-1q0 -50 24 -92q23 -42 62 -67q37 -25 83 -25zM992 -3q-80 0 -146 37q-64 36 -104 100q-39 62 -39 136v1v1q0 78 39 139q38 61 104 98t146 37
q79 0 147 -37q66 -37 104 -98q38 -60 38 -137q0 -80 -38 -141q-40 -64 -104 -99q-68 -37 -147 -37zM992 87h1q45 0 85 26q39 25 61 67q22 41 22 90v1v1v1q0 52 -23 92q-21 39 -62 66q-39 25 -84 25t-85 -26t-62 -67t-22 -90v-1q0 -53 23 -93q22 -40 62 -66q37 -25 83 -25z
" />
    <glyph glyph-name="ampersand" unicode="&#x26;" horiz-adv-x="1261" 
d="M1002 9l-648 684q-78 82 -128 145q-46 57 -68 108q-20 46 -20 101q0 85 45 151q44 65 122 104t174 39q89 0 162 -32q72 -32 116 -92q44 -61 44 -143q0 -83 -47 -150q-45 -64 -122 -121q-82 -61 -166 -113q-73 -47 -135 -97q-60 -49 -95 -106q-35 -56 -35 -124
q0 -72 41 -125t107 -80q68 -28 138 -28h1h2q92 0 175 44q79 42 144 122q62 77 97 182t35 222h136q0 -152 -48 -280q-48 -129 -130 -222q-80 -92 -193 -146q-108 -52 -235 -52q-121 0 -219 48t-153 130q-56 83 -56 186q0 102 48 178q48 77 122 136q81 63 156 109
q71 44 145 95q67 46 100 89q36 47 36 99q0 64 -48 105q-49 41 -123 41q-55 0 -99 -23q-43 -22 -67 -60q-24 -37 -24 -82v-1v-1q0 -29 15 -60q14 -30 57 -79q36 -42 118 -128l739 -773h-216z" />
    <glyph glyph-name="quotesingle" unicode="'" horiz-adv-x="215" 
d="M53 1350h109v-368h-109v368z" />
    <glyph glyph-name="parenleft" unicode="(" horiz-adv-x="450" 
d="M45 665q0 174 72 344q73 172 173 341l117 -51q-32 -47 -71 -123q-39 -77 -72 -161q-35 -89 -56 -179q-22 -96 -22 -176q0 -135 59 -292q60 -160 158 -312l-112 -59q-74 111 -128 220q-56 109 -87 224q-31 112 -31 224z" />
    <glyph glyph-name="parenright" unicode=")" horiz-adv-x="448" 
d="M405 665q0 -112 -31 -224q-31 -115 -87 -224q-51 -103 -129 -220l-112 59q100 156 159 312q58 155 58 292q0 84 -21 176q-21 90 -56 179q-33 84 -72 161q-39 76 -71 123l117 51q98 -165 173 -341q72 -168 72 -344z" />
    <glyph glyph-name="asterisk" unicode="*" horiz-adv-x="555" 
d="M100 962l97 143l-152 49l29 93l154 -60l-6 163h112l-6 -163l154 60l29 -93l-153 -49l100 -143l-84 -55l-95 148l-97 -148z" />
    <glyph glyph-name="plus" unicode="+" horiz-adv-x="768" 
d="M719 589v-153h-250v-271h-170v271h-250v153h250v271h170v-271h250z" />
    <glyph glyph-name="comma" unicode="," horiz-adv-x="266" 
d="M72 -171l39 171h-58v199h160v-199l-58 -171h-83z" />
    <glyph glyph-name="hyphen" unicode="-" horiz-adv-x="1091" 
d="M55 465v148h980v-148h-980z" />
    <glyph glyph-name="period" unicode="." horiz-adv-x="225" 
d="M55 0v177h117v-177h-117z" />
    <glyph glyph-name="slash" unicode="/" horiz-adv-x="1185" 
d="M1142 1350l-913 -1350h-186l911 1350h188z" />
    <glyph glyph-name="zero" unicode="0" horiz-adv-x="1015" 
d="M148 1173q103 177 361 177q255 0 358 -177q103 -176 103 -494q0 -323 -103 -501t-358 -178q-258 0 -361 178t-103 501q0 318 103 494zM784 950q-21 113 -87 180q-66 68 -188 68q-125 0 -191 -68q-64 -66 -86 -180q-21 -111 -21 -271q0 -165 21 -278q21 -114 86 -180
q66 -68 191 -68q122 0 188 68q66 67 87 180t21 278q0 160 -21 271z" />
    <glyph glyph-name="one" unicode="1" horiz-adv-x="444" 
d="M43 1195v155h351v-1350h-172v1195h-179z" />
    <glyph glyph-name="two" unicode="2" horiz-adv-x="980" 
d="M414 431q133 121 225 254t92 261q0 122 -58 190q-59 70 -188 70q-127 0 -196 -79q-69 -80 -75 -211h-163q8 209 126 321q119 113 306 113q191 0 303 -105t112 -291q0 -155 -91 -300q-90 -143 -209 -256q-107 -101 -299 -257h638v-141h-892v121q240 193 369 310z" />
    <glyph glyph-name="three" unicode="3" horiz-adv-x="958" 
d="M192 1256q116 94 302 94q126 0 214 -44q91 -46 137 -121q46 -76 46 -173q0 -112 -65 -195q-63 -81 -168 -105v-10q119 -29 188 -114t69 -224q0 -104 -48 -187q-49 -84 -142 -130q-93 -47 -227 -47q-193 0 -317 101q-123 100 -138 287h160q12 -110 89 -179q76 -69 204 -69
q127 0 194 67q66 66 66 172q0 136 -91 196q-92 60 -274 60h-42v138h43q167 1 253 56q86 54 86 166q0 97 -63 155q-62 58 -179 58q-114 0 -182 -58q-69 -58 -82 -156h-162q12 167 129 262z" />
    <glyph glyph-name="four" unicode="4" horiz-adv-x="1142" 
d="M43 304v130l662 916h206v-897h188v-149h-188v-304h-170v304h-698zM748 1171l-507 -718h507v718z" />
    <glyph glyph-name="five" unicode="5" horiz-adv-x="1007" 
d="M880 1202h-653v-425q44 61 127 98q85 38 180 38q156 0 251 -64q98 -66 139 -165q41 -98 41 -212v-2l1 -1q0 -130 -51 -240q-49 -107 -153 -168q-103 -61 -256 -61q-195 0 -316 100q-122 101 -147 268h166q24 -105 102 -165t197 -60q146 0 221 89q75 88 75 233t-75 224
t-219 79q-100 0 -172 -47q-75 -49 -107 -129h-160v758h809v-148z" />
    <glyph glyph-name="six" unicode="6" horiz-adv-x="1001" 
d="M510 1212q-161 0 -242 -125q-81 -124 -79 -412q42 95 140 149t218 54q187 0 300 -117q112 -116 112 -323q0 -124 -48 -223q-47 -98 -146 -157q-97 -58 -236 -58q-187 0 -294 84q-105 83 -148 232q-42 148 -42 365q0 669 467 669q179 0 281 -96q103 -97 121 -245h-154
q-41 203 -250 203zM364 705q-70 -31 -112 -96q-43 -64 -43 -158q0 -139 81 -226q80 -86 230 -86q127 0 203 79t76 215q0 143 -73 223q-74 81 -214 81h-2q-76 0 -146 -32z" />
    <glyph glyph-name="seven" unicode="7" horiz-adv-x="972" 
d="M931 1221l-521 -1221h-172l528 1204h-723v146h888v-129z" />
    <glyph glyph-name="eight" unicode="8" horiz-adv-x="1003" 
d="M129 824q-54 75 -54 183q0 94 49 174q49 79 144 124q96 45 232 45t232 -45q94 -44 145 -124q49 -77 49 -174q0 -103 -56 -182q-56 -78 -152 -116q112 -35 177 -119t65 -205q0 -116 -57 -203t-162 -135q-103 -47 -241 -47t-239 47q-104 48 -161 135t-57 203q0 120 65 206
q66 87 175 118q-99 38 -154 115zM283 576q-84 -62 -84 -186q0 -114 81 -184q80 -70 220 -70q138 0 218 70q81 70 81 184q0 121 -83 184q-84 64 -216 64t-217 -62zM697 1155q-73 59 -197 59q-123 0 -196 -59q-71 -58 -71 -170q0 -100 74 -161t193 -61q118 0 194 62
q74 61 74 162q0 110 -71 168z" />
    <glyph glyph-name="nine" unicode="9" horiz-adv-x="987" 
d="M322 196q68 -57 180 -57q152 0 224 119t69 401q-39 -83 -128 -129q-91 -47 -199 -47q-125 0 -219 50q-96 51 -151 148t-55 234q0 197 113 316t323 119q256 0 359 -166t103 -496q0 -229 -41 -381q-40 -149 -139 -228t-268 -79q-185 0 -291 101q-104 99 -119 256h154
q18 -104 85 -161zM696 700q79 77 79 206q0 136 -77 221q-76 84 -216 84q-128 0 -204 -80t-76 -212q0 -134 75 -215q74 -80 218 -80q124 0 201 76z" />
    <glyph glyph-name="colon" unicode=":" horiz-adv-x="239" 
d="M51 848v212h138v-212h-138zM51 2v212h138v-212h-138z" />
    <glyph glyph-name="semicolon" unicode=";" horiz-adv-x="235" 
d="M51 876v184h120v-184h-120zM68 0l32 146h-49v170h136v-170l-49 -146h-70z" />
    <glyph glyph-name="less" unicode="&#x3c;" horiz-adv-x="845" 
d="M43 529l751 453v-168l-522 -322l522 -317v-175l-751 447v82z" />
    <glyph glyph-name="equal" unicode="=" horiz-adv-x="751" 
d="M55 580v126h640v-126h-640zM55 299v126h640v-126h-640z" />
    <glyph glyph-name="greater" unicode="&#x3e;" horiz-adv-x="845" 
d="M802 447l-751 -447v175l522 317l-522 322v168l751 -453v-82z" />
    <glyph glyph-name="question" unicode="?" 
d="M251 398q0 70 16 124q17 56 51 102q33 44 91 81q41 27 79 47q49 28 85 57q41 34 67 79t26 109q0 71 -33 119t-86 72t-111 24h-1h-1h-2q-60 0 -115 -24q-56 -25 -96 -65q-39 -39 -67 -90l-111 74q34 78 95 132q60 54 139 83q75 28 159 28h1h1q70 0 137 -21q65 -20 121 -67
q55 -46 86 -112q32 -69 32 -159q0 -72 -19 -122q-18 -50 -52 -88q-35 -40 -77 -66q-44 -29 -90 -54q-49 -26 -88 -54q-45 -33 -70 -78q-27 -48 -27 -131h-140zM255 0v219h139v-219h-139z" />
    <glyph glyph-name="at" unicode="@" horiz-adv-x="1423" 
d="M718 1350q137 0 253 -47q117 -47 211 -139q95 -94 146 -217q53 -129 53 -284q0 -25 -5 -83q-4 -50 -19 -112q-16 -61 -43 -113q-28 -52 -79 -88q-49 -34 -123 -34q-61 0 -94 24q-33 23 -45 60q-11 30 -18 77q-51 -54 -131 -91t-176 -37q-132 0 -203 70t-71 175
q0 97 50 150t129 77q78 24 158 24q77 0 135 -15q45 -12 87 -27q0 80 -18 140q-18 61 -66 95q-47 34 -134 34h-3q-70 0 -133 -22q-57 -20 -113 -61l-37 89q65 43 141 67q80 25 157 25h1h1q105 0 168 -34q62 -33 90 -88q29 -55 38 -121q9 -64 9 -129v-215v-4q0 -46 6 -91
t25 -68q19 -24 61 -24q57 0 90 36q35 38 54 94t27 118q8 64 8 105q0 129 -44 241q-43 110 -124 194t-187 130q-109 47 -235 47q-124 0 -233 -44q-111 -45 -189 -125q-77 -77 -126 -192q-46 -108 -46 -240q0 -128 43 -236q45 -112 121 -193q77 -82 184 -130q108 -47 233 -47
q81 0 145 19q73 21 133 49l25 -68q-146 -73 -305 -73q-133 0 -253 50q-119 50 -209 141t-141 216q-52 127 -52 272q0 157 55 280q56 125 150 212q92 86 216 134q121 47 250 47h1h1zM821 399q47 21 71 50q22 24 31 59q8 32 8 63v66q-18 2 -82 22q-58 18 -140 18h-3
q-59 0 -111 -14q-53 -15 -86 -50t-33 -95q0 -44 23 -81q22 -37 62 -57q39 -21 94 -21q45 0 88 12q43 11 78 28z" />
    <glyph glyph-name="A" unicode="A" horiz-adv-x="1302" 
d="M1002 659l257 -659h-161q-13 32 -33 84.5t-63.5 163t-71.5 184.5l-29 73q-106 -12 -207 -49q-94 -35 -177.5 -91t-142.5 -120t-98.5 -118t-69.5 -109l-7 -18h-160l29 76l3 6l495 1268h166l254 -650l-156 -11l-181 463l-276 -708q120 96 268 152q128 47 230 54z" />
    <glyph glyph-name="B" unicode="B" horiz-adv-x="1169" 
d="M1007 700q120 -120 120 -289v-1q0 -170 -120.5 -290t-289.5 -120h-521h-149v630h149v-481h521q108 0 184.5 76.5t76.5 184.5t-76.5 184.5t-184.5 76.5h-670v679h501l2 1q138 0 237 -99t99 -240q0 -90 -45 -168q-64 18 -123 18h-1h-54q75 55 75 151q0 78 -55.5 133
t-133.5 55h-1h-352v-381h521h1q51 0 99 -12q3 -1 11 -3t11 -3l5 -2q2 -1 7 -2.5t8 -2.5q85 -32 148 -95z" />
    <glyph glyph-name="C" unicode="C" horiz-adv-x="1286" 
d="M714 150q113 0 213 44.5t173 124.5l142 -64q-95 -119 -233 -187t-295 -68q-137 0 -262 53.5t-215.5 144t-144 215.5t-53.5 262t53.5 262t144 215.5t215.5 144t262 53.5q157 0 295 -68t233 -187l-142 -64q-74 80 -174 125t-212 45q-107 0 -204 -41.5t-167.5 -112
t-112 -168t-41.5 -204.5t41.5 -204t112 -167.5t167.5 -112t204 -41.5z" />
    <glyph glyph-name="D" unicode="D" horiz-adv-x="1245" 
d="M525 1350q137 0 262 -53.5t216 -144t144.5 -215.5t53.5 -262t-53.5 -262t-144.5 -215.5t-216 -144t-262 -53.5h-478v1159h150v-1009h328q217 0 371 154t154 371t-154 371t-371 154h-478v150h478z" />
    <glyph glyph-name="E" unicode="E" horiz-adv-x="1112" 
d="M1061 1201h-864v-451h663v-150h-663v-450h864v-150h-1014v600v150v600h1014v-149z" />
    <glyph glyph-name="F" unicode="F" horiz-adv-x="1107" 
d="M197 1201v-451h663v-150h-663v-600h-150v1350h1014v-149h-864z" />
    <glyph glyph-name="G" unicode="G" horiz-adv-x="1431" 
d="M1389 675q0 -137 -53.5 -262t-144 -215.5t-215.5 -144t-262 -53.5t-262 53.5t-215.5 144t-144 215.5t-53.5 262t53.5 262t144 215.5t215.5 144t262 53.5q194 0 355 -100.5t246 -267.5h-175q-73 101 -185 160t-241 59q-107 0 -204 -41.5t-167.5 -112t-112 -168
t-41.5 -204.5t41.5 -204t112 -167.5t167.5 -112t204 -41.5q197 0 345 129t175 321h-532v150h532h151q4 -33 4 -75z" />
    <glyph glyph-name="H" unicode="H" horiz-adv-x="1179" 
d="M47 792v558h150v-558h-150zM1123 1350v-750h-926v-600h-150v750h150h777v600h149zM974 0v559h149v-559h-149z" />
    <glyph glyph-name="I" unicode="I" horiz-adv-x="251" 
d="M47 0v1350h150v-1350h-150z" />
    <glyph glyph-name="J" unicode="J" 
d="M421 0q-158 0 -270 112t-112 270v2h150v-2q0 -96 68 -164t164 -68t164 68t68 164v968h150v-968q0 -158 -112 -270t-270 -112z" />
    <glyph glyph-name="K" unicode="K" horiz-adv-x="1064" 
d="M1022 0h-212l-613 613v-613h-150v1350h150v-613l613 613h212l-675 -675z" />
    <glyph glyph-name="L" unicode="L" horiz-adv-x="874" 
d="M828 149v-149h-781v1350h149v-1201h632z" />
    <glyph glyph-name="M" unicode="M" horiz-adv-x="1253" 
d="M47 1080l150 -150v-930h-150v1080zM1198 1350v-1350h-150v989l-320 -320l-106 -106l-105 106l-470 470v211l150 -149l425 -426l426 426z" />
    <glyph glyph-name="N" unicode="N" horiz-adv-x="1114" 
d="M47 1065l150 -167v-898h-150v1065zM1059 1350v-1350l-150 167l-643 715l-219 245v223l150 -166l712 -794v960h150z" />
    <glyph glyph-name="O" unicode="O" horiz-adv-x="1433" 
d="M714 0q-137 0 -262 53.5t-215.5 144t-144 215.5t-53.5 262t53.5 262t144 215.5t215.5 144t262 53.5t262 -53.5t215.5 -144t144 -215.5t53.5 -262t-53.5 -262t-144 -215.5t-215.5 -144t-262 -53.5zM714 1201q-107 0 -204 -41.5t-167.5 -112t-112 -168t-41.5 -204.5
t41.5 -204t112 -167.5t167.5 -112t204 -41.5t204 41.5t167.5 112t112 167.5t41.5 204t-41.5 204.5t-112 168t-167.5 112t-204 41.5z" />
    <glyph glyph-name="P" unicode="P" horiz-adv-x="1026" 
d="M577 1350q167 0 286 -119t119 -286t-119 -286t-286 -119h-380v-540h-150v1159h150v-469h380q106 0 180.5 74.5t74.5 180.5t-74.5 181t-180.5 75h-530v149h530z" />
    <glyph glyph-name="Q" unicode="Q" horiz-adv-x="1472" 
d="M1429 21h-208l-127 127q-2 -2 -7 -5t-8 -5q-7 -6 -16 -11q-163 -105 -358 -105h-1l-1 -1q-179 0 -333 89q-152 88 -242 243q-89 154 -89 333t89 333q89 153 242 242q154 89 333 89q180 0 334 -89q153 -89 242 -242q89 -154 89 -333v-1q0 -228 -142 -409l-102 102l-3 3
q99 135 99 304l1 1q0 213 -152 365t-366 152q-213 0 -365 -152t-152 -365q0 -214 152 -366q151 -151 365 -151h1q137 0 252 65q4 2 9.5 5.5t6.5 4.5q3 2 8.5 5.5t7.5 4.5q62 41 110 98l105 -104z" />
    <glyph glyph-name="R" unicode="R" horiz-adv-x="1026" 
d="M641 546l342 -546h-177l-339 540h-270v-540h-150v1159h150v-469h380q106 0 180.5 74.5t74.5 180.5t-74.5 181t-180.5 75h-530v149h530q167 0 286 -119t119 -286q0 -150 -97.5 -263t-243.5 -136z" />
    <glyph glyph-name="S" unicode="S" horiz-adv-x="1040" 
d="M862 633q136 -93 136 -260t-126 -270t-330 -103q-113 0 -205.5 33t-151.5 88.5t-95 120t-51 135.5h178q11 -29 25.5 -56t43 -60.5t63.5 -57.5t90 -41t120 -17q134 0 206 67q62 57 62 141v1q0 29 -7 54t-22 45t-30 35.5t-40.5 29.5t-43.5 23t-50 18.5t-48 14.5t-48 13
l-15 4q-217 56 -313 114q-161 97 -161 262q0 164 133 273.5t331 109.5q93 0 172 -28t132.5 -75t88.5 -104.5t49 -120.5h-175q-29 72 -100 122t-171 50q-99 0 -181 -45q-105 -59 -105 -165q0 -94 95 -147q58 -32 234 -82l14 -4q70 -20 108.5 -32t93.5 -35.5t94 -50.5z" />
    <glyph glyph-name="T" unicode="T" horiz-adv-x="1214" 
d="M1168 1350v-149h-488v-1201h-150v1201h-489v149h1127z" />
    <glyph glyph-name="U" unicode="U" horiz-adv-x="1181" 
d="M589 0q-110 0 -210.5 43t-173 115.5t-115.5 173t-43 210.5v808h150v-808q0 -162 115 -277t277 -115t277.5 115t115.5 277v808h149v-808q0 -110 -43 -210.5t-115.5 -173t-173 -115.5t-210.5 -43z" />
    <glyph glyph-name="V" unicode="V" horiz-adv-x="1220" 
d="M1241 1350h14l-561 -1350h-14h-144h-14l-561 1350h14h131h14l488 -1174l488 1174h14h131z" />
    <glyph glyph-name="W" unicode="W" horiz-adv-x="1794" 
d="M1751 1350l-369 -1350h-194l-293 1074l-293 -1074h-195l-368 1350h155l311 -1138l310 1138h159l311 -1138l310 1138h156z" />
    <glyph glyph-name="X" unicode="X" horiz-adv-x="1269" 
d="M611 846l-6 -9l-86 -118l-460 631h185zM1227 0h-186l-387 532l7 9l86 119zM1206 1350l-481 -661l-92 -127l-409 -562h-185l501 689l93 127l388 534h185z" />
    <glyph glyph-name="Y" unicode="Y" horiz-adv-x="1187" 
d="M1144 1350l-477 -657v-693h-150v693l-478 657h185l293 -402l75 -103l75 103l292 402h185z" />
    <glyph glyph-name="Z" unicode="Z" horiz-adv-x="1249" 
d="M333 150h811v-150h-1105l109 150l392 539l93 127l279 385h-811v149h1105l-109 -149l-372 -512l-92 -127z" />
    <glyph glyph-name="bracketleft" unicode="[" horiz-adv-x="337" 
d="M51 0v1350h243v-124h-101v-1101h101v-125h-243z" />
    <glyph glyph-name="backslash" unicode="\" horiz-adv-x="1101" 
d="M231 1350l828 -1350h-187l-829 1350h188z" />
    <glyph glyph-name="bracketright" unicode="]" horiz-adv-x="337" 
d="M45 6v125h100v1101h-100v125h242v-1351h-242z" />
    <glyph glyph-name="asciicircum" unicode="^" horiz-adv-x="632" 
d="M47 982l227 368h85l226 -368h-86l-182 297l-186 -297h-84z" />
    <glyph glyph-name="underscore" unicode="_" horiz-adv-x="1032" 
d="M55 0v141h923v-141h-923z" />
    <glyph glyph-name="grave" unicode="`" horiz-adv-x="374" 
d="M47 1350h166l112 -246l-109 -49z" />
    <glyph glyph-name="a" unicode="a" horiz-adv-x="1085" 
d="M893 982h140v-18.5v-42v-58v-55.5v-44v-17q-53 103 -140 175v60zM893 823q86 -88 121 -204q14 -49 19 -105v-514h-140v159q-64 -69 -144 -108q-3 -2 -8.5 -4.5t-8.5 -3.5l-5 -3l-6 -2l-6 -3q-1 -1 -3 -1t-3 -1t-3 -1t-3 -1l-5 -2q-3 -1 -13 -4l-6 -3q-28 -8 -42 -11
q-1 0 -2 -0.5t-2 -0.5h-4t-4 -1q-1 0 -2 -0.5t-2 -0.5l-4 -1q-1 0 -2.5 -0.5t-2.5 -0.5q-2 0 -5 -0.5t-4 -0.5l-4 -1h-3q-4 -1 -12 -1q-1 0 -3 -0.5t-3 -0.5h-6h-1l-3 -1h-4h-5q-1 0 -3 -0.5t-3 -0.5h-21q-203 0 -347 144t-144 347t144 347t347 144q4 0 11 -0.5t10 -0.5h5h6
h3l4 -1h1h6l6 -1q8 0 12 -1l3 -1h4q1 0 4 -1t4 -1h6q1 0 3 -1t3 -1t3 -0.5t3 -0.5h1q1 0 3 -0.5t3 -0.5l6 -1l1 -1q12 -2 18 -4q8 -2 24 -8q1 -1 3.5 -1t3.5 -1l5 -2l6 -2q3 -1 9 -3.5t9 -3.5q99 -42 172 -121zM532 139q113 0 204.5 66t127.5 170q20 55 20 116
q0 4 -0.5 11.5t-0.5 10.5q-9 138 -110.5 234t-240.5 96q-146 0 -249 -103.5t-103 -248.5t103 -248.5t249 -103.5z" />
    <glyph glyph-name="b" unicode="b" horiz-adv-x="1083" 
d="M567 982q197 -8 335 -150q137 -141 137 -341t-137 -341q-138 -142 -335 -150h-19h-20q-1 0 -5 0.5t-6 0.5h-1q-187 12 -319 147q-44 49 -73 96q-77 121 -77 220v886h150v-516q132 135 319 147h1q2 0 6 0.5t5 0.5h20h19zM562 140q141 6 239 107q99 102 99 244t-99 244
q-98 101 -239 107q-2 0 -6.5 0.5t-7.5 0.5q-2 0 -7 -0.5t-7 -0.5q-137 -6 -233 -101t-104 -233v-34q3 -62 27 -119q39 -94 123 -152t188 -63q3 0 7 -0.5t6 -0.5q3 0 7.5 0.5t6.5 0.5zM47 235q55 -108 150 -183v-52h-150v235z" />
    <glyph glyph-name="c" unicode="c" horiz-adv-x="995" 
d="M532 138q91 0 168.5 43t125.5 117l127 -61q-66 -109 -178 -174t-243 -65q-203 0 -347 144t-144 347t144 347t347 144q131 0 243 -65t178 -174l-127 -60q-48 74 -125.5 117t-168.5 43q-146 0 -249 -103.5t-103 -248.5t103 -248t249 -103z" />
    <glyph glyph-name="d" unicode="d" horiz-adv-x="1087" 
d="M513 982h19h20q1 0 5.5 -0.5t6.5 -0.5q188 -12 320 -147v516h149v-886q0 -99 -77 -220q-32 -51 -72 -96q-132 -135 -320 -147q-2 0 -6.5 -0.5t-5.5 -0.5h-20h-19q-196 7 -334 150t-138 341q0 199 138 341q138 143 334 150zM519 140q2 0 6 -0.5t7 -0.5t7.5 0.5t6.5 0.5
q104 5 188 63t123 152q23 54 26 119v34q-8 138 -104 233t-233 101q-2 0 -6.5 0.5t-7.5 0.5q-2 0 -6 -0.5t-7 -0.5q-142 -6 -240 -107q-99 -102 -99 -244t99 -244q98 -101 240 -107zM1033 235v-235h-150v52q95 75 150 183z" />
    <glyph glyph-name="e" unicode="e" horiz-adv-x="1026" 
d="M826 299h157q-57 -134 -179.5 -216.5t-272.5 -82.5q-103 0 -195.5 40.5t-160.5 112.5q-26 27 -53 68q-25 38 -41 75q-40 92 -40 195q0 203 144 347t347 144q103 0 195.5 -41t160.5 -113q28 -29 53 -67q16 -24 34 -61l-694 -457l20 -17q89 -77 207.5 -85t216.5 57
q65 44 101 101zM197 383l8 -24l577 380l-20 17q-99 86 -230 86q-146 0 -249 -103t-103 -248q0 -55 17 -108z" />
    <glyph glyph-name="f" unicode="f" horiz-adv-x="684" 
d="M541 1209q-76 0 -129.5 -54t-53.5 -130v-140v-142v-743h-142v743h-177v142h177v140q0 134 95.5 229.5t229.5 95.5h95v-141h-95zM636 885v-142h-278l150 142h128z" />
    <glyph glyph-name="g" unicode="g" horiz-adv-x="993" 
d="M870 180q27 -63 55 -108l10 -16v-19q0 -27 -4.5 -58t-16.5 -75.5t-40.5 -93t-69.5 -89.5q-131 -131 -316 -131t-316 131q-97 97 -122 245h140q21 -91 78 -148q91 -91 220 -91q128 0 219 91q82 82 90 202q-22 39 -37 71q2 1 5 3t5 3q57 35 100 83zM950 989
q-64 -94 -99 -198q83 -117 83 -260q0 -152 -93 -272q-38 -59 -109 -102q-111 -73 -244 -73q-184 0 -315.5 131t-131.5 316t131.5 316t315.5 131h1q142 0 256 -82q37 87 91 169zM690 296q51 44 79.5 105t28.5 130q0 128 -91 219t-219 91t-219 -91t-91 -219t91 -219t219 -91
q116 0 202 75z" />
    <glyph glyph-name="h" unicode="h" 
d="M197 1350v-359q-26 -15 -43 -29q-63 -48 -107 -115v125v252v126h150zM804 604v-604h-150v604q0 94 -67 161t-161 67q-95 0 -162 -67t-67 -161v-604h-150v604q0 157 111 267.5t268 110.5q156 0 267 -111t111 -267z" />
    <glyph glyph-name="i" unicode="i" horiz-adv-x="251" 
d="M47 0v981h149v-981h-149zM47 1202v148h149v-148h-149z" />
    <glyph glyph-name="j" unicode="j" horiz-adv-x="526" 
d="M326 1204v146h146v-146h-146zM326 982h146v-1056q0 -139 -98 -237.5t-237 -98.5h-98v147h98q78 0 133.5 55.5t55.5 133.5v1056z" />
    <glyph glyph-name="k" unicode="k" horiz-adv-x="804" 
d="M153 404l22 -24l22 -24v-356h-150v523l68 -76zM748 982l-443 -431l-80 89v22l327 320h196zM285 531l476 -531h-206l-358 399l-22 24l-39 43l-89 99v785h150v-721z" />
    <glyph glyph-name="l" unicode="l" horiz-adv-x="251" 
d="M47 -2v1352h149v-1352h-149z" />
    <glyph glyph-name="m" unicode="m" horiz-adv-x="1464" 
d="M153 954q-61 -46 -106 -115v144h149q-15 -9 -43 -29zM1032 982q156 0 267 -111t111 -267v-604h-149v604q0 94 -67 161t-162 67q-94 0 -161 -67t-67 -161v-604h-150v604q0 94 -67 161t-162 67t-161.5 -67t-66.5 -161v-604h-150v604q0 157 110.5 267.5t267.5 110.5
q92 0 171.5 -41t132.5 -112q31 42 75 76q101 77 228 77z" />
    <glyph glyph-name="n" unicode="n" 
d="M197 983q-15 -9 -43 -29q-63 -48 -107 -115v36v72v36h150zM804 604v-604h-150v604q0 94 -67 161t-161 67q-95 0 -162 -67t-67 -161v-604h-150v604q0 157 111 267.5t268 110.5q156 0 267 -111t111 -267z" />
    <glyph glyph-name="o" unicode="o" horiz-adv-x="1071" 
d="M532 982q203 0 347 -144t144 -347t-144 -347t-347 -144t-347 144t-144 347t144 347t347 144zM532 139q146 0 249 103.5t103 248.5t-103 248.5t-249 103.5t-249 -103.5t-103 -248.5t103 -248.5t249 -103.5z" />
    <glyph glyph-name="p" unicode="p" horiz-adv-x="1087" 
d="M567 0h-19h-20q-1 0 -5 0.5t-6 0.5h-1q-187 12 -319 147v-557h-150v927q0 99 77 220q29 47 73 96q132 135 319 147h1q2 0 6 0.5t5 0.5h20h19q197 -8 335 -150q137 -141 137 -341t-137 -341q-138 -142 -335 -150zM562 842q-2 0 -6.5 0.5t-7.5 0.5q-2 0 -6 -0.5t-7 -0.5
q-104 -5 -188 -63t-123 -152q-24 -57 -27 -119v-34q8 -138 104 -233t233 -101q2 0 7 -0.5t7 -0.5q3 0 7.5 0.5t6.5 0.5q141 6 239 107q99 102 99 244t-99 244q-98 101 -239 107zM47 748v234h150v-52q-95 -76 -150 -182z" />
    <glyph glyph-name="q" unicode="q" horiz-adv-x="1085" 
d="M513 0q-196 7 -334 150t-138 341q0 199 138 341q138 143 334 150h19h20q1 0 5.5 -0.5t6.5 -0.5q188 -12 320 -147q40 -45 72 -96q77 -121 77 -220v-927h-149v557q-132 -135 -320 -147q-2 0 -6.5 -0.5t-5.5 -0.5h-20h-19zM519 842q-142 -6 -240 -107q-99 -102 -99 -244
t99 -244q98 -101 240 -107q3 0 7 -0.5t6 -0.5q3 0 7.5 0.5t6.5 0.5q137 6 233 101t104 233v34q-3 65 -26 119q-39 94 -123 152t-188 63q-2 0 -6.5 0.5t-7.5 0.5t-7 -0.5t-6 -0.5zM1033 748q-55 106 -150 182v52h150v-234z" />
    <glyph glyph-name="r" unicode="r" horiz-adv-x="645" 
d="M187 982v-46q-86 -69 -140 -160v52v102v52h140zM601 982v-139h-50q-151 0 -257.5 -106.5t-106.5 -257.5v-479h-140v473q0 104 40.5 198t108.5 162t162 108.5t198 40.5h45z" />
    <glyph glyph-name="s" unicode="s" horiz-adv-x="866" 
d="M475 561q156 -41 220 -76q129 -71 129 -206q0 -125 -102.5 -202t-269.5 -77q-83 0 -152.5 20.5t-114 51.5t-77 72.5t-48 79.5t-21.5 75h174q9 -25 23.5 -48.5t42.5 -51.5t76.5 -45.5t109.5 -17.5q96 0 142.5 38.5t46.5 90.5q0 28 -14 51t-32 37t-51 27t-54 18.5t-59 14.5
l-12 2q-45 11 -70 17t-71 20.5t-73.5 28t-63 36t-55.5 47t-34 58.5t-14 74q0 122 108 204t270 82q152 0 250.5 -78.5t115.5 -185.5h-172q-18 50 -70.5 85t-126.5 35q-44 0 -88 -12t-79.5 -43t-35.5 -75q0 -20 6.5 -36t24 -29t33 -22.5t49.5 -20.5t57 -17.5t71 -18.5z" />
    <glyph glyph-name="t" unicode="t" horiz-adv-x="684" 
d="M636 983v-142h-277l149 142h128zM542 142h95v-142h-95q-134 0 -229.5 95.5t-95.5 229.5v516h-178v142h178v367h142v-1025q0 -76 53.5 -129.5t129.5 -53.5z" />
    <glyph glyph-name="u" unicode="u" 
d="M654 -1q15 9 43 29q61 46 106 115v-36v-72v-36h-149zM47 378v604h150v-604q0 -94 66.5 -161t161.5 -67t162 67t67 161v604h149v-604q0 -157 -110.5 -267.5t-267.5 -110.5q-156 0 -267 111t-111 267z" />
    <glyph glyph-name="v" unicode="v" horiz-adv-x="1085" 
d="M148 982l364 -763l-77 -163l-442 926h155zM933 982h155l-468 -982h-155l76 159l74 156z" />
    <glyph glyph-name="w" unicode="w" horiz-adv-x="1480" 
d="M1438 982l-278 -982h-207l-215 762l-215 -762h-207l-277 982h145l236 -834l235 834h166l236 -834l235 834h146z" />
    <glyph glyph-name="x" unicode="x" horiz-adv-x="989" 
d="M460 636l-80 -108l-336 454h174l249 -336zM605 460l342 -460h-175l-254 342l8 10zM942 982l-362 -488l-87 -117l-280 -377h-174l367 494l87 118l275 370h174z" />
    <glyph glyph-name="y" unicode="y" horiz-adv-x="1157" 
d="M540 184l-65 -139l-436 937h158l357 -767zM957 982h158l-459 -985l-79 -170l-111 -237h-157l189 407l79 169z" />
    <glyph glyph-name="z" unicode="z" horiz-adv-x="1024" 
d="M326 140h597v-140h-884l109 140l545 702h-597v140h884l-109 -140z" />
    <glyph glyph-name="braceleft" unicode="{" horiz-adv-x="397" 
d="M257 1224v-427q0 -25 -12 -56q-13 -34 -39 -56q26 -22 38 -55q13 -36 13 -57v-447h96v-126h-196q-14 0 -26 11q-14 12 -14 42v474q0 36 -21 68t-53 36v112h1q24 0 40 17q18 20 25 41q8 26 8 41v456q0 35 15 43q16 9 25 9h196v-126h-96z" />
    <glyph glyph-name="bar" unicode="|" horiz-adv-x="235" 
d="M51 -113v1584h133v-1584h-133z" />
    <glyph glyph-name="braceright" unicode="}" horiz-adv-x="397" 
d="M45 1224v126h196q9 0 25 -9t16 -43v-456q0 -19 7 -41q7 -21 25 -41q15 -17 40 -17h1v-112q-32 -4 -53 -36q-20 -31 -20 -68v-474q0 -30 -14 -42q-12 -11 -27 -11h-196v126h96v447q0 24 12 57q13 34 39 55q-26 22 -39 56q-12 31 -12 56v427h-96z" />
    <glyph glyph-name="asciitilde" unicode="~" horiz-adv-x="952" 
d="M51 473q0 10 13 51q12 38 42 80q33 45 76 74q46 31 116 31t124 -29q18 -10 54.5 -30t55.5 -30q57 -31 114 -31q55 0 87 26t45 52q14 28 14 32h110q0 -4 -13 -41q-12 -34 -42 -78t-79 -75q-50 -32 -124 -32q-72 0 -131 30q-76 39 -110 59q-49 29 -107 29q-51 0 -80 -28
q-30 -29 -42 -58q-2 -5 -4.5 -10.5t-4 -9t-2.5 -6.5t-1 -5l-1 -1h-110z" />
    </font>
</defs>
</svg>
